G75*
%MOIN*%
%OFA0B0*%
%FSLAX25Y25*%
%IPPOS*%
%LPD*%
%AMOC8*
5,1,8,0,0,1.08239X$1,22.5*
%
%ADD10C,0.00000*%
%ADD11C,0.05906*%
%ADD12C,0.23000*%
%ADD13C,0.00600*%
%ADD14C,0.02578*%
%ADD15C,0.01000*%
%ADD16C,0.01600*%
D10*
X0026276Y0011207D02*
X0148323Y0011207D01*
X0148656Y0011211D01*
X0148989Y0011223D01*
X0149321Y0011243D01*
X0149653Y0011271D01*
X0149984Y0011307D01*
X0150314Y0011352D01*
X0150643Y0011404D01*
X0150971Y0011464D01*
X0151297Y0011532D01*
X0151621Y0011607D01*
X0151943Y0011691D01*
X0152263Y0011782D01*
X0152581Y0011881D01*
X0152897Y0011988D01*
X0153209Y0012102D01*
X0153519Y0012224D01*
X0153826Y0012354D01*
X0154130Y0012490D01*
X0154430Y0012634D01*
X0154727Y0012785D01*
X0155020Y0012944D01*
X0155309Y0013109D01*
X0155594Y0013281D01*
X0155875Y0013460D01*
X0156151Y0013646D01*
X0156423Y0013839D01*
X0156690Y0014038D01*
X0156952Y0014243D01*
X0157209Y0014455D01*
X0157461Y0014673D01*
X0157707Y0014896D01*
X0157948Y0015126D01*
X0158184Y0015362D01*
X0158414Y0015603D01*
X0158637Y0015849D01*
X0158855Y0016101D01*
X0159067Y0016358D01*
X0159272Y0016620D01*
X0159471Y0016887D01*
X0159664Y0017159D01*
X0159850Y0017435D01*
X0160029Y0017716D01*
X0160201Y0018001D01*
X0160366Y0018290D01*
X0160525Y0018583D01*
X0160676Y0018880D01*
X0160820Y0019180D01*
X0160956Y0019484D01*
X0161086Y0019791D01*
X0161208Y0020101D01*
X0161322Y0020413D01*
X0161429Y0020729D01*
X0161528Y0021047D01*
X0161619Y0021367D01*
X0161703Y0021689D01*
X0161778Y0022013D01*
X0161846Y0022339D01*
X0161906Y0022667D01*
X0161958Y0022996D01*
X0162003Y0023326D01*
X0162039Y0023657D01*
X0162067Y0023989D01*
X0162087Y0024321D01*
X0162099Y0024654D01*
X0162103Y0024987D01*
X0162102Y0024987D02*
X0162102Y0127231D01*
X0162103Y0127231D02*
X0162075Y0127588D01*
X0162038Y0127943D01*
X0161993Y0128298D01*
X0161939Y0128652D01*
X0161877Y0129004D01*
X0161806Y0129354D01*
X0161727Y0129703D01*
X0161639Y0130050D01*
X0161543Y0130394D01*
X0161439Y0130736D01*
X0161326Y0131075D01*
X0161205Y0131412D01*
X0161076Y0131746D01*
X0160940Y0132076D01*
X0160795Y0132403D01*
X0160642Y0132726D01*
X0160482Y0133046D01*
X0160314Y0133361D01*
X0160138Y0133673D01*
X0159955Y0133980D01*
X0159764Y0134282D01*
X0159566Y0134580D01*
X0159361Y0134873D01*
X0159149Y0135161D01*
X0158931Y0135444D01*
X0158705Y0135721D01*
X0158473Y0135993D01*
X0158234Y0136260D01*
X0157989Y0136520D01*
X0157737Y0136774D01*
X0157480Y0137022D01*
X0157217Y0137264D01*
X0156948Y0137500D01*
X0156673Y0137729D01*
X0156393Y0137951D01*
X0156107Y0138166D01*
X0155817Y0138375D01*
X0155521Y0138576D01*
X0155221Y0138770D01*
X0154916Y0138957D01*
X0154607Y0139136D01*
X0154293Y0139308D01*
X0153975Y0139472D01*
X0153654Y0139629D01*
X0153329Y0139777D01*
X0153000Y0139918D01*
X0152668Y0140051D01*
X0152333Y0140176D01*
X0151995Y0140292D01*
X0151654Y0140401D01*
X0151311Y0140501D01*
X0150965Y0140593D01*
X0150618Y0140676D01*
X0150268Y0140751D01*
X0149917Y0140818D01*
X0149564Y0140876D01*
X0149210Y0140925D01*
X0148854Y0140966D01*
X0148498Y0140999D01*
X0148142Y0141022D01*
X0147784Y0141037D01*
X0147427Y0141044D01*
X0147069Y0141042D01*
X0146712Y0141031D01*
X0146355Y0141011D01*
X0146354Y0141010D02*
X0026276Y0141010D01*
X0026276Y0141011D02*
X0025943Y0141007D01*
X0025610Y0140995D01*
X0025278Y0140975D01*
X0024946Y0140947D01*
X0024615Y0140911D01*
X0024285Y0140866D01*
X0023956Y0140814D01*
X0023628Y0140754D01*
X0023302Y0140686D01*
X0022978Y0140611D01*
X0022656Y0140527D01*
X0022336Y0140436D01*
X0022018Y0140337D01*
X0021702Y0140230D01*
X0021390Y0140116D01*
X0021080Y0139994D01*
X0020773Y0139864D01*
X0020469Y0139728D01*
X0020169Y0139584D01*
X0019872Y0139433D01*
X0019579Y0139274D01*
X0019290Y0139109D01*
X0019005Y0138937D01*
X0018724Y0138758D01*
X0018448Y0138572D01*
X0018176Y0138379D01*
X0017909Y0138180D01*
X0017647Y0137975D01*
X0017390Y0137763D01*
X0017138Y0137545D01*
X0016892Y0137322D01*
X0016651Y0137092D01*
X0016415Y0136856D01*
X0016185Y0136615D01*
X0015962Y0136369D01*
X0015744Y0136117D01*
X0015532Y0135860D01*
X0015327Y0135598D01*
X0015128Y0135331D01*
X0014935Y0135059D01*
X0014749Y0134783D01*
X0014570Y0134502D01*
X0014398Y0134217D01*
X0014233Y0133928D01*
X0014074Y0133635D01*
X0013923Y0133338D01*
X0013779Y0133038D01*
X0013643Y0132734D01*
X0013513Y0132427D01*
X0013391Y0132117D01*
X0013277Y0131805D01*
X0013170Y0131489D01*
X0013071Y0131171D01*
X0012980Y0130851D01*
X0012896Y0130529D01*
X0012821Y0130205D01*
X0012753Y0129879D01*
X0012693Y0129551D01*
X0012641Y0129222D01*
X0012596Y0128892D01*
X0012560Y0128561D01*
X0012532Y0128229D01*
X0012512Y0127897D01*
X0012500Y0127564D01*
X0012496Y0127231D01*
X0012496Y0024987D01*
X0012500Y0024654D01*
X0012512Y0024321D01*
X0012532Y0023989D01*
X0012560Y0023657D01*
X0012596Y0023326D01*
X0012641Y0022996D01*
X0012693Y0022667D01*
X0012753Y0022339D01*
X0012821Y0022013D01*
X0012896Y0021689D01*
X0012980Y0021367D01*
X0013071Y0021047D01*
X0013170Y0020729D01*
X0013277Y0020413D01*
X0013391Y0020101D01*
X0013513Y0019791D01*
X0013643Y0019484D01*
X0013779Y0019180D01*
X0013923Y0018880D01*
X0014074Y0018583D01*
X0014233Y0018290D01*
X0014398Y0018001D01*
X0014570Y0017716D01*
X0014749Y0017435D01*
X0014935Y0017159D01*
X0015128Y0016887D01*
X0015327Y0016620D01*
X0015532Y0016358D01*
X0015744Y0016101D01*
X0015962Y0015849D01*
X0016185Y0015603D01*
X0016415Y0015362D01*
X0016651Y0015126D01*
X0016892Y0014896D01*
X0017138Y0014673D01*
X0017390Y0014455D01*
X0017647Y0014243D01*
X0017909Y0014038D01*
X0018176Y0013839D01*
X0018448Y0013646D01*
X0018724Y0013460D01*
X0019005Y0013281D01*
X0019290Y0013109D01*
X0019579Y0012944D01*
X0019872Y0012785D01*
X0020169Y0012634D01*
X0020469Y0012490D01*
X0020773Y0012354D01*
X0021080Y0012224D01*
X0021390Y0012102D01*
X0021702Y0011988D01*
X0022018Y0011881D01*
X0022336Y0011782D01*
X0022656Y0011691D01*
X0022978Y0011607D01*
X0023302Y0011532D01*
X0023628Y0011464D01*
X0023956Y0011404D01*
X0024285Y0011352D01*
X0024615Y0011307D01*
X0024946Y0011271D01*
X0025278Y0011243D01*
X0025610Y0011223D01*
X0025943Y0011211D01*
X0026276Y0011207D01*
D11*
X0057249Y0020662D03*
X0057249Y0030662D03*
X0057249Y0040662D03*
X0057249Y0050662D03*
X0057249Y0060662D03*
X0057249Y0070662D03*
X0057249Y0080662D03*
X0057249Y0090662D03*
X0057249Y0100662D03*
X0057249Y0110662D03*
X0117349Y0110662D03*
X0117349Y0100662D03*
X0117349Y0090662D03*
X0117349Y0080662D03*
X0117349Y0070662D03*
X0117349Y0060662D03*
X0117349Y0050662D03*
X0117349Y0040662D03*
X0117349Y0030662D03*
X0117349Y0020662D03*
D12*
X0148323Y0024987D03*
X0026276Y0024987D03*
X0026276Y0127349D03*
X0148323Y0127349D03*
D13*
X0027908Y0012587D02*
X0025062Y0012587D01*
X0026276Y0012507D01*
X0148323Y0012507D01*
X0149536Y0012587D01*
X0146690Y0012587D01*
X0143537Y0013432D01*
X0140709Y0015064D01*
X0138400Y0017373D01*
X0136768Y0020201D01*
X0135923Y0023354D01*
X0135923Y0026619D01*
X0136768Y0029773D01*
X0138400Y0032601D01*
X0140709Y0034909D01*
X0143537Y0036542D01*
X0146690Y0037387D01*
X0149955Y0037387D01*
X0153109Y0036542D01*
X0155937Y0034909D01*
X0158245Y0032601D01*
X0159878Y0029773D01*
X0160723Y0026619D01*
X0160723Y0023773D01*
X0160802Y0024987D01*
X0160802Y0127166D01*
X0160723Y0127765D01*
X0160723Y0125717D01*
X0159878Y0122563D01*
X0158245Y0119735D01*
X0155937Y0117427D01*
X0153109Y0115794D01*
X0149955Y0114949D01*
X0146690Y0114949D01*
X0143537Y0115794D01*
X0140709Y0117427D01*
X0138400Y0119735D01*
X0136768Y0122563D01*
X0135923Y0125717D01*
X0135923Y0128982D01*
X0136768Y0132135D01*
X0138400Y0134963D01*
X0140709Y0137272D01*
X0143537Y0138904D01*
X0146546Y0139710D01*
X0146398Y0139710D01*
X0145904Y0139678D01*
X0145866Y0139710D01*
X0128938Y0139710D01*
X0128938Y0115414D01*
X0128762Y0115238D01*
X0045836Y0115238D01*
X0045661Y0115414D01*
X0045661Y0139710D01*
X0028052Y0139710D01*
X0031062Y0138904D01*
X0033889Y0137272D01*
X0036198Y0134963D01*
X0037831Y0132135D01*
X0038676Y0128982D01*
X0038676Y0125717D01*
X0037831Y0122563D01*
X0036198Y0119735D01*
X0033889Y0117427D01*
X0031062Y0115794D01*
X0027908Y0114949D01*
X0024643Y0114949D01*
X0021489Y0115794D01*
X0018662Y0117427D01*
X0016353Y0119735D01*
X0014721Y0122563D01*
X0013876Y0125717D01*
X0013876Y0128445D01*
X0013796Y0127231D01*
X0013796Y0024987D01*
X0013876Y0023773D01*
X0013876Y0026619D01*
X0014721Y0029773D01*
X0016353Y0032601D01*
X0018662Y0034909D01*
X0021489Y0036542D01*
X0024643Y0037387D01*
X0027908Y0037387D01*
X0031062Y0036542D01*
X0033889Y0034909D01*
X0036198Y0032601D01*
X0037831Y0029773D01*
X0038676Y0026619D01*
X0038676Y0023354D01*
X0037831Y0020201D01*
X0036198Y0017373D01*
X0033889Y0015064D01*
X0031062Y0013432D01*
X0027908Y0012587D01*
X0029461Y0013003D02*
X0145138Y0013003D01*
X0143243Y0013601D02*
X0031355Y0013601D01*
X0032392Y0014200D02*
X0142206Y0014200D01*
X0141170Y0014798D02*
X0033429Y0014798D01*
X0034222Y0015397D02*
X0140377Y0015397D01*
X0139778Y0015995D02*
X0034820Y0015995D01*
X0035419Y0016594D02*
X0139180Y0016594D01*
X0138581Y0017192D02*
X0119040Y0017192D01*
X0119532Y0017396D02*
X0120615Y0018480D01*
X0121202Y0019896D01*
X0121202Y0021429D01*
X0120615Y0022845D01*
X0119532Y0023929D01*
X0118116Y0024515D01*
X0116583Y0024515D01*
X0115167Y0023929D01*
X0114083Y0022845D01*
X0113496Y0021429D01*
X0113496Y0019896D01*
X0114083Y0018480D01*
X0115167Y0017396D01*
X0116583Y0016810D01*
X0118116Y0016810D01*
X0119532Y0017396D01*
X0119926Y0017791D02*
X0138159Y0017791D01*
X0137814Y0018389D02*
X0120525Y0018389D01*
X0120826Y0018988D02*
X0137468Y0018988D01*
X0137122Y0019587D02*
X0121074Y0019587D01*
X0121202Y0020185D02*
X0136777Y0020185D01*
X0136612Y0020784D02*
X0121202Y0020784D01*
X0121202Y0021382D02*
X0136451Y0021382D01*
X0136291Y0021981D02*
X0120973Y0021981D01*
X0120726Y0022579D02*
X0136131Y0022579D01*
X0135970Y0023178D02*
X0120283Y0023178D01*
X0119684Y0023776D02*
X0135923Y0023776D01*
X0135923Y0024375D02*
X0118455Y0024375D01*
X0119856Y0024610D02*
X0120852Y0025606D01*
X0143121Y0047875D01*
X0143121Y0047875D01*
X0144117Y0048871D01*
X0144117Y0078709D01*
X0144606Y0079198D01*
X0144606Y0081012D01*
X0143324Y0082294D01*
X0141511Y0082294D01*
X0140228Y0081012D01*
X0140228Y0079198D01*
X0140717Y0078709D01*
X0140717Y0050279D01*
X0121202Y0030764D01*
X0121202Y0031429D01*
X0120615Y0032845D01*
X0119532Y0033929D01*
X0118116Y0034515D01*
X0116583Y0034515D01*
X0115167Y0033929D01*
X0114083Y0032845D01*
X0113496Y0031429D01*
X0113496Y0029896D01*
X0114083Y0028480D01*
X0114553Y0028010D01*
X0103268Y0028010D01*
X0103268Y0028169D01*
X0101985Y0029451D01*
X0101618Y0029451D01*
X0111512Y0039345D01*
X0112332Y0040165D01*
X0112332Y0051271D01*
X0113121Y0052060D01*
X0113121Y0053873D01*
X0112332Y0054662D01*
X0112332Y0080367D01*
X0113121Y0081156D01*
X0113121Y0082970D01*
X0111838Y0084252D01*
X0110025Y0084252D01*
X0109943Y0084170D01*
X0109943Y0087842D01*
X0111142Y0089041D01*
X0111142Y0090854D01*
X0109859Y0092136D01*
X0108046Y0092136D01*
X0106764Y0090854D01*
X0106764Y0089041D01*
X0107143Y0088662D01*
X0107143Y0069969D01*
X0106354Y0069180D01*
X0106354Y0067367D01*
X0107143Y0066578D01*
X0107143Y0050747D01*
X0101288Y0044892D01*
X0100172Y0044892D01*
X0098890Y0043610D01*
X0098890Y0041797D01*
X0100172Y0040514D01*
X0101985Y0040514D01*
X0103268Y0041797D01*
X0103268Y0042912D01*
X0109123Y0048767D01*
X0109532Y0049177D01*
X0109532Y0041325D01*
X0098605Y0030399D01*
X0075215Y0030399D01*
X0074426Y0031188D01*
X0073311Y0031188D01*
X0063109Y0041390D01*
X0063109Y0041707D01*
X0063536Y0041280D01*
X0065349Y0041280D01*
X0066632Y0042562D01*
X0066632Y0044376D01*
X0065843Y0045165D01*
X0065843Y0054787D01*
X0066632Y0055576D01*
X0066632Y0057390D01*
X0065843Y0058179D01*
X0065843Y0073979D01*
X0066552Y0073979D01*
X0067835Y0075261D01*
X0067835Y0077075D01*
X0066552Y0078357D01*
X0064739Y0078357D01*
X0063457Y0077075D01*
X0063457Y0075959D01*
X0063109Y0075611D01*
X0063109Y0092210D01*
X0063887Y0092988D01*
X0063887Y0094802D01*
X0062605Y0096084D01*
X0060791Y0096084D01*
X0059509Y0094802D01*
X0059509Y0093851D01*
X0059432Y0093929D01*
X0058016Y0094515D01*
X0056483Y0094515D01*
X0055067Y0093929D01*
X0053983Y0092845D01*
X0053396Y0091429D01*
X0053396Y0089896D01*
X0053983Y0088480D01*
X0055067Y0087396D01*
X0056483Y0086810D01*
X0058016Y0086810D01*
X0059432Y0087396D01*
X0060309Y0088273D01*
X0060309Y0083052D01*
X0059432Y0083929D01*
X0058016Y0084515D01*
X0056483Y0084515D01*
X0055067Y0083929D01*
X0053983Y0082845D01*
X0053396Y0081429D01*
X0053396Y0079896D01*
X0053983Y0078480D01*
X0055067Y0077396D01*
X0056483Y0076810D01*
X0058016Y0076810D01*
X0059432Y0077396D01*
X0060309Y0078273D01*
X0060309Y0073052D01*
X0059432Y0073929D01*
X0058016Y0074515D01*
X0056483Y0074515D01*
X0055067Y0073929D01*
X0053983Y0072845D01*
X0053396Y0071429D01*
X0053396Y0069896D01*
X0053983Y0068480D01*
X0055067Y0067396D01*
X0056483Y0066810D01*
X0057758Y0066810D01*
X0057758Y0065606D01*
X0059040Y0064324D01*
X0060156Y0064324D01*
X0060309Y0064171D01*
X0060309Y0063052D01*
X0059432Y0063929D01*
X0058016Y0064515D01*
X0056483Y0064515D01*
X0055067Y0063929D01*
X0053983Y0062845D01*
X0053396Y0061429D01*
X0053396Y0059896D01*
X0053983Y0058480D01*
X0055067Y0057396D01*
X0056483Y0056810D01*
X0058016Y0056810D01*
X0059432Y0057396D01*
X0060309Y0058273D01*
X0060309Y0053052D01*
X0059432Y0053929D01*
X0058016Y0054515D01*
X0056483Y0054515D01*
X0055067Y0053929D01*
X0053983Y0052845D01*
X0053396Y0051429D01*
X0053396Y0049896D01*
X0053983Y0048480D01*
X0055067Y0047396D01*
X0056483Y0046810D01*
X0058016Y0046810D01*
X0059432Y0047396D01*
X0060309Y0048273D01*
X0060309Y0043052D01*
X0059432Y0043929D01*
X0058016Y0044515D01*
X0056483Y0044515D01*
X0055067Y0043929D01*
X0053983Y0042845D01*
X0053396Y0041429D01*
X0053396Y0039896D01*
X0053983Y0038480D01*
X0055067Y0037396D01*
X0056483Y0036810D01*
X0058016Y0036810D01*
X0059432Y0037396D01*
X0060515Y0038480D01*
X0060967Y0039571D01*
X0061129Y0039410D01*
X0071331Y0029208D01*
X0071331Y0028092D01*
X0071413Y0028010D01*
X0060579Y0028010D01*
X0060886Y0028434D01*
X0061190Y0029030D01*
X0061397Y0029667D01*
X0061502Y0030328D01*
X0061502Y0030362D01*
X0057549Y0030362D01*
X0057549Y0030962D01*
X0061502Y0030962D01*
X0061502Y0030997D01*
X0061397Y0031658D01*
X0061190Y0032295D01*
X0060886Y0032891D01*
X0060493Y0033433D01*
X0060020Y0033906D01*
X0059478Y0034300D01*
X0058882Y0034604D01*
X0058245Y0034810D01*
X0057584Y0034915D01*
X0057549Y0034915D01*
X0057549Y0030963D01*
X0056949Y0030963D01*
X0056949Y0034915D01*
X0056915Y0034915D01*
X0056253Y0034810D01*
X0055617Y0034604D01*
X0055020Y0034300D01*
X0054479Y0033906D01*
X0054005Y0033433D01*
X0053612Y0032891D01*
X0053308Y0032295D01*
X0053101Y0031658D01*
X0053019Y0031141D01*
X0027976Y0056184D01*
X0027976Y0076741D01*
X0028465Y0077230D01*
X0028465Y0079043D01*
X0027182Y0080325D01*
X0025369Y0080325D01*
X0024087Y0079043D01*
X0024087Y0077230D01*
X0024576Y0076741D01*
X0024576Y0054776D01*
X0025571Y0053780D01*
X0025571Y0053780D01*
X0053746Y0025606D01*
X0053746Y0025606D01*
X0054742Y0024610D01*
X0100830Y0024610D01*
X0101079Y0024858D01*
X0101327Y0024610D01*
X0119856Y0024610D01*
X0120220Y0024973D02*
X0135923Y0024973D01*
X0135923Y0025572D02*
X0120818Y0025572D01*
X0121417Y0026170D02*
X0135923Y0026170D01*
X0135963Y0026769D02*
X0122015Y0026769D01*
X0122614Y0027367D02*
X0136123Y0027367D01*
X0136284Y0027966D02*
X0123212Y0027966D01*
X0123811Y0028564D02*
X0136444Y0028564D01*
X0136604Y0029163D02*
X0124409Y0029163D01*
X0125008Y0029761D02*
X0136765Y0029761D01*
X0137107Y0030360D02*
X0125606Y0030360D01*
X0126205Y0030958D02*
X0137452Y0030958D01*
X0137798Y0031557D02*
X0126803Y0031557D01*
X0127402Y0032155D02*
X0138143Y0032155D01*
X0138553Y0032754D02*
X0128000Y0032754D01*
X0128599Y0033352D02*
X0139152Y0033352D01*
X0139750Y0033951D02*
X0129197Y0033951D01*
X0129796Y0034549D02*
X0140349Y0034549D01*
X0141122Y0035148D02*
X0130394Y0035148D01*
X0130993Y0035746D02*
X0142159Y0035746D01*
X0143195Y0036345D02*
X0131591Y0036345D01*
X0132190Y0036943D02*
X0145035Y0036943D01*
X0151611Y0036943D02*
X0160802Y0036943D01*
X0160802Y0036345D02*
X0153450Y0036345D01*
X0154487Y0035746D02*
X0160802Y0035746D01*
X0160802Y0035148D02*
X0155524Y0035148D01*
X0156297Y0034549D02*
X0160802Y0034549D01*
X0160802Y0033951D02*
X0156895Y0033951D01*
X0157494Y0033352D02*
X0160802Y0033352D01*
X0160802Y0032754D02*
X0158092Y0032754D01*
X0158502Y0032155D02*
X0160802Y0032155D01*
X0160802Y0031557D02*
X0158848Y0031557D01*
X0159194Y0030958D02*
X0160802Y0030958D01*
X0160802Y0030360D02*
X0159539Y0030360D01*
X0159881Y0029761D02*
X0160802Y0029761D01*
X0160802Y0029163D02*
X0160041Y0029163D01*
X0160202Y0028564D02*
X0160802Y0028564D01*
X0160802Y0027966D02*
X0160362Y0027966D01*
X0160522Y0027367D02*
X0160802Y0027367D01*
X0160802Y0026769D02*
X0160683Y0026769D01*
X0160723Y0026170D02*
X0160802Y0026170D01*
X0160802Y0025572D02*
X0160723Y0025572D01*
X0160723Y0024973D02*
X0160801Y0024973D01*
X0160762Y0024375D02*
X0160723Y0024375D01*
X0160723Y0023776D02*
X0160723Y0023776D01*
X0160802Y0037542D02*
X0132788Y0037542D01*
X0133387Y0038140D02*
X0160802Y0038140D01*
X0160802Y0038739D02*
X0133985Y0038739D01*
X0134584Y0039337D02*
X0160802Y0039337D01*
X0160802Y0039936D02*
X0135183Y0039936D01*
X0135781Y0040534D02*
X0160802Y0040534D01*
X0160802Y0041133D02*
X0136380Y0041133D01*
X0136978Y0041731D02*
X0160802Y0041731D01*
X0160802Y0042330D02*
X0137577Y0042330D01*
X0138175Y0042928D02*
X0160802Y0042928D01*
X0160802Y0043527D02*
X0138774Y0043527D01*
X0139372Y0044125D02*
X0160802Y0044125D01*
X0160802Y0044724D02*
X0139971Y0044724D01*
X0140569Y0045322D02*
X0160802Y0045322D01*
X0160802Y0045921D02*
X0141168Y0045921D01*
X0141766Y0046520D02*
X0160802Y0046520D01*
X0160802Y0047118D02*
X0142365Y0047118D01*
X0142963Y0047717D02*
X0160802Y0047717D01*
X0160802Y0048315D02*
X0143562Y0048315D01*
X0144117Y0048914D02*
X0160802Y0048914D01*
X0160802Y0049512D02*
X0144117Y0049512D01*
X0144117Y0050111D02*
X0160802Y0050111D01*
X0160802Y0050709D02*
X0144117Y0050709D01*
X0144117Y0051308D02*
X0160802Y0051308D01*
X0160802Y0051906D02*
X0144117Y0051906D01*
X0144117Y0052505D02*
X0160802Y0052505D01*
X0160802Y0053103D02*
X0144117Y0053103D01*
X0144117Y0053702D02*
X0160802Y0053702D01*
X0160802Y0054300D02*
X0144117Y0054300D01*
X0144117Y0054899D02*
X0160802Y0054899D01*
X0160802Y0055497D02*
X0144117Y0055497D01*
X0144117Y0056096D02*
X0160802Y0056096D01*
X0160802Y0056694D02*
X0144117Y0056694D01*
X0144117Y0057293D02*
X0160802Y0057293D01*
X0160802Y0057891D02*
X0144117Y0057891D01*
X0144117Y0058490D02*
X0160802Y0058490D01*
X0160802Y0059088D02*
X0144117Y0059088D01*
X0144117Y0059687D02*
X0160802Y0059687D01*
X0160802Y0060285D02*
X0144117Y0060285D01*
X0144117Y0060884D02*
X0160802Y0060884D01*
X0160802Y0061482D02*
X0144117Y0061482D01*
X0144117Y0062081D02*
X0160802Y0062081D01*
X0160802Y0062679D02*
X0144117Y0062679D01*
X0144117Y0063278D02*
X0160802Y0063278D01*
X0160802Y0063876D02*
X0144117Y0063876D01*
X0144117Y0064475D02*
X0160802Y0064475D01*
X0160802Y0065073D02*
X0144117Y0065073D01*
X0144117Y0065672D02*
X0160802Y0065672D01*
X0160802Y0066270D02*
X0144117Y0066270D01*
X0144117Y0066869D02*
X0160802Y0066869D01*
X0160802Y0067467D02*
X0144117Y0067467D01*
X0144117Y0068066D02*
X0160802Y0068066D01*
X0160802Y0068664D02*
X0144117Y0068664D01*
X0144117Y0069263D02*
X0160802Y0069263D01*
X0160802Y0069861D02*
X0144117Y0069861D01*
X0144117Y0070460D02*
X0160802Y0070460D01*
X0160802Y0071058D02*
X0144117Y0071058D01*
X0144117Y0071657D02*
X0160802Y0071657D01*
X0160802Y0072255D02*
X0144117Y0072255D01*
X0144117Y0072854D02*
X0160802Y0072854D01*
X0160802Y0073453D02*
X0144117Y0073453D01*
X0144117Y0074051D02*
X0160802Y0074051D01*
X0160802Y0074650D02*
X0144117Y0074650D01*
X0144117Y0075248D02*
X0160802Y0075248D01*
X0160802Y0075847D02*
X0144117Y0075847D01*
X0144117Y0076445D02*
X0160802Y0076445D01*
X0160802Y0077044D02*
X0144117Y0077044D01*
X0144117Y0077642D02*
X0160802Y0077642D01*
X0160802Y0078241D02*
X0144117Y0078241D01*
X0144247Y0078839D02*
X0160802Y0078839D01*
X0160802Y0079438D02*
X0144606Y0079438D01*
X0144606Y0080036D02*
X0160802Y0080036D01*
X0160802Y0080635D02*
X0144606Y0080635D01*
X0144385Y0081233D02*
X0160802Y0081233D01*
X0160802Y0081832D02*
X0143786Y0081832D01*
X0141048Y0081832D02*
X0121035Y0081832D01*
X0121202Y0081429D02*
X0120615Y0082845D01*
X0119532Y0083929D01*
X0118116Y0084515D01*
X0116583Y0084515D01*
X0115167Y0083929D01*
X0114083Y0082845D01*
X0113496Y0081429D01*
X0113496Y0079896D01*
X0114083Y0078480D01*
X0115167Y0077396D01*
X0116583Y0076810D01*
X0118116Y0076810D01*
X0119532Y0077396D01*
X0120615Y0078480D01*
X0121202Y0079896D01*
X0121202Y0081429D01*
X0121202Y0081233D02*
X0140450Y0081233D01*
X0140228Y0080635D02*
X0121202Y0080635D01*
X0121202Y0080036D02*
X0140228Y0080036D01*
X0140228Y0079438D02*
X0121012Y0079438D01*
X0120764Y0078839D02*
X0140588Y0078839D01*
X0140717Y0078241D02*
X0120376Y0078241D01*
X0119777Y0077642D02*
X0140717Y0077642D01*
X0140717Y0077044D02*
X0118680Y0077044D01*
X0118116Y0074515D02*
X0116583Y0074515D01*
X0115167Y0073929D01*
X0114083Y0072845D01*
X0113496Y0071429D01*
X0113496Y0069896D01*
X0114083Y0068480D01*
X0115167Y0067396D01*
X0116583Y0066810D01*
X0118116Y0066810D01*
X0119532Y0067396D01*
X0120615Y0068480D01*
X0121202Y0069896D01*
X0121202Y0071429D01*
X0120615Y0072845D01*
X0119532Y0073929D01*
X0118116Y0074515D01*
X0119236Y0074051D02*
X0140717Y0074051D01*
X0140717Y0073453D02*
X0120008Y0073453D01*
X0120606Y0072854D02*
X0140717Y0072854D01*
X0140717Y0072255D02*
X0120860Y0072255D01*
X0121107Y0071657D02*
X0140717Y0071657D01*
X0140717Y0071058D02*
X0121202Y0071058D01*
X0121202Y0070460D02*
X0140717Y0070460D01*
X0140717Y0069861D02*
X0121188Y0069861D01*
X0120940Y0069263D02*
X0140717Y0069263D01*
X0140717Y0068664D02*
X0120692Y0068664D01*
X0120201Y0068066D02*
X0140717Y0068066D01*
X0140717Y0067467D02*
X0119603Y0067467D01*
X0118258Y0066869D02*
X0140717Y0066869D01*
X0140717Y0066270D02*
X0112332Y0066270D01*
X0112332Y0065672D02*
X0140717Y0065672D01*
X0140717Y0065073D02*
X0112332Y0065073D01*
X0112332Y0064475D02*
X0116485Y0064475D01*
X0116583Y0064515D02*
X0115167Y0063929D01*
X0114083Y0062845D01*
X0113496Y0061429D01*
X0113496Y0059896D01*
X0114083Y0058480D01*
X0115167Y0057396D01*
X0116583Y0056810D01*
X0118116Y0056810D01*
X0119532Y0057396D01*
X0120615Y0058480D01*
X0121202Y0059896D01*
X0121202Y0061429D01*
X0120615Y0062845D01*
X0119532Y0063929D01*
X0118116Y0064515D01*
X0116583Y0064515D01*
X0115114Y0063876D02*
X0112332Y0063876D01*
X0112332Y0063278D02*
X0114516Y0063278D01*
X0114014Y0062679D02*
X0112332Y0062679D01*
X0112332Y0062081D02*
X0113767Y0062081D01*
X0113519Y0061482D02*
X0112332Y0061482D01*
X0112332Y0060884D02*
X0113496Y0060884D01*
X0113496Y0060285D02*
X0112332Y0060285D01*
X0112332Y0059687D02*
X0113583Y0059687D01*
X0113831Y0059088D02*
X0112332Y0059088D01*
X0112332Y0058490D02*
X0114079Y0058490D01*
X0114672Y0057891D02*
X0112332Y0057891D01*
X0112332Y0057293D02*
X0115417Y0057293D01*
X0112332Y0056694D02*
X0140717Y0056694D01*
X0140717Y0056096D02*
X0112332Y0056096D01*
X0112332Y0055497D02*
X0140717Y0055497D01*
X0140717Y0054899D02*
X0112332Y0054899D01*
X0112694Y0054300D02*
X0116064Y0054300D01*
X0116583Y0054515D02*
X0115167Y0053929D01*
X0114083Y0052845D01*
X0113496Y0051429D01*
X0113496Y0049896D01*
X0114083Y0048480D01*
X0115167Y0047396D01*
X0116583Y0046810D01*
X0118116Y0046810D01*
X0119532Y0047396D01*
X0120615Y0048480D01*
X0121202Y0049896D01*
X0121202Y0051429D01*
X0120615Y0052845D01*
X0119532Y0053929D01*
X0118116Y0054515D01*
X0116583Y0054515D01*
X0114940Y0053702D02*
X0113121Y0053702D01*
X0113121Y0053103D02*
X0114341Y0053103D01*
X0113942Y0052505D02*
X0113121Y0052505D01*
X0112967Y0051906D02*
X0113694Y0051906D01*
X0113496Y0051308D02*
X0112369Y0051308D01*
X0112332Y0050709D02*
X0113496Y0050709D01*
X0113496Y0050111D02*
X0112332Y0050111D01*
X0112332Y0049512D02*
X0113656Y0049512D01*
X0113903Y0048914D02*
X0112332Y0048914D01*
X0112332Y0048315D02*
X0114248Y0048315D01*
X0114847Y0047717D02*
X0112332Y0047717D01*
X0112332Y0047118D02*
X0115838Y0047118D01*
X0118860Y0047118D02*
X0137556Y0047118D01*
X0136958Y0046520D02*
X0112332Y0046520D01*
X0112332Y0045921D02*
X0136359Y0045921D01*
X0135761Y0045322D02*
X0112332Y0045322D01*
X0112332Y0044724D02*
X0135162Y0044724D01*
X0134564Y0044125D02*
X0119056Y0044125D01*
X0119532Y0043929D02*
X0118116Y0044515D01*
X0116583Y0044515D01*
X0115167Y0043929D01*
X0114083Y0042845D01*
X0113496Y0041429D01*
X0113496Y0039896D01*
X0114083Y0038480D01*
X0115167Y0037396D01*
X0116583Y0036810D01*
X0118116Y0036810D01*
X0119532Y0037396D01*
X0120615Y0038480D01*
X0121202Y0039896D01*
X0121202Y0041429D01*
X0120615Y0042845D01*
X0119532Y0043929D01*
X0119933Y0043527D02*
X0133965Y0043527D01*
X0133367Y0042928D02*
X0120532Y0042928D01*
X0120829Y0042330D02*
X0132768Y0042330D01*
X0132170Y0041731D02*
X0121077Y0041731D01*
X0121202Y0041133D02*
X0131571Y0041133D01*
X0130973Y0040534D02*
X0121202Y0040534D01*
X0121202Y0039936D02*
X0130374Y0039936D01*
X0129776Y0039337D02*
X0120971Y0039337D01*
X0120723Y0038739D02*
X0129177Y0038739D01*
X0128579Y0038140D02*
X0120276Y0038140D01*
X0119677Y0037542D02*
X0127980Y0037542D01*
X0127382Y0036943D02*
X0118438Y0036943D01*
X0116260Y0036943D02*
X0109110Y0036943D01*
X0109708Y0037542D02*
X0115021Y0037542D01*
X0114423Y0038140D02*
X0110307Y0038140D01*
X0110905Y0038739D02*
X0113976Y0038739D01*
X0113728Y0039337D02*
X0111504Y0039337D01*
X0112102Y0039936D02*
X0113496Y0039936D01*
X0113496Y0040534D02*
X0112332Y0040534D01*
X0112332Y0041133D02*
X0113496Y0041133D01*
X0113622Y0041731D02*
X0112332Y0041731D01*
X0112332Y0042330D02*
X0113870Y0042330D01*
X0114167Y0042928D02*
X0112332Y0042928D01*
X0112332Y0043527D02*
X0114765Y0043527D01*
X0115642Y0044125D02*
X0112332Y0044125D01*
X0109532Y0044125D02*
X0104481Y0044125D01*
X0103882Y0043527D02*
X0109532Y0043527D01*
X0109532Y0042928D02*
X0103284Y0042928D01*
X0103268Y0042330D02*
X0109532Y0042330D01*
X0109532Y0041731D02*
X0103202Y0041731D01*
X0102604Y0041133D02*
X0109339Y0041133D01*
X0108741Y0040534D02*
X0102005Y0040534D01*
X0100152Y0040534D02*
X0063964Y0040534D01*
X0064562Y0039936D02*
X0108142Y0039936D01*
X0107544Y0039337D02*
X0065161Y0039337D01*
X0065759Y0038739D02*
X0106945Y0038739D01*
X0106347Y0038140D02*
X0066358Y0038140D01*
X0066956Y0037542D02*
X0105748Y0037542D01*
X0105150Y0036943D02*
X0067555Y0036943D01*
X0068153Y0036345D02*
X0104551Y0036345D01*
X0103953Y0035746D02*
X0068752Y0035746D01*
X0069350Y0035148D02*
X0103354Y0035148D01*
X0102756Y0034549D02*
X0069949Y0034549D01*
X0070547Y0033951D02*
X0102157Y0033951D01*
X0101559Y0033352D02*
X0071146Y0033352D01*
X0071745Y0032754D02*
X0100960Y0032754D01*
X0100362Y0032155D02*
X0072343Y0032155D01*
X0072942Y0031557D02*
X0099763Y0031557D01*
X0099165Y0030958D02*
X0074656Y0030958D01*
X0071331Y0029163D02*
X0061234Y0029163D01*
X0061412Y0029761D02*
X0070777Y0029761D01*
X0070179Y0030360D02*
X0061502Y0030360D01*
X0061413Y0031557D02*
X0068982Y0031557D01*
X0069580Y0030958D02*
X0057549Y0030958D01*
X0057549Y0031557D02*
X0056949Y0031557D01*
X0056949Y0032155D02*
X0057549Y0032155D01*
X0057549Y0032754D02*
X0056949Y0032754D01*
X0056949Y0033352D02*
X0057549Y0033352D01*
X0057549Y0033951D02*
X0056949Y0033951D01*
X0056949Y0034549D02*
X0057549Y0034549D01*
X0058988Y0034549D02*
X0065989Y0034549D01*
X0066588Y0033951D02*
X0059958Y0033951D01*
X0060552Y0033352D02*
X0067186Y0033352D01*
X0067785Y0032754D02*
X0060957Y0032754D01*
X0061236Y0032155D02*
X0068383Y0032155D01*
X0065391Y0035148D02*
X0049012Y0035148D01*
X0048414Y0035746D02*
X0064792Y0035746D01*
X0064194Y0036345D02*
X0047815Y0036345D01*
X0047217Y0036943D02*
X0056160Y0036943D01*
X0054921Y0037542D02*
X0046618Y0037542D01*
X0046020Y0038140D02*
X0054323Y0038140D01*
X0053876Y0038739D02*
X0045421Y0038739D01*
X0044823Y0039337D02*
X0053628Y0039337D01*
X0053396Y0039936D02*
X0044224Y0039936D01*
X0043626Y0040534D02*
X0053396Y0040534D01*
X0053396Y0041133D02*
X0043027Y0041133D01*
X0042429Y0041731D02*
X0053522Y0041731D01*
X0053770Y0042330D02*
X0041830Y0042330D01*
X0041232Y0042928D02*
X0054067Y0042928D01*
X0054665Y0043527D02*
X0040633Y0043527D01*
X0040035Y0044125D02*
X0055542Y0044125D01*
X0058956Y0044125D02*
X0060309Y0044125D01*
X0060309Y0043527D02*
X0059833Y0043527D01*
X0060309Y0044724D02*
X0039436Y0044724D01*
X0038838Y0045322D02*
X0060309Y0045322D01*
X0060309Y0045921D02*
X0038239Y0045921D01*
X0037641Y0046520D02*
X0060309Y0046520D01*
X0060309Y0047118D02*
X0058760Y0047118D01*
X0059752Y0047717D02*
X0060309Y0047717D01*
X0055738Y0047118D02*
X0037042Y0047118D01*
X0036444Y0047717D02*
X0054747Y0047717D01*
X0054148Y0048315D02*
X0035845Y0048315D01*
X0035247Y0048914D02*
X0053803Y0048914D01*
X0053556Y0049512D02*
X0034648Y0049512D01*
X0034049Y0050111D02*
X0053396Y0050111D01*
X0053396Y0050709D02*
X0033451Y0050709D01*
X0032852Y0051308D02*
X0053396Y0051308D01*
X0053594Y0051906D02*
X0032254Y0051906D01*
X0031655Y0052505D02*
X0053842Y0052505D01*
X0054241Y0053103D02*
X0031057Y0053103D01*
X0030458Y0053702D02*
X0054840Y0053702D01*
X0055964Y0054300D02*
X0029860Y0054300D01*
X0029261Y0054899D02*
X0060309Y0054899D01*
X0060309Y0055497D02*
X0028663Y0055497D01*
X0028064Y0056096D02*
X0060309Y0056096D01*
X0060309Y0056694D02*
X0027976Y0056694D01*
X0027976Y0057293D02*
X0055317Y0057293D01*
X0054572Y0057891D02*
X0027976Y0057891D01*
X0027976Y0058490D02*
X0053979Y0058490D01*
X0053731Y0059088D02*
X0027976Y0059088D01*
X0027976Y0059687D02*
X0053483Y0059687D01*
X0053396Y0060285D02*
X0027976Y0060285D01*
X0027976Y0060884D02*
X0053396Y0060884D01*
X0053419Y0061482D02*
X0027976Y0061482D01*
X0027976Y0062081D02*
X0053667Y0062081D01*
X0053914Y0062679D02*
X0027976Y0062679D01*
X0027976Y0063278D02*
X0054416Y0063278D01*
X0055014Y0063876D02*
X0027976Y0063876D01*
X0027976Y0064475D02*
X0056385Y0064475D01*
X0058113Y0064475D02*
X0058889Y0064475D01*
X0059484Y0063876D02*
X0060309Y0063876D01*
X0060309Y0063278D02*
X0060082Y0063278D01*
X0058290Y0065073D02*
X0027976Y0065073D01*
X0027976Y0065672D02*
X0057758Y0065672D01*
X0057758Y0066270D02*
X0027976Y0066270D01*
X0027976Y0066869D02*
X0056340Y0066869D01*
X0054996Y0067467D02*
X0027976Y0067467D01*
X0027976Y0068066D02*
X0054397Y0068066D01*
X0053907Y0068664D02*
X0027976Y0068664D01*
X0027976Y0069263D02*
X0053659Y0069263D01*
X0053411Y0069861D02*
X0027976Y0069861D01*
X0027976Y0070460D02*
X0053396Y0070460D01*
X0053396Y0071058D02*
X0027976Y0071058D01*
X0027976Y0071657D02*
X0053491Y0071657D01*
X0053739Y0072255D02*
X0027976Y0072255D01*
X0027976Y0072854D02*
X0053992Y0072854D01*
X0054591Y0073453D02*
X0027976Y0073453D01*
X0027976Y0074051D02*
X0055362Y0074051D01*
X0059136Y0074051D02*
X0060309Y0074051D01*
X0060309Y0073453D02*
X0059908Y0073453D01*
X0060309Y0074650D02*
X0027976Y0074650D01*
X0027976Y0075248D02*
X0060309Y0075248D01*
X0060309Y0075847D02*
X0027976Y0075847D01*
X0027976Y0076445D02*
X0060309Y0076445D01*
X0060309Y0077044D02*
X0058580Y0077044D01*
X0059677Y0077642D02*
X0060309Y0077642D01*
X0060276Y0078241D02*
X0060309Y0078241D01*
X0063109Y0078241D02*
X0064623Y0078241D01*
X0064024Y0077642D02*
X0063109Y0077642D01*
X0063109Y0077044D02*
X0063457Y0077044D01*
X0063457Y0076445D02*
X0063109Y0076445D01*
X0063109Y0075847D02*
X0063344Y0075847D01*
X0065843Y0073453D02*
X0069362Y0073453D01*
X0069362Y0072872D02*
X0070644Y0071590D01*
X0072458Y0071590D01*
X0073740Y0072872D01*
X0073740Y0073988D01*
X0081557Y0081805D01*
X0092641Y0081805D01*
X0093430Y0081016D01*
X0095243Y0081016D01*
X0096526Y0082299D01*
X0096526Y0084112D01*
X0095243Y0085394D01*
X0093430Y0085394D01*
X0092641Y0084605D01*
X0080398Y0084605D01*
X0079578Y0083785D01*
X0071760Y0075968D01*
X0070644Y0075968D01*
X0069362Y0074686D01*
X0069362Y0072872D01*
X0069380Y0072854D02*
X0065843Y0072854D01*
X0065843Y0072255D02*
X0069979Y0072255D01*
X0070578Y0071657D02*
X0065843Y0071657D01*
X0065843Y0071058D02*
X0107143Y0071058D01*
X0107143Y0070460D02*
X0065843Y0070460D01*
X0065843Y0069861D02*
X0107035Y0069861D01*
X0106437Y0069263D02*
X0065843Y0069263D01*
X0065843Y0068664D02*
X0106354Y0068664D01*
X0106354Y0068066D02*
X0065843Y0068066D01*
X0065843Y0067467D02*
X0106354Y0067467D01*
X0106852Y0066869D02*
X0065843Y0066869D01*
X0065843Y0066270D02*
X0076274Y0066270D01*
X0076402Y0066398D02*
X0075120Y0065116D01*
X0075120Y0063303D01*
X0076402Y0062020D01*
X0078216Y0062020D01*
X0079142Y0062946D01*
X0085220Y0062946D01*
X0086009Y0062158D01*
X0087823Y0062158D01*
X0089105Y0063440D01*
X0089105Y0065253D01*
X0087823Y0066535D01*
X0086009Y0066535D01*
X0085220Y0065746D01*
X0078868Y0065746D01*
X0078216Y0066398D01*
X0076402Y0066398D01*
X0075676Y0065672D02*
X0065843Y0065672D01*
X0065843Y0065073D02*
X0075120Y0065073D01*
X0075120Y0064475D02*
X0065843Y0064475D01*
X0065843Y0063876D02*
X0075120Y0063876D01*
X0075145Y0063278D02*
X0065843Y0063278D01*
X0065843Y0062679D02*
X0075743Y0062679D01*
X0076342Y0062081D02*
X0065843Y0062081D01*
X0065843Y0061482D02*
X0107143Y0061482D01*
X0107143Y0060884D02*
X0065843Y0060884D01*
X0065843Y0060285D02*
X0107143Y0060285D01*
X0107143Y0059687D02*
X0065843Y0059687D01*
X0065843Y0059088D02*
X0107143Y0059088D01*
X0107143Y0058490D02*
X0065843Y0058490D01*
X0066130Y0057891D02*
X0107143Y0057891D01*
X0107143Y0057293D02*
X0066632Y0057293D01*
X0066632Y0056694D02*
X0107143Y0056694D01*
X0107143Y0056096D02*
X0066632Y0056096D01*
X0066553Y0055497D02*
X0107143Y0055497D01*
X0107143Y0054899D02*
X0065954Y0054899D01*
X0065843Y0054300D02*
X0107143Y0054300D01*
X0107143Y0053702D02*
X0065843Y0053702D01*
X0065843Y0053103D02*
X0107143Y0053103D01*
X0107143Y0052505D02*
X0065843Y0052505D01*
X0065843Y0051906D02*
X0107143Y0051906D01*
X0107143Y0051308D02*
X0065843Y0051308D01*
X0065843Y0050709D02*
X0107105Y0050709D01*
X0106506Y0050111D02*
X0065843Y0050111D01*
X0065843Y0049512D02*
X0105908Y0049512D01*
X0105309Y0048914D02*
X0065843Y0048914D01*
X0065843Y0048315D02*
X0104710Y0048315D01*
X0104112Y0047717D02*
X0065843Y0047717D01*
X0065843Y0047118D02*
X0103513Y0047118D01*
X0102915Y0046520D02*
X0065843Y0046520D01*
X0065843Y0045921D02*
X0102316Y0045921D01*
X0101718Y0045322D02*
X0065843Y0045322D01*
X0066283Y0044724D02*
X0100004Y0044724D01*
X0099405Y0044125D02*
X0066632Y0044125D01*
X0066632Y0043527D02*
X0098890Y0043527D01*
X0098890Y0042928D02*
X0066632Y0042928D01*
X0066399Y0042330D02*
X0098890Y0042330D01*
X0098955Y0041731D02*
X0065801Y0041731D01*
X0063365Y0041133D02*
X0099554Y0041133D01*
X0105079Y0044724D02*
X0109532Y0044724D01*
X0109532Y0045322D02*
X0105678Y0045322D01*
X0106276Y0045921D02*
X0109532Y0045921D01*
X0109532Y0046520D02*
X0106875Y0046520D01*
X0107473Y0047118D02*
X0109532Y0047118D01*
X0109532Y0047717D02*
X0108072Y0047717D01*
X0108670Y0048315D02*
X0109532Y0048315D01*
X0109532Y0048914D02*
X0109269Y0048914D01*
X0119852Y0047717D02*
X0138155Y0047717D01*
X0138753Y0048315D02*
X0120450Y0048315D01*
X0120795Y0048914D02*
X0139352Y0048914D01*
X0139950Y0049512D02*
X0121043Y0049512D01*
X0121202Y0050111D02*
X0140549Y0050111D01*
X0140717Y0050709D02*
X0121202Y0050709D01*
X0121202Y0051308D02*
X0140717Y0051308D01*
X0140717Y0051906D02*
X0121004Y0051906D01*
X0120756Y0052505D02*
X0140717Y0052505D01*
X0140717Y0053103D02*
X0120357Y0053103D01*
X0119759Y0053702D02*
X0140717Y0053702D01*
X0140717Y0054300D02*
X0118635Y0054300D01*
X0119282Y0057293D02*
X0140717Y0057293D01*
X0140717Y0057891D02*
X0120027Y0057891D01*
X0120619Y0058490D02*
X0140717Y0058490D01*
X0140717Y0059088D02*
X0120867Y0059088D01*
X0121115Y0059687D02*
X0140717Y0059687D01*
X0140717Y0060285D02*
X0121202Y0060285D01*
X0121202Y0060884D02*
X0140717Y0060884D01*
X0140717Y0061482D02*
X0121180Y0061482D01*
X0120932Y0062081D02*
X0140717Y0062081D01*
X0140717Y0062679D02*
X0120684Y0062679D01*
X0120182Y0063278D02*
X0140717Y0063278D01*
X0140717Y0063876D02*
X0119584Y0063876D01*
X0118213Y0064475D02*
X0140717Y0064475D01*
X0140717Y0074650D02*
X0112332Y0074650D01*
X0112332Y0075248D02*
X0140717Y0075248D01*
X0140717Y0075847D02*
X0112332Y0075847D01*
X0112332Y0076445D02*
X0140717Y0076445D01*
X0120787Y0082430D02*
X0160802Y0082430D01*
X0160802Y0083029D02*
X0120432Y0083029D01*
X0119833Y0083627D02*
X0160802Y0083627D01*
X0160802Y0084226D02*
X0118814Y0084226D01*
X0115884Y0084226D02*
X0111865Y0084226D01*
X0112463Y0083627D02*
X0114865Y0083627D01*
X0114267Y0083029D02*
X0113062Y0083029D01*
X0113121Y0082430D02*
X0113911Y0082430D01*
X0113663Y0081832D02*
X0113121Y0081832D01*
X0113121Y0081233D02*
X0113496Y0081233D01*
X0113496Y0080635D02*
X0112599Y0080635D01*
X0112332Y0080036D02*
X0113496Y0080036D01*
X0113686Y0079438D02*
X0112332Y0079438D01*
X0112332Y0078839D02*
X0113934Y0078839D01*
X0114322Y0078241D02*
X0112332Y0078241D01*
X0112332Y0077642D02*
X0114921Y0077642D01*
X0116018Y0077044D02*
X0112332Y0077044D01*
X0112332Y0074051D02*
X0115462Y0074051D01*
X0114691Y0073453D02*
X0112332Y0073453D01*
X0112332Y0072854D02*
X0114092Y0072854D01*
X0113839Y0072255D02*
X0112332Y0072255D01*
X0112332Y0071657D02*
X0113591Y0071657D01*
X0113496Y0071058D02*
X0112332Y0071058D01*
X0112332Y0070460D02*
X0113496Y0070460D01*
X0113511Y0069861D02*
X0112332Y0069861D01*
X0112332Y0069263D02*
X0113759Y0069263D01*
X0114007Y0068664D02*
X0112332Y0068664D01*
X0112332Y0068066D02*
X0114497Y0068066D01*
X0115096Y0067467D02*
X0112332Y0067467D01*
X0112332Y0066869D02*
X0116440Y0066869D01*
X0107143Y0066270D02*
X0088088Y0066270D01*
X0088686Y0065672D02*
X0107143Y0065672D01*
X0107143Y0065073D02*
X0089105Y0065073D01*
X0089105Y0064475D02*
X0107143Y0064475D01*
X0107143Y0063876D02*
X0089105Y0063876D01*
X0088943Y0063278D02*
X0107143Y0063278D01*
X0107143Y0062679D02*
X0088344Y0062679D01*
X0085487Y0062679D02*
X0078875Y0062679D01*
X0078276Y0062081D02*
X0107143Y0062081D01*
X0107143Y0071657D02*
X0072525Y0071657D01*
X0073123Y0072255D02*
X0107143Y0072255D01*
X0107143Y0072854D02*
X0073722Y0072854D01*
X0073740Y0073453D02*
X0107143Y0073453D01*
X0107143Y0074051D02*
X0073803Y0074051D01*
X0074402Y0074650D02*
X0107143Y0074650D01*
X0107143Y0075248D02*
X0075000Y0075248D01*
X0075599Y0075847D02*
X0107143Y0075847D01*
X0107143Y0076445D02*
X0076197Y0076445D01*
X0076796Y0077044D02*
X0107143Y0077044D01*
X0107143Y0077642D02*
X0077394Y0077642D01*
X0077993Y0078241D02*
X0107143Y0078241D01*
X0107143Y0078839D02*
X0078591Y0078839D01*
X0079190Y0079438D02*
X0107143Y0079438D01*
X0107143Y0080036D02*
X0079788Y0080036D01*
X0080387Y0080635D02*
X0107143Y0080635D01*
X0107143Y0081233D02*
X0095460Y0081233D01*
X0096059Y0081832D02*
X0107143Y0081832D01*
X0107143Y0082430D02*
X0096526Y0082430D01*
X0096526Y0083029D02*
X0107143Y0083029D01*
X0107143Y0083627D02*
X0096526Y0083627D01*
X0096412Y0084226D02*
X0107143Y0084226D01*
X0107143Y0084824D02*
X0095813Y0084824D01*
X0092860Y0084824D02*
X0063109Y0084824D01*
X0063109Y0084226D02*
X0080018Y0084226D01*
X0079420Y0083627D02*
X0063109Y0083627D01*
X0063109Y0083029D02*
X0078821Y0083029D01*
X0078222Y0082430D02*
X0063109Y0082430D01*
X0063109Y0081832D02*
X0077624Y0081832D01*
X0077025Y0081233D02*
X0063109Y0081233D01*
X0063109Y0080635D02*
X0076427Y0080635D01*
X0075828Y0080036D02*
X0063109Y0080036D01*
X0063109Y0079438D02*
X0075230Y0079438D01*
X0074631Y0078839D02*
X0063109Y0078839D01*
X0066669Y0078241D02*
X0074033Y0078241D01*
X0073434Y0077642D02*
X0067267Y0077642D01*
X0067835Y0077044D02*
X0072836Y0077044D01*
X0072237Y0076445D02*
X0067835Y0076445D01*
X0067835Y0075847D02*
X0070523Y0075847D01*
X0069925Y0075248D02*
X0067821Y0075248D01*
X0067223Y0074650D02*
X0069362Y0074650D01*
X0069362Y0074051D02*
X0066624Y0074051D01*
X0055918Y0077044D02*
X0028278Y0077044D01*
X0028465Y0077642D02*
X0054821Y0077642D01*
X0054222Y0078241D02*
X0028465Y0078241D01*
X0028465Y0078839D02*
X0053834Y0078839D01*
X0053586Y0079438D02*
X0028070Y0079438D01*
X0027472Y0080036D02*
X0053396Y0080036D01*
X0053396Y0080635D02*
X0013796Y0080635D01*
X0013796Y0081233D02*
X0053396Y0081233D01*
X0053563Y0081832D02*
X0013796Y0081832D01*
X0013796Y0082430D02*
X0053811Y0082430D01*
X0054167Y0083029D02*
X0013796Y0083029D01*
X0013796Y0083627D02*
X0054765Y0083627D01*
X0055784Y0084226D02*
X0013796Y0084226D01*
X0013796Y0084824D02*
X0060309Y0084824D01*
X0060309Y0084226D02*
X0058714Y0084226D01*
X0059733Y0083627D02*
X0060309Y0083627D01*
X0060309Y0085423D02*
X0013796Y0085423D01*
X0013796Y0086021D02*
X0060309Y0086021D01*
X0060309Y0086620D02*
X0013796Y0086620D01*
X0013796Y0087218D02*
X0055496Y0087218D01*
X0054646Y0087817D02*
X0013796Y0087817D01*
X0013796Y0088415D02*
X0054048Y0088415D01*
X0053762Y0089014D02*
X0013796Y0089014D01*
X0013796Y0089612D02*
X0053514Y0089612D01*
X0053396Y0090211D02*
X0013796Y0090211D01*
X0013796Y0090809D02*
X0053396Y0090809D01*
X0053396Y0091408D02*
X0013796Y0091408D01*
X0013796Y0092006D02*
X0053636Y0092006D01*
X0053884Y0092605D02*
X0013796Y0092605D01*
X0013796Y0093203D02*
X0054342Y0093203D01*
X0054940Y0093802D02*
X0013796Y0093802D01*
X0013796Y0094400D02*
X0056206Y0094400D01*
X0058293Y0094400D02*
X0059509Y0094400D01*
X0059706Y0094999D02*
X0013796Y0094999D01*
X0013796Y0095597D02*
X0060305Y0095597D01*
X0059432Y0097396D02*
X0058016Y0096810D01*
X0056483Y0096810D01*
X0055067Y0097396D01*
X0053983Y0098480D01*
X0053396Y0099896D01*
X0053396Y0101429D01*
X0053983Y0102845D01*
X0055067Y0103929D01*
X0056483Y0104515D01*
X0058016Y0104515D01*
X0059432Y0103929D01*
X0060515Y0102845D01*
X0061102Y0101429D01*
X0061102Y0099896D01*
X0060515Y0098480D01*
X0059432Y0097396D01*
X0059424Y0097393D02*
X0115175Y0097393D01*
X0115167Y0097396D02*
X0116583Y0096810D01*
X0118116Y0096810D01*
X0119532Y0097396D01*
X0120615Y0098480D01*
X0121202Y0099896D01*
X0121202Y0101429D01*
X0120615Y0102845D01*
X0119532Y0103929D01*
X0118116Y0104515D01*
X0116583Y0104515D01*
X0115167Y0103929D01*
X0114083Y0102845D01*
X0113496Y0101429D01*
X0113496Y0099896D01*
X0114083Y0098480D01*
X0115167Y0097396D01*
X0114572Y0097991D02*
X0060027Y0097991D01*
X0060561Y0098590D02*
X0114037Y0098590D01*
X0113790Y0099189D02*
X0060809Y0099189D01*
X0061057Y0099787D02*
X0113542Y0099787D01*
X0113496Y0100386D02*
X0061102Y0100386D01*
X0061102Y0100984D02*
X0113496Y0100984D01*
X0113560Y0101583D02*
X0061038Y0101583D01*
X0060790Y0102181D02*
X0113808Y0102181D01*
X0114056Y0102780D02*
X0060542Y0102780D01*
X0059982Y0103378D02*
X0114616Y0103378D01*
X0115283Y0103977D02*
X0059316Y0103977D01*
X0055183Y0103977D02*
X0013796Y0103977D01*
X0013796Y0104575D02*
X0160802Y0104575D01*
X0160802Y0103977D02*
X0119416Y0103977D01*
X0120082Y0103378D02*
X0160802Y0103378D01*
X0160802Y0102780D02*
X0120642Y0102780D01*
X0120890Y0102181D02*
X0160802Y0102181D01*
X0160802Y0101583D02*
X0121138Y0101583D01*
X0121202Y0100984D02*
X0160802Y0100984D01*
X0160802Y0100386D02*
X0121202Y0100386D01*
X0121157Y0099787D02*
X0160802Y0099787D01*
X0160802Y0099189D02*
X0120909Y0099189D01*
X0120661Y0098590D02*
X0160802Y0098590D01*
X0160802Y0097991D02*
X0120127Y0097991D01*
X0119524Y0097393D02*
X0160802Y0097393D01*
X0160802Y0096794D02*
X0013796Y0096794D01*
X0013796Y0096196D02*
X0160802Y0096196D01*
X0160802Y0095597D02*
X0063091Y0095597D01*
X0063690Y0094999D02*
X0160802Y0094999D01*
X0160802Y0094400D02*
X0118393Y0094400D01*
X0118116Y0094515D02*
X0116583Y0094515D01*
X0115167Y0093929D01*
X0114083Y0092845D01*
X0113496Y0091429D01*
X0113496Y0089896D01*
X0114083Y0088480D01*
X0115167Y0087396D01*
X0116583Y0086810D01*
X0118116Y0086810D01*
X0119532Y0087396D01*
X0120615Y0088480D01*
X0121202Y0089896D01*
X0121202Y0091429D01*
X0120615Y0092845D01*
X0119532Y0093929D01*
X0118116Y0094515D01*
X0119658Y0093802D02*
X0160802Y0093802D01*
X0160802Y0093203D02*
X0120257Y0093203D01*
X0120715Y0092605D02*
X0160802Y0092605D01*
X0160802Y0092006D02*
X0120963Y0092006D01*
X0121202Y0091408D02*
X0160802Y0091408D01*
X0160802Y0090809D02*
X0121202Y0090809D01*
X0121202Y0090211D02*
X0160802Y0090211D01*
X0160802Y0089612D02*
X0121084Y0089612D01*
X0120837Y0089014D02*
X0160802Y0089014D01*
X0160802Y0088415D02*
X0120551Y0088415D01*
X0119952Y0087817D02*
X0160802Y0087817D01*
X0160802Y0087218D02*
X0119102Y0087218D01*
X0115596Y0087218D02*
X0109943Y0087218D01*
X0109943Y0086620D02*
X0160802Y0086620D01*
X0160802Y0086021D02*
X0109943Y0086021D01*
X0109943Y0085423D02*
X0160802Y0085423D01*
X0160802Y0084824D02*
X0109943Y0084824D01*
X0109943Y0084226D02*
X0109999Y0084226D01*
X0107143Y0085423D02*
X0063109Y0085423D01*
X0063109Y0086021D02*
X0107143Y0086021D01*
X0107143Y0086620D02*
X0063109Y0086620D01*
X0063109Y0087218D02*
X0107143Y0087218D01*
X0107143Y0087817D02*
X0063109Y0087817D01*
X0063109Y0088415D02*
X0107143Y0088415D01*
X0106791Y0089014D02*
X0063109Y0089014D01*
X0063109Y0089612D02*
X0106764Y0089612D01*
X0106764Y0090211D02*
X0063109Y0090211D01*
X0063109Y0090809D02*
X0106764Y0090809D01*
X0107317Y0091408D02*
X0063109Y0091408D01*
X0063109Y0092006D02*
X0107916Y0092006D01*
X0109990Y0092006D02*
X0113736Y0092006D01*
X0113496Y0091408D02*
X0110588Y0091408D01*
X0111142Y0090809D02*
X0113496Y0090809D01*
X0113496Y0090211D02*
X0111142Y0090211D01*
X0111142Y0089612D02*
X0113614Y0089612D01*
X0113862Y0089014D02*
X0111115Y0089014D01*
X0110516Y0088415D02*
X0114148Y0088415D01*
X0114746Y0087817D02*
X0109943Y0087817D01*
X0113984Y0092605D02*
X0063504Y0092605D01*
X0063887Y0093203D02*
X0114442Y0093203D01*
X0115040Y0093802D02*
X0063887Y0093802D01*
X0063887Y0094400D02*
X0116306Y0094400D01*
X0117015Y0106410D02*
X0116353Y0106514D01*
X0115717Y0106721D01*
X0115120Y0107025D01*
X0114579Y0107419D01*
X0114105Y0107892D01*
X0113712Y0108434D01*
X0113408Y0109030D01*
X0113201Y0109667D01*
X0113096Y0110328D01*
X0113096Y0110362D01*
X0117049Y0110362D01*
X0117649Y0110362D01*
X0117649Y0106410D01*
X0117684Y0106410D01*
X0118345Y0106514D01*
X0118982Y0106721D01*
X0119578Y0107025D01*
X0120120Y0107419D01*
X0120593Y0107892D01*
X0120986Y0108434D01*
X0121290Y0109030D01*
X0121497Y0109667D01*
X0121602Y0110328D01*
X0121602Y0110362D01*
X0117649Y0110362D01*
X0117649Y0110962D01*
X0121602Y0110962D01*
X0121602Y0110997D01*
X0121497Y0111658D01*
X0121290Y0112295D01*
X0120986Y0112891D01*
X0120593Y0113433D01*
X0120120Y0113906D01*
X0119578Y0114300D01*
X0118982Y0114604D01*
X0118345Y0114810D01*
X0117684Y0114915D01*
X0117649Y0114915D01*
X0117649Y0110963D01*
X0117049Y0110963D01*
X0117049Y0114915D01*
X0117015Y0114915D01*
X0116353Y0114810D01*
X0115717Y0114604D01*
X0115120Y0114300D01*
X0114579Y0113906D01*
X0114105Y0113433D01*
X0113712Y0112891D01*
X0113408Y0112295D01*
X0113201Y0111658D01*
X0113096Y0110997D01*
X0113096Y0110962D01*
X0117049Y0110962D01*
X0117049Y0110362D01*
X0117049Y0106410D01*
X0117015Y0106410D01*
X0117049Y0106969D02*
X0117649Y0106969D01*
X0117649Y0107568D02*
X0117049Y0107568D01*
X0117049Y0108166D02*
X0117649Y0108166D01*
X0117649Y0108765D02*
X0117049Y0108765D01*
X0117049Y0109363D02*
X0117649Y0109363D01*
X0117649Y0109962D02*
X0117049Y0109962D01*
X0117049Y0110560D02*
X0061102Y0110560D01*
X0061102Y0109962D02*
X0113154Y0109962D01*
X0113300Y0109363D02*
X0060881Y0109363D01*
X0061102Y0109896D02*
X0060515Y0108480D01*
X0059432Y0107396D01*
X0058016Y0106810D01*
X0056483Y0106810D01*
X0055067Y0107396D01*
X0053983Y0108480D01*
X0053396Y0109896D01*
X0053396Y0111429D01*
X0053983Y0112845D01*
X0055067Y0113929D01*
X0056483Y0114515D01*
X0058016Y0114515D01*
X0059432Y0113929D01*
X0060515Y0112845D01*
X0061102Y0111429D01*
X0061102Y0109896D01*
X0060633Y0108765D02*
X0113543Y0108765D01*
X0113906Y0108166D02*
X0060202Y0108166D01*
X0059603Y0107568D02*
X0114430Y0107568D01*
X0115230Y0106969D02*
X0058401Y0106969D01*
X0056098Y0106969D02*
X0013796Y0106969D01*
X0013796Y0106371D02*
X0160802Y0106371D01*
X0160802Y0106969D02*
X0119468Y0106969D01*
X0120269Y0107568D02*
X0160802Y0107568D01*
X0160802Y0108166D02*
X0120792Y0108166D01*
X0121155Y0108765D02*
X0160802Y0108765D01*
X0160802Y0109363D02*
X0121399Y0109363D01*
X0121544Y0109962D02*
X0160802Y0109962D01*
X0160802Y0110560D02*
X0117649Y0110560D01*
X0117649Y0111159D02*
X0117049Y0111159D01*
X0117049Y0111757D02*
X0117649Y0111757D01*
X0117649Y0112356D02*
X0117049Y0112356D01*
X0117049Y0112954D02*
X0117649Y0112954D01*
X0117649Y0113553D02*
X0117049Y0113553D01*
X0117049Y0114151D02*
X0117649Y0114151D01*
X0117649Y0114750D02*
X0117049Y0114750D01*
X0116167Y0114750D02*
X0013796Y0114750D01*
X0013796Y0115348D02*
X0023153Y0115348D01*
X0021225Y0115947D02*
X0013796Y0115947D01*
X0013796Y0116545D02*
X0020188Y0116545D01*
X0019152Y0117144D02*
X0013796Y0117144D01*
X0013796Y0117742D02*
X0018346Y0117742D01*
X0017748Y0118341D02*
X0013796Y0118341D01*
X0013796Y0118939D02*
X0017149Y0118939D01*
X0016551Y0119538D02*
X0013796Y0119538D01*
X0013796Y0120136D02*
X0016122Y0120136D01*
X0015776Y0120735D02*
X0013796Y0120735D01*
X0013796Y0121333D02*
X0015430Y0121333D01*
X0015085Y0121932D02*
X0013796Y0121932D01*
X0013796Y0122530D02*
X0014739Y0122530D01*
X0014569Y0123129D02*
X0013796Y0123129D01*
X0013796Y0123727D02*
X0014409Y0123727D01*
X0014248Y0124326D02*
X0013796Y0124326D01*
X0013796Y0124924D02*
X0014088Y0124924D01*
X0013927Y0125523D02*
X0013796Y0125523D01*
X0013796Y0126122D02*
X0013876Y0126122D01*
X0013876Y0126720D02*
X0013796Y0126720D01*
X0013802Y0127319D02*
X0013876Y0127319D01*
X0013876Y0127917D02*
X0013841Y0127917D01*
X0032469Y0138092D02*
X0045661Y0138092D01*
X0045661Y0138690D02*
X0031432Y0138690D01*
X0029626Y0139289D02*
X0045661Y0139289D01*
X0045661Y0137493D02*
X0033505Y0137493D01*
X0034266Y0136895D02*
X0045661Y0136895D01*
X0045661Y0136296D02*
X0034865Y0136296D01*
X0035463Y0135698D02*
X0045661Y0135698D01*
X0045661Y0135099D02*
X0036062Y0135099D01*
X0036465Y0134501D02*
X0045661Y0134501D01*
X0045661Y0133902D02*
X0036810Y0133902D01*
X0037156Y0133304D02*
X0045661Y0133304D01*
X0045661Y0132705D02*
X0037502Y0132705D01*
X0037838Y0132107D02*
X0045661Y0132107D01*
X0045661Y0131508D02*
X0037999Y0131508D01*
X0038159Y0130910D02*
X0045661Y0130910D01*
X0045661Y0130311D02*
X0038319Y0130311D01*
X0038480Y0129713D02*
X0045661Y0129713D01*
X0045661Y0129114D02*
X0038640Y0129114D01*
X0038676Y0128516D02*
X0045661Y0128516D01*
X0045661Y0127917D02*
X0038676Y0127917D01*
X0038676Y0127319D02*
X0045661Y0127319D01*
X0045661Y0126720D02*
X0038676Y0126720D01*
X0038676Y0126122D02*
X0045661Y0126122D01*
X0045661Y0125523D02*
X0038624Y0125523D01*
X0038463Y0124924D02*
X0045661Y0124924D01*
X0045661Y0124326D02*
X0038303Y0124326D01*
X0038143Y0123727D02*
X0045661Y0123727D01*
X0045661Y0123129D02*
X0037982Y0123129D01*
X0037812Y0122530D02*
X0045661Y0122530D01*
X0045661Y0121932D02*
X0037466Y0121932D01*
X0037121Y0121333D02*
X0045661Y0121333D01*
X0045661Y0120735D02*
X0036775Y0120735D01*
X0036430Y0120136D02*
X0045661Y0120136D01*
X0045661Y0119538D02*
X0036001Y0119538D01*
X0035402Y0118939D02*
X0045661Y0118939D01*
X0045661Y0118341D02*
X0034804Y0118341D01*
X0034205Y0117742D02*
X0045661Y0117742D01*
X0045661Y0117144D02*
X0033400Y0117144D01*
X0032363Y0116545D02*
X0045661Y0116545D01*
X0045661Y0115947D02*
X0031326Y0115947D01*
X0029398Y0115348D02*
X0045726Y0115348D01*
X0053780Y0112356D02*
X0013796Y0112356D01*
X0013796Y0112954D02*
X0054092Y0112954D01*
X0054691Y0113553D02*
X0013796Y0113553D01*
X0013796Y0114151D02*
X0055604Y0114151D01*
X0058894Y0114151D02*
X0114916Y0114151D01*
X0114225Y0113553D02*
X0059808Y0113553D01*
X0060406Y0112954D02*
X0113758Y0112954D01*
X0113439Y0112356D02*
X0060718Y0112356D01*
X0060966Y0111757D02*
X0113233Y0111757D01*
X0113122Y0111159D02*
X0061102Y0111159D01*
X0054895Y0107568D02*
X0013796Y0107568D01*
X0013796Y0108166D02*
X0054297Y0108166D01*
X0053865Y0108765D02*
X0013796Y0108765D01*
X0013796Y0109363D02*
X0053617Y0109363D01*
X0053396Y0109962D02*
X0013796Y0109962D01*
X0013796Y0110560D02*
X0053396Y0110560D01*
X0053396Y0111159D02*
X0013796Y0111159D01*
X0013796Y0111757D02*
X0053532Y0111757D01*
X0054516Y0103378D02*
X0013796Y0103378D01*
X0013796Y0102780D02*
X0053956Y0102780D01*
X0053708Y0102181D02*
X0013796Y0102181D01*
X0013796Y0101583D02*
X0053460Y0101583D01*
X0053396Y0100984D02*
X0013796Y0100984D01*
X0013796Y0100386D02*
X0053396Y0100386D01*
X0053442Y0099787D02*
X0013796Y0099787D01*
X0013796Y0099189D02*
X0053690Y0099189D01*
X0053937Y0098590D02*
X0013796Y0098590D01*
X0013796Y0097991D02*
X0054472Y0097991D01*
X0055075Y0097393D02*
X0013796Y0097393D01*
X0013796Y0105174D02*
X0160802Y0105174D01*
X0160802Y0105772D02*
X0013796Y0105772D01*
X0059002Y0087218D02*
X0060309Y0087218D01*
X0060309Y0087817D02*
X0059852Y0087817D01*
X0080985Y0081233D02*
X0093213Y0081233D01*
X0085744Y0066270D02*
X0078344Y0066270D01*
X0060309Y0057891D02*
X0059927Y0057891D01*
X0060309Y0057293D02*
X0059182Y0057293D01*
X0058535Y0054300D02*
X0060309Y0054300D01*
X0060309Y0053702D02*
X0059659Y0053702D01*
X0060257Y0053103D02*
X0060309Y0053103D01*
X0039416Y0039936D02*
X0013796Y0039936D01*
X0013796Y0040534D02*
X0038817Y0040534D01*
X0038219Y0041133D02*
X0013796Y0041133D01*
X0013796Y0041731D02*
X0037620Y0041731D01*
X0037022Y0042330D02*
X0013796Y0042330D01*
X0013796Y0042928D02*
X0036423Y0042928D01*
X0035825Y0043527D02*
X0013796Y0043527D01*
X0013796Y0044125D02*
X0035226Y0044125D01*
X0034628Y0044724D02*
X0013796Y0044724D01*
X0013796Y0045322D02*
X0034029Y0045322D01*
X0033431Y0045921D02*
X0013796Y0045921D01*
X0013796Y0046520D02*
X0032832Y0046520D01*
X0032234Y0047118D02*
X0013796Y0047118D01*
X0013796Y0047717D02*
X0031635Y0047717D01*
X0031037Y0048315D02*
X0013796Y0048315D01*
X0013796Y0048914D02*
X0030438Y0048914D01*
X0029840Y0049512D02*
X0013796Y0049512D01*
X0013796Y0050111D02*
X0029241Y0050111D01*
X0028643Y0050709D02*
X0013796Y0050709D01*
X0013796Y0051308D02*
X0028044Y0051308D01*
X0027446Y0051906D02*
X0013796Y0051906D01*
X0013796Y0052505D02*
X0026847Y0052505D01*
X0026249Y0053103D02*
X0013796Y0053103D01*
X0013796Y0053702D02*
X0025650Y0053702D01*
X0025052Y0054300D02*
X0013796Y0054300D01*
X0013796Y0054899D02*
X0024576Y0054899D01*
X0024576Y0055497D02*
X0013796Y0055497D01*
X0013796Y0056096D02*
X0024576Y0056096D01*
X0024576Y0056694D02*
X0013796Y0056694D01*
X0013796Y0057293D02*
X0024576Y0057293D01*
X0024576Y0057891D02*
X0013796Y0057891D01*
X0013796Y0058490D02*
X0024576Y0058490D01*
X0024576Y0059088D02*
X0013796Y0059088D01*
X0013796Y0059687D02*
X0024576Y0059687D01*
X0024576Y0060285D02*
X0013796Y0060285D01*
X0013796Y0060884D02*
X0024576Y0060884D01*
X0024576Y0061482D02*
X0013796Y0061482D01*
X0013796Y0062081D02*
X0024576Y0062081D01*
X0024576Y0062679D02*
X0013796Y0062679D01*
X0013796Y0063278D02*
X0024576Y0063278D01*
X0024576Y0063876D02*
X0013796Y0063876D01*
X0013796Y0064475D02*
X0024576Y0064475D01*
X0024576Y0065073D02*
X0013796Y0065073D01*
X0013796Y0065672D02*
X0024576Y0065672D01*
X0024576Y0066270D02*
X0013796Y0066270D01*
X0013796Y0066869D02*
X0024576Y0066869D01*
X0024576Y0067467D02*
X0013796Y0067467D01*
X0013796Y0068066D02*
X0024576Y0068066D01*
X0024576Y0068664D02*
X0013796Y0068664D01*
X0013796Y0069263D02*
X0024576Y0069263D01*
X0024576Y0069861D02*
X0013796Y0069861D01*
X0013796Y0070460D02*
X0024576Y0070460D01*
X0024576Y0071058D02*
X0013796Y0071058D01*
X0013796Y0071657D02*
X0024576Y0071657D01*
X0024576Y0072255D02*
X0013796Y0072255D01*
X0013796Y0072854D02*
X0024576Y0072854D01*
X0024576Y0073453D02*
X0013796Y0073453D01*
X0013796Y0074051D02*
X0024576Y0074051D01*
X0024576Y0074650D02*
X0013796Y0074650D01*
X0013796Y0075248D02*
X0024576Y0075248D01*
X0024576Y0075847D02*
X0013796Y0075847D01*
X0013796Y0076445D02*
X0024576Y0076445D01*
X0024273Y0077044D02*
X0013796Y0077044D01*
X0013796Y0077642D02*
X0024087Y0077642D01*
X0024087Y0078241D02*
X0013796Y0078241D01*
X0013796Y0078839D02*
X0024087Y0078839D01*
X0024481Y0079438D02*
X0013796Y0079438D01*
X0013796Y0080036D02*
X0025080Y0080036D01*
X0013796Y0039337D02*
X0040014Y0039337D01*
X0040613Y0038739D02*
X0013796Y0038739D01*
X0013796Y0038140D02*
X0041211Y0038140D01*
X0041810Y0037542D02*
X0013796Y0037542D01*
X0013796Y0036943D02*
X0022988Y0036943D01*
X0021148Y0036345D02*
X0013796Y0036345D01*
X0013796Y0035746D02*
X0020112Y0035746D01*
X0019075Y0035148D02*
X0013796Y0035148D01*
X0013796Y0034549D02*
X0018302Y0034549D01*
X0017703Y0033951D02*
X0013796Y0033951D01*
X0013796Y0033352D02*
X0017105Y0033352D01*
X0016506Y0032754D02*
X0013796Y0032754D01*
X0013796Y0032155D02*
X0016096Y0032155D01*
X0015750Y0031557D02*
X0013796Y0031557D01*
X0013796Y0030958D02*
X0015405Y0030958D01*
X0015059Y0030360D02*
X0013796Y0030360D01*
X0013796Y0029761D02*
X0014717Y0029761D01*
X0014557Y0029163D02*
X0013796Y0029163D01*
X0013796Y0028564D02*
X0014397Y0028564D01*
X0014236Y0027966D02*
X0013796Y0027966D01*
X0013796Y0027367D02*
X0014076Y0027367D01*
X0013916Y0026769D02*
X0013796Y0026769D01*
X0013796Y0026170D02*
X0013876Y0026170D01*
X0013876Y0025572D02*
X0013796Y0025572D01*
X0013797Y0024973D02*
X0013876Y0024973D01*
X0013876Y0024375D02*
X0013836Y0024375D01*
X0013875Y0023776D02*
X0013876Y0023776D01*
X0034249Y0034549D02*
X0044802Y0034549D01*
X0044204Y0035148D02*
X0033476Y0035148D01*
X0032440Y0035746D02*
X0043605Y0035746D01*
X0043007Y0036345D02*
X0031403Y0036345D01*
X0029563Y0036943D02*
X0042408Y0036943D01*
X0045401Y0033951D02*
X0034848Y0033951D01*
X0035446Y0033352D02*
X0046000Y0033352D01*
X0046598Y0032754D02*
X0036045Y0032754D01*
X0036455Y0032155D02*
X0047197Y0032155D01*
X0047795Y0031557D02*
X0036801Y0031557D01*
X0037146Y0030958D02*
X0048394Y0030958D01*
X0048992Y0030360D02*
X0037492Y0030360D01*
X0037834Y0029761D02*
X0049591Y0029761D01*
X0050189Y0029163D02*
X0037994Y0029163D01*
X0038154Y0028564D02*
X0050788Y0028564D01*
X0051386Y0027966D02*
X0038315Y0027966D01*
X0038475Y0027367D02*
X0051985Y0027367D01*
X0052583Y0026769D02*
X0038636Y0026769D01*
X0038676Y0026170D02*
X0053182Y0026170D01*
X0053780Y0025572D02*
X0038676Y0025572D01*
X0038676Y0024973D02*
X0054379Y0024973D01*
X0055067Y0023929D02*
X0053983Y0022845D01*
X0053396Y0021429D01*
X0053396Y0019896D01*
X0053983Y0018480D01*
X0055067Y0017396D01*
X0056483Y0016810D01*
X0058016Y0016810D01*
X0059432Y0017396D01*
X0060515Y0018480D01*
X0061102Y0019896D01*
X0061102Y0021429D01*
X0060515Y0022845D01*
X0059432Y0023929D01*
X0058016Y0024515D01*
X0056483Y0024515D01*
X0055067Y0023929D01*
X0054914Y0023776D02*
X0038676Y0023776D01*
X0038676Y0024375D02*
X0056143Y0024375D01*
X0054316Y0023178D02*
X0038628Y0023178D01*
X0038468Y0022579D02*
X0053873Y0022579D01*
X0053625Y0021981D02*
X0038307Y0021981D01*
X0038147Y0021382D02*
X0053396Y0021382D01*
X0053396Y0020784D02*
X0037987Y0020784D01*
X0037822Y0020185D02*
X0053396Y0020185D01*
X0053525Y0019587D02*
X0037476Y0019587D01*
X0037130Y0018988D02*
X0053773Y0018988D01*
X0054074Y0018389D02*
X0036785Y0018389D01*
X0036439Y0017791D02*
X0054672Y0017791D01*
X0055559Y0017192D02*
X0036017Y0017192D01*
X0058940Y0017192D02*
X0115659Y0017192D01*
X0114772Y0017791D02*
X0059826Y0017791D01*
X0060425Y0018389D02*
X0114174Y0018389D01*
X0113873Y0018988D02*
X0060726Y0018988D01*
X0060974Y0019587D02*
X0113625Y0019587D01*
X0113496Y0020185D02*
X0061102Y0020185D01*
X0061102Y0020784D02*
X0113496Y0020784D01*
X0113496Y0021382D02*
X0061102Y0021382D01*
X0060873Y0021981D02*
X0113725Y0021981D01*
X0113973Y0022579D02*
X0060626Y0022579D01*
X0060183Y0023178D02*
X0114416Y0023178D01*
X0115014Y0023776D02*
X0059584Y0023776D01*
X0058355Y0024375D02*
X0116243Y0024375D01*
X0114048Y0028564D02*
X0102873Y0028564D01*
X0102274Y0029163D02*
X0113800Y0029163D01*
X0113552Y0029761D02*
X0101927Y0029761D01*
X0102526Y0030360D02*
X0113496Y0030360D01*
X0113496Y0030958D02*
X0103124Y0030958D01*
X0103723Y0031557D02*
X0113549Y0031557D01*
X0113797Y0032155D02*
X0104321Y0032155D01*
X0104920Y0032754D02*
X0114045Y0032754D01*
X0114590Y0033352D02*
X0105519Y0033352D01*
X0106117Y0033951D02*
X0115220Y0033951D01*
X0119478Y0033951D02*
X0124389Y0033951D01*
X0124988Y0034549D02*
X0106716Y0034549D01*
X0107314Y0035148D02*
X0125586Y0035148D01*
X0126185Y0035746D02*
X0107913Y0035746D01*
X0108511Y0036345D02*
X0126783Y0036345D01*
X0123791Y0033352D02*
X0120108Y0033352D01*
X0120653Y0032754D02*
X0123192Y0032754D01*
X0122594Y0032155D02*
X0120901Y0032155D01*
X0121149Y0031557D02*
X0121995Y0031557D01*
X0121397Y0030958D02*
X0121202Y0030958D01*
X0071331Y0028564D02*
X0060953Y0028564D01*
X0053085Y0031557D02*
X0052603Y0031557D01*
X0052005Y0032155D02*
X0053263Y0032155D01*
X0053542Y0032754D02*
X0051406Y0032754D01*
X0050808Y0033352D02*
X0053947Y0033352D01*
X0054540Y0033951D02*
X0050209Y0033951D01*
X0049611Y0034549D02*
X0055510Y0034549D01*
X0058338Y0036943D02*
X0063595Y0036943D01*
X0062997Y0037542D02*
X0059577Y0037542D01*
X0060176Y0038140D02*
X0062398Y0038140D01*
X0061800Y0038739D02*
X0060623Y0038739D01*
X0060871Y0039337D02*
X0061201Y0039337D01*
X0121576Y0111159D02*
X0160802Y0111159D01*
X0160802Y0111757D02*
X0121465Y0111757D01*
X0121259Y0112356D02*
X0160802Y0112356D01*
X0160802Y0112954D02*
X0120941Y0112954D01*
X0120473Y0113553D02*
X0160802Y0113553D01*
X0160802Y0114151D02*
X0119782Y0114151D01*
X0118532Y0114750D02*
X0160802Y0114750D01*
X0160802Y0115348D02*
X0151445Y0115348D01*
X0153374Y0115947D02*
X0160802Y0115947D01*
X0160802Y0116545D02*
X0154410Y0116545D01*
X0155447Y0117144D02*
X0160802Y0117144D01*
X0160802Y0117742D02*
X0156252Y0117742D01*
X0156851Y0118341D02*
X0160802Y0118341D01*
X0160802Y0118939D02*
X0157449Y0118939D01*
X0158048Y0119538D02*
X0160802Y0119538D01*
X0160802Y0120136D02*
X0158477Y0120136D01*
X0158822Y0120735D02*
X0160802Y0120735D01*
X0160802Y0121333D02*
X0159168Y0121333D01*
X0159514Y0121932D02*
X0160802Y0121932D01*
X0160802Y0122530D02*
X0159859Y0122530D01*
X0160029Y0123129D02*
X0160802Y0123129D01*
X0160802Y0123727D02*
X0160190Y0123727D01*
X0160350Y0124326D02*
X0160802Y0124326D01*
X0160802Y0124924D02*
X0160511Y0124924D01*
X0160671Y0125523D02*
X0160802Y0125523D01*
X0160802Y0126122D02*
X0160723Y0126122D01*
X0160723Y0126720D02*
X0160802Y0126720D01*
X0160782Y0127319D02*
X0160723Y0127319D01*
X0143272Y0115947D02*
X0128938Y0115947D01*
X0128938Y0116545D02*
X0142235Y0116545D01*
X0141199Y0117144D02*
X0128938Y0117144D01*
X0128938Y0117742D02*
X0140393Y0117742D01*
X0139795Y0118341D02*
X0128938Y0118341D01*
X0128938Y0118939D02*
X0139196Y0118939D01*
X0138598Y0119538D02*
X0128938Y0119538D01*
X0128938Y0120136D02*
X0138169Y0120136D01*
X0137823Y0120735D02*
X0128938Y0120735D01*
X0128938Y0121333D02*
X0137478Y0121333D01*
X0137132Y0121932D02*
X0128938Y0121932D01*
X0128938Y0122530D02*
X0136787Y0122530D01*
X0136616Y0123129D02*
X0128938Y0123129D01*
X0128938Y0123727D02*
X0136456Y0123727D01*
X0136295Y0124326D02*
X0128938Y0124326D01*
X0128938Y0124924D02*
X0136135Y0124924D01*
X0135975Y0125523D02*
X0128938Y0125523D01*
X0128938Y0126122D02*
X0135923Y0126122D01*
X0135923Y0126720D02*
X0128938Y0126720D01*
X0128938Y0127319D02*
X0135923Y0127319D01*
X0135923Y0127917D02*
X0128938Y0127917D01*
X0128938Y0128516D02*
X0135923Y0128516D01*
X0135958Y0129114D02*
X0128938Y0129114D01*
X0128938Y0129713D02*
X0136119Y0129713D01*
X0136279Y0130311D02*
X0128938Y0130311D01*
X0128938Y0130910D02*
X0136439Y0130910D01*
X0136600Y0131508D02*
X0128938Y0131508D01*
X0128938Y0132107D02*
X0136760Y0132107D01*
X0137097Y0132705D02*
X0128938Y0132705D01*
X0128938Y0133304D02*
X0137442Y0133304D01*
X0137788Y0133902D02*
X0128938Y0133902D01*
X0128938Y0134501D02*
X0138134Y0134501D01*
X0138537Y0135099D02*
X0128938Y0135099D01*
X0128938Y0135698D02*
X0139135Y0135698D01*
X0139734Y0136296D02*
X0128938Y0136296D01*
X0128938Y0136895D02*
X0140332Y0136895D01*
X0141093Y0137493D02*
X0128938Y0137493D01*
X0128938Y0138092D02*
X0142130Y0138092D01*
X0143166Y0138690D02*
X0128938Y0138690D01*
X0128938Y0139289D02*
X0144973Y0139289D01*
X0145200Y0115348D02*
X0128872Y0115348D01*
D14*
X0133756Y0093491D03*
X0141630Y0087585D03*
X0142417Y0080105D03*
X0114071Y0065932D03*
X0108543Y0068273D03*
X0124701Y0056483D03*
X0110932Y0052966D03*
X0101079Y0042703D03*
X0092417Y0050184D03*
X0085331Y0036798D03*
X0073520Y0028999D03*
X0064443Y0043469D03*
X0064443Y0056483D03*
X0077309Y0064209D03*
X0086916Y0064346D03*
X0071551Y0073779D03*
X0065646Y0076168D03*
X0059947Y0066513D03*
X0047929Y0080105D03*
X0035331Y0087585D03*
X0025488Y0083648D03*
X0026276Y0078136D03*
X0061698Y0093895D03*
X0094337Y0083205D03*
X0108953Y0089948D03*
X0110932Y0082063D03*
X0101079Y0027262D03*
D15*
X0099185Y0028999D02*
X0110932Y0040745D01*
X0110932Y0052966D01*
X0110932Y0082063D01*
X0108543Y0089538D02*
X0108543Y0068273D01*
X0108543Y0050167D01*
X0101079Y0042703D01*
X0099185Y0028999D02*
X0073520Y0028999D01*
X0061709Y0040810D01*
X0061709Y0064751D01*
X0059947Y0066513D01*
X0061709Y0064751D02*
X0061709Y0093885D01*
X0061698Y0093895D01*
X0080978Y0083205D02*
X0094337Y0083205D01*
X0080978Y0083205D02*
X0071551Y0073779D01*
X0065646Y0076168D02*
X0064443Y0074965D01*
X0064443Y0056483D01*
X0064443Y0043469D01*
X0077309Y0064209D02*
X0077446Y0064346D01*
X0086916Y0064346D01*
X0108543Y0089538D02*
X0108953Y0089948D01*
D16*
X0142417Y0080105D02*
X0142417Y0049575D01*
X0119152Y0026310D01*
X0102031Y0026310D01*
X0101079Y0027262D01*
X0100126Y0026310D01*
X0055446Y0026310D01*
X0026276Y0055480D01*
X0026276Y0078136D01*
M02*
