G75*
%MOIN*%
%OFA0B0*%
%FSLAX25Y25*%
%IPPOS*%
%LPD*%
%AMOC8*
5,1,8,0,0,1.08239X$1,22.5*
%
%ADD10C,0.00000*%
%ADD11C,0.00984*%
%ADD12R,0.13780X0.03937*%
%ADD13R,0.13386X0.05906*%
%ADD14C,0.00541*%
%ADD15C,0.01575*%
%ADD16C,0.01181*%
%ADD17C,0.00591*%
D10*
X0026276Y0011207D02*
X0148323Y0011207D01*
X0148656Y0011211D01*
X0148989Y0011223D01*
X0149321Y0011243D01*
X0149653Y0011271D01*
X0149984Y0011307D01*
X0150314Y0011352D01*
X0150643Y0011404D01*
X0150971Y0011464D01*
X0151297Y0011532D01*
X0151621Y0011607D01*
X0151943Y0011691D01*
X0152263Y0011782D01*
X0152581Y0011881D01*
X0152897Y0011988D01*
X0153209Y0012102D01*
X0153519Y0012224D01*
X0153826Y0012354D01*
X0154130Y0012490D01*
X0154430Y0012634D01*
X0154727Y0012785D01*
X0155020Y0012944D01*
X0155309Y0013109D01*
X0155594Y0013281D01*
X0155875Y0013460D01*
X0156151Y0013646D01*
X0156423Y0013839D01*
X0156690Y0014038D01*
X0156952Y0014243D01*
X0157209Y0014455D01*
X0157461Y0014673D01*
X0157707Y0014896D01*
X0157948Y0015126D01*
X0158184Y0015362D01*
X0158414Y0015603D01*
X0158637Y0015849D01*
X0158855Y0016101D01*
X0159067Y0016358D01*
X0159272Y0016620D01*
X0159471Y0016887D01*
X0159664Y0017159D01*
X0159850Y0017435D01*
X0160029Y0017716D01*
X0160201Y0018001D01*
X0160366Y0018290D01*
X0160525Y0018583D01*
X0160676Y0018880D01*
X0160820Y0019180D01*
X0160956Y0019484D01*
X0161086Y0019791D01*
X0161208Y0020101D01*
X0161322Y0020413D01*
X0161429Y0020729D01*
X0161528Y0021047D01*
X0161619Y0021367D01*
X0161703Y0021689D01*
X0161778Y0022013D01*
X0161846Y0022339D01*
X0161906Y0022667D01*
X0161958Y0022996D01*
X0162003Y0023326D01*
X0162039Y0023657D01*
X0162067Y0023989D01*
X0162087Y0024321D01*
X0162099Y0024654D01*
X0162103Y0024987D01*
X0162102Y0024987D02*
X0162102Y0127231D01*
X0162103Y0127231D02*
X0162075Y0127588D01*
X0162038Y0127943D01*
X0161993Y0128298D01*
X0161939Y0128652D01*
X0161877Y0129004D01*
X0161806Y0129354D01*
X0161727Y0129703D01*
X0161639Y0130050D01*
X0161543Y0130394D01*
X0161439Y0130736D01*
X0161326Y0131075D01*
X0161205Y0131412D01*
X0161076Y0131746D01*
X0160940Y0132076D01*
X0160795Y0132403D01*
X0160642Y0132726D01*
X0160482Y0133046D01*
X0160314Y0133361D01*
X0160138Y0133673D01*
X0159955Y0133980D01*
X0159764Y0134282D01*
X0159566Y0134580D01*
X0159361Y0134873D01*
X0159149Y0135161D01*
X0158931Y0135444D01*
X0158705Y0135721D01*
X0158473Y0135993D01*
X0158234Y0136260D01*
X0157989Y0136520D01*
X0157737Y0136774D01*
X0157480Y0137022D01*
X0157217Y0137264D01*
X0156948Y0137500D01*
X0156673Y0137729D01*
X0156393Y0137951D01*
X0156107Y0138166D01*
X0155817Y0138375D01*
X0155521Y0138576D01*
X0155221Y0138770D01*
X0154916Y0138957D01*
X0154607Y0139136D01*
X0154293Y0139308D01*
X0153975Y0139472D01*
X0153654Y0139629D01*
X0153329Y0139777D01*
X0153000Y0139918D01*
X0152668Y0140051D01*
X0152333Y0140176D01*
X0151995Y0140292D01*
X0151654Y0140401D01*
X0151311Y0140501D01*
X0150965Y0140593D01*
X0150618Y0140676D01*
X0150268Y0140751D01*
X0149917Y0140818D01*
X0149564Y0140876D01*
X0149210Y0140925D01*
X0148854Y0140966D01*
X0148498Y0140999D01*
X0148142Y0141022D01*
X0147784Y0141037D01*
X0147427Y0141044D01*
X0147069Y0141042D01*
X0146712Y0141031D01*
X0146355Y0141011D01*
X0146354Y0141010D02*
X0026276Y0141010D01*
X0026276Y0141011D02*
X0025943Y0141007D01*
X0025610Y0140995D01*
X0025278Y0140975D01*
X0024946Y0140947D01*
X0024615Y0140911D01*
X0024285Y0140866D01*
X0023956Y0140814D01*
X0023628Y0140754D01*
X0023302Y0140686D01*
X0022978Y0140611D01*
X0022656Y0140527D01*
X0022336Y0140436D01*
X0022018Y0140337D01*
X0021702Y0140230D01*
X0021390Y0140116D01*
X0021080Y0139994D01*
X0020773Y0139864D01*
X0020469Y0139728D01*
X0020169Y0139584D01*
X0019872Y0139433D01*
X0019579Y0139274D01*
X0019290Y0139109D01*
X0019005Y0138937D01*
X0018724Y0138758D01*
X0018448Y0138572D01*
X0018176Y0138379D01*
X0017909Y0138180D01*
X0017647Y0137975D01*
X0017390Y0137763D01*
X0017138Y0137545D01*
X0016892Y0137322D01*
X0016651Y0137092D01*
X0016415Y0136856D01*
X0016185Y0136615D01*
X0015962Y0136369D01*
X0015744Y0136117D01*
X0015532Y0135860D01*
X0015327Y0135598D01*
X0015128Y0135331D01*
X0014935Y0135059D01*
X0014749Y0134783D01*
X0014570Y0134502D01*
X0014398Y0134217D01*
X0014233Y0133928D01*
X0014074Y0133635D01*
X0013923Y0133338D01*
X0013779Y0133038D01*
X0013643Y0132734D01*
X0013513Y0132427D01*
X0013391Y0132117D01*
X0013277Y0131805D01*
X0013170Y0131489D01*
X0013071Y0131171D01*
X0012980Y0130851D01*
X0012896Y0130529D01*
X0012821Y0130205D01*
X0012753Y0129879D01*
X0012693Y0129551D01*
X0012641Y0129222D01*
X0012596Y0128892D01*
X0012560Y0128561D01*
X0012532Y0128229D01*
X0012512Y0127897D01*
X0012500Y0127564D01*
X0012496Y0127231D01*
X0012496Y0024987D01*
X0012500Y0024654D01*
X0012512Y0024321D01*
X0012532Y0023989D01*
X0012560Y0023657D01*
X0012596Y0023326D01*
X0012641Y0022996D01*
X0012693Y0022667D01*
X0012753Y0022339D01*
X0012821Y0022013D01*
X0012896Y0021689D01*
X0012980Y0021367D01*
X0013071Y0021047D01*
X0013170Y0020729D01*
X0013277Y0020413D01*
X0013391Y0020101D01*
X0013513Y0019791D01*
X0013643Y0019484D01*
X0013779Y0019180D01*
X0013923Y0018880D01*
X0014074Y0018583D01*
X0014233Y0018290D01*
X0014398Y0018001D01*
X0014570Y0017716D01*
X0014749Y0017435D01*
X0014935Y0017159D01*
X0015128Y0016887D01*
X0015327Y0016620D01*
X0015532Y0016358D01*
X0015744Y0016101D01*
X0015962Y0015849D01*
X0016185Y0015603D01*
X0016415Y0015362D01*
X0016651Y0015126D01*
X0016892Y0014896D01*
X0017138Y0014673D01*
X0017390Y0014455D01*
X0017647Y0014243D01*
X0017909Y0014038D01*
X0018176Y0013839D01*
X0018448Y0013646D01*
X0018724Y0013460D01*
X0019005Y0013281D01*
X0019290Y0013109D01*
X0019579Y0012944D01*
X0019872Y0012785D01*
X0020169Y0012634D01*
X0020469Y0012490D01*
X0020773Y0012354D01*
X0021080Y0012224D01*
X0021390Y0012102D01*
X0021702Y0011988D01*
X0022018Y0011881D01*
X0022336Y0011782D01*
X0022656Y0011691D01*
X0022978Y0011607D01*
X0023302Y0011532D01*
X0023628Y0011464D01*
X0023956Y0011404D01*
X0024285Y0011352D01*
X0024615Y0011307D01*
X0024946Y0011271D01*
X0025278Y0011243D01*
X0025610Y0011223D01*
X0025943Y0011211D01*
X0026276Y0011207D01*
D11*
X0047634Y0043786D02*
X0047634Y0046738D01*
X0047634Y0043786D02*
X0044288Y0043786D01*
X0044288Y0046738D01*
X0047634Y0046738D01*
X0047634Y0044721D02*
X0044288Y0044721D01*
X0044288Y0045656D02*
X0047634Y0045656D01*
X0047634Y0046591D02*
X0044288Y0046591D01*
X0047634Y0050479D02*
X0047634Y0053431D01*
X0047634Y0050479D02*
X0044288Y0050479D01*
X0044288Y0053431D01*
X0047634Y0053431D01*
X0047634Y0051414D02*
X0044288Y0051414D01*
X0044288Y0052349D02*
X0047634Y0052349D01*
X0047634Y0053284D02*
X0044288Y0053284D01*
X0064367Y0062093D02*
X0067319Y0062093D01*
X0067319Y0058747D01*
X0064367Y0058747D01*
X0064367Y0062093D01*
X0064367Y0059682D02*
X0067319Y0059682D01*
X0067319Y0060617D02*
X0064367Y0060617D01*
X0064367Y0061552D02*
X0067319Y0061552D01*
X0071059Y0062093D02*
X0074011Y0062093D01*
X0074011Y0058747D01*
X0071059Y0058747D01*
X0071059Y0062093D01*
X0071059Y0059682D02*
X0074011Y0059682D01*
X0074011Y0060617D02*
X0071059Y0060617D01*
X0071059Y0061552D02*
X0074011Y0061552D01*
X0074011Y0069967D02*
X0071059Y0069967D01*
X0074011Y0069967D02*
X0074011Y0066621D01*
X0071059Y0066621D01*
X0071059Y0069967D01*
X0071059Y0067556D02*
X0074011Y0067556D01*
X0074011Y0068491D02*
X0071059Y0068491D01*
X0071059Y0069426D02*
X0074011Y0069426D01*
X0076178Y0069967D02*
X0079130Y0069967D01*
X0079130Y0066621D01*
X0076178Y0066621D01*
X0076178Y0069967D01*
X0076178Y0067556D02*
X0079130Y0067556D01*
X0079130Y0068491D02*
X0076178Y0068491D01*
X0076178Y0069426D02*
X0079130Y0069426D01*
X0082870Y0069967D02*
X0085822Y0069967D01*
X0085822Y0066621D01*
X0082870Y0066621D01*
X0082870Y0069967D01*
X0082870Y0067556D02*
X0085822Y0067556D01*
X0085822Y0068491D02*
X0082870Y0068491D01*
X0082870Y0069426D02*
X0085822Y0069426D01*
X0088382Y0076463D02*
X0091334Y0076463D01*
X0088382Y0076463D02*
X0088382Y0079809D01*
X0091334Y0079809D01*
X0091334Y0076463D01*
X0091334Y0077398D02*
X0088382Y0077398D01*
X0088382Y0078333D02*
X0091334Y0078333D01*
X0091334Y0079268D02*
X0088382Y0079268D01*
X0095075Y0076463D02*
X0098027Y0076463D01*
X0095075Y0076463D02*
X0095075Y0079809D01*
X0098027Y0079809D01*
X0098027Y0076463D01*
X0098027Y0077398D02*
X0095075Y0077398D01*
X0095075Y0078333D02*
X0098027Y0078333D01*
X0098027Y0079268D02*
X0095075Y0079268D01*
X0100193Y0076463D02*
X0103145Y0076463D01*
X0100193Y0076463D02*
X0100193Y0079809D01*
X0103145Y0079809D01*
X0103145Y0076463D01*
X0103145Y0077398D02*
X0100193Y0077398D01*
X0100193Y0078333D02*
X0103145Y0078333D01*
X0103145Y0079268D02*
X0100193Y0079268D01*
X0106886Y0076463D02*
X0109838Y0076463D01*
X0106886Y0076463D02*
X0106886Y0079809D01*
X0109838Y0079809D01*
X0109838Y0076463D01*
X0109838Y0077398D02*
X0106886Y0077398D01*
X0106886Y0078333D02*
X0109838Y0078333D01*
X0109838Y0079268D02*
X0106886Y0079268D01*
X0106886Y0084337D02*
X0109838Y0084337D01*
X0106886Y0084337D02*
X0106886Y0087683D01*
X0109838Y0087683D01*
X0109838Y0084337D01*
X0109838Y0085272D02*
X0106886Y0085272D01*
X0106886Y0086207D02*
X0109838Y0086207D01*
X0109838Y0087142D02*
X0106886Y0087142D01*
X0103145Y0084337D02*
X0100193Y0084337D01*
X0100193Y0087683D01*
X0103145Y0087683D01*
X0103145Y0084337D01*
X0103145Y0085272D02*
X0100193Y0085272D01*
X0100193Y0086207D02*
X0103145Y0086207D01*
X0103145Y0087142D02*
X0100193Y0087142D01*
X0085822Y0089652D02*
X0082870Y0089652D01*
X0085822Y0089652D02*
X0085822Y0086306D01*
X0082870Y0086306D01*
X0082870Y0089652D01*
X0082870Y0087241D02*
X0085822Y0087241D01*
X0085822Y0088176D02*
X0082870Y0088176D01*
X0082870Y0089111D02*
X0085822Y0089111D01*
X0079130Y0089652D02*
X0076178Y0089652D01*
X0079130Y0089652D02*
X0079130Y0086306D01*
X0076178Y0086306D01*
X0076178Y0089652D01*
X0076178Y0087241D02*
X0079130Y0087241D01*
X0079130Y0088176D02*
X0076178Y0088176D01*
X0076178Y0089111D02*
X0079130Y0089111D01*
X0074011Y0089652D02*
X0071059Y0089652D01*
X0074011Y0089652D02*
X0074011Y0086306D01*
X0071059Y0086306D01*
X0071059Y0089652D01*
X0071059Y0087241D02*
X0074011Y0087241D01*
X0074011Y0088176D02*
X0071059Y0088176D01*
X0071059Y0089111D02*
X0074011Y0089111D01*
X0067319Y0089652D02*
X0064367Y0089652D01*
X0067319Y0089652D02*
X0067319Y0086306D01*
X0064367Y0086306D01*
X0064367Y0089652D01*
X0064367Y0087241D02*
X0067319Y0087241D01*
X0067319Y0088176D02*
X0064367Y0088176D01*
X0064367Y0089111D02*
X0067319Y0089111D01*
X0067319Y0081778D02*
X0064367Y0081778D01*
X0067319Y0081778D02*
X0067319Y0078432D01*
X0064367Y0078432D01*
X0064367Y0081778D01*
X0064367Y0079367D02*
X0067319Y0079367D01*
X0067319Y0080302D02*
X0064367Y0080302D01*
X0064367Y0081237D02*
X0067319Y0081237D01*
X0071059Y0081778D02*
X0074011Y0081778D01*
X0074011Y0078432D01*
X0071059Y0078432D01*
X0071059Y0081778D01*
X0071059Y0079367D02*
X0074011Y0079367D01*
X0074011Y0080302D02*
X0071059Y0080302D01*
X0071059Y0081237D02*
X0074011Y0081237D01*
X0067319Y0069967D02*
X0064367Y0069967D01*
X0067319Y0069967D02*
X0067319Y0066621D01*
X0064367Y0066621D01*
X0064367Y0069967D01*
X0064367Y0067556D02*
X0067319Y0067556D01*
X0067319Y0068491D02*
X0064367Y0068491D01*
X0064367Y0069426D02*
X0067319Y0069426D01*
X0088382Y0054810D02*
X0091334Y0054810D01*
X0088382Y0054810D02*
X0088382Y0058156D01*
X0091334Y0058156D01*
X0091334Y0054810D01*
X0091334Y0055745D02*
X0088382Y0055745D01*
X0088382Y0056680D02*
X0091334Y0056680D01*
X0091334Y0057615D02*
X0088382Y0057615D01*
X0095075Y0054810D02*
X0098027Y0054810D01*
X0095075Y0054810D02*
X0095075Y0058156D01*
X0098027Y0058156D01*
X0098027Y0054810D01*
X0098027Y0055745D02*
X0095075Y0055745D01*
X0095075Y0056680D02*
X0098027Y0056680D01*
X0098027Y0057615D02*
X0095075Y0057615D01*
X0100193Y0054810D02*
X0103145Y0054810D01*
X0100193Y0054810D02*
X0100193Y0058156D01*
X0103145Y0058156D01*
X0103145Y0054810D01*
X0103145Y0055745D02*
X0100193Y0055745D01*
X0100193Y0056680D02*
X0103145Y0056680D01*
X0103145Y0057615D02*
X0100193Y0057615D01*
X0106886Y0054810D02*
X0109838Y0054810D01*
X0106886Y0054810D02*
X0106886Y0058156D01*
X0109838Y0058156D01*
X0109838Y0054810D01*
X0109838Y0055745D02*
X0106886Y0055745D01*
X0106886Y0056680D02*
X0109838Y0056680D01*
X0109838Y0057615D02*
X0106886Y0057615D01*
X0106886Y0062684D02*
X0109838Y0062684D01*
X0106886Y0062684D02*
X0106886Y0066030D01*
X0109838Y0066030D01*
X0109838Y0062684D01*
X0109838Y0063619D02*
X0106886Y0063619D01*
X0106886Y0064554D02*
X0109838Y0064554D01*
X0109838Y0065489D02*
X0106886Y0065489D01*
X0103145Y0062684D02*
X0100193Y0062684D01*
X0100193Y0066030D01*
X0103145Y0066030D01*
X0103145Y0062684D01*
X0103145Y0063619D02*
X0100193Y0063619D01*
X0100193Y0064554D02*
X0103145Y0064554D01*
X0103145Y0065489D02*
X0100193Y0065489D01*
D12*
X0132181Y0064357D03*
X0132181Y0072231D03*
X0132181Y0080105D03*
X0132181Y0087979D03*
D13*
X0154031Y0099593D03*
X0154031Y0052743D03*
D14*
X0096675Y0070779D02*
X0094853Y0070779D01*
X0096675Y0070779D02*
X0096675Y0069155D01*
X0094853Y0069155D01*
X0094853Y0070779D01*
X0094853Y0069669D02*
X0096675Y0069669D01*
X0096675Y0070183D02*
X0094853Y0070183D01*
X0094853Y0070697D02*
X0096675Y0070697D01*
X0091557Y0070779D02*
X0089735Y0070779D01*
X0091557Y0070779D02*
X0091557Y0069155D01*
X0089735Y0069155D01*
X0089735Y0070779D01*
X0089735Y0069669D02*
X0091557Y0069669D01*
X0091557Y0070183D02*
X0089735Y0070183D01*
X0089735Y0070697D02*
X0091557Y0070697D01*
X0084470Y0073683D02*
X0082648Y0073683D01*
X0082648Y0075307D01*
X0084470Y0075307D01*
X0084470Y0073683D01*
X0084470Y0074197D02*
X0082648Y0074197D01*
X0082648Y0074711D02*
X0084470Y0074711D01*
X0084470Y0075225D02*
X0082648Y0075225D01*
X0079352Y0073683D02*
X0077530Y0073683D01*
X0077530Y0075307D01*
X0079352Y0075307D01*
X0079352Y0073683D01*
X0079352Y0074197D02*
X0077530Y0074197D01*
X0077530Y0074711D02*
X0079352Y0074711D01*
X0079352Y0075225D02*
X0077530Y0075225D01*
X0080089Y0080966D02*
X0081911Y0080966D01*
X0080089Y0080966D02*
X0080089Y0082590D01*
X0081911Y0082590D01*
X0081911Y0080966D01*
X0081911Y0081480D02*
X0080089Y0081480D01*
X0080089Y0081994D02*
X0081911Y0081994D01*
X0081911Y0082508D02*
X0080089Y0082508D01*
X0092294Y0085149D02*
X0094116Y0085149D01*
X0094116Y0083525D01*
X0092294Y0083525D01*
X0092294Y0085149D01*
X0092294Y0084039D02*
X0094116Y0084039D01*
X0094116Y0084553D02*
X0092294Y0084553D01*
X0092294Y0085067D02*
X0094116Y0085067D01*
X0094853Y0092433D02*
X0096675Y0092433D01*
X0096675Y0090809D01*
X0094853Y0090809D01*
X0094853Y0092433D01*
X0094853Y0091323D02*
X0096675Y0091323D01*
X0096675Y0091837D02*
X0094853Y0091837D01*
X0094853Y0092351D02*
X0096675Y0092351D01*
X0091557Y0092433D02*
X0089735Y0092433D01*
X0091557Y0092433D02*
X0091557Y0090809D01*
X0089735Y0090809D01*
X0089735Y0092433D01*
X0089735Y0091323D02*
X0091557Y0091323D01*
X0091557Y0091837D02*
X0089735Y0091837D01*
X0089735Y0092351D02*
X0091557Y0092351D01*
X0092294Y0063496D02*
X0094116Y0063496D01*
X0094116Y0061872D01*
X0092294Y0061872D01*
X0092294Y0063496D01*
X0092294Y0062386D02*
X0094116Y0062386D01*
X0094116Y0062900D02*
X0092294Y0062900D01*
X0092294Y0063414D02*
X0094116Y0063414D01*
X0081911Y0061281D02*
X0080089Y0061281D01*
X0080089Y0062905D01*
X0081911Y0062905D01*
X0081911Y0061281D01*
X0081911Y0061795D02*
X0080089Y0061795D01*
X0080089Y0062309D02*
X0081911Y0062309D01*
X0081911Y0062823D02*
X0080089Y0062823D01*
X0079352Y0053998D02*
X0077530Y0053998D01*
X0077530Y0055622D01*
X0079352Y0055622D01*
X0079352Y0053998D01*
X0079352Y0054512D02*
X0077530Y0054512D01*
X0077530Y0055026D02*
X0079352Y0055026D01*
X0079352Y0055540D02*
X0077530Y0055540D01*
X0082648Y0053998D02*
X0084470Y0053998D01*
X0082648Y0053998D02*
X0082648Y0055622D01*
X0084470Y0055622D01*
X0084470Y0053998D01*
X0084470Y0054512D02*
X0082648Y0054512D01*
X0082648Y0055026D02*
X0084470Y0055026D01*
X0084470Y0055540D02*
X0082648Y0055540D01*
D15*
X0076663Y0040821D02*
X0076663Y0036097D01*
X0076663Y0040821D02*
X0082187Y0040821D01*
X0082187Y0036097D01*
X0076663Y0036097D01*
X0076663Y0037593D02*
X0082187Y0037593D01*
X0082187Y0039089D02*
X0076663Y0039089D01*
X0076663Y0040585D02*
X0082187Y0040585D01*
X0092411Y0040821D02*
X0092411Y0036097D01*
X0092411Y0040821D02*
X0097935Y0040821D01*
X0097935Y0036097D01*
X0092411Y0036097D01*
X0092411Y0037593D02*
X0097935Y0037593D01*
X0097935Y0039089D02*
X0092411Y0039089D01*
X0092411Y0040585D02*
X0097935Y0040585D01*
X0104222Y0040821D02*
X0104222Y0036097D01*
X0104222Y0040821D02*
X0109746Y0040821D01*
X0109746Y0036097D01*
X0104222Y0036097D01*
X0104222Y0037593D02*
X0109746Y0037593D01*
X0109746Y0039089D02*
X0104222Y0039089D01*
X0104222Y0040585D02*
X0109746Y0040585D01*
X0104222Y0029624D02*
X0104222Y0024900D01*
X0104222Y0029624D02*
X0109746Y0029624D01*
X0109746Y0024900D01*
X0104222Y0024900D01*
X0104222Y0026396D02*
X0109746Y0026396D01*
X0109746Y0027892D02*
X0104222Y0027892D01*
X0104222Y0029388D02*
X0109746Y0029388D01*
X0092411Y0029624D02*
X0092411Y0024900D01*
X0092411Y0029624D02*
X0097935Y0029624D01*
X0097935Y0024900D01*
X0092411Y0024900D01*
X0092411Y0026396D02*
X0097935Y0026396D01*
X0097935Y0027892D02*
X0092411Y0027892D01*
X0092411Y0029388D02*
X0097935Y0029388D01*
X0076663Y0029624D02*
X0076663Y0024900D01*
X0076663Y0029624D02*
X0082187Y0029624D01*
X0082187Y0024900D01*
X0076663Y0024900D01*
X0076663Y0026396D02*
X0082187Y0026396D01*
X0082187Y0027892D02*
X0076663Y0027892D01*
X0076663Y0029388D02*
X0082187Y0029388D01*
X0064852Y0029624D02*
X0064852Y0024900D01*
X0064852Y0029624D02*
X0070376Y0029624D01*
X0070376Y0024900D01*
X0064852Y0024900D01*
X0064852Y0026396D02*
X0070376Y0026396D01*
X0070376Y0027892D02*
X0064852Y0027892D01*
X0064852Y0029388D02*
X0070376Y0029388D01*
X0064852Y0036097D02*
X0064852Y0040821D01*
X0070376Y0040821D01*
X0070376Y0036097D01*
X0064852Y0036097D01*
X0064852Y0037593D02*
X0070376Y0037593D01*
X0070376Y0039089D02*
X0064852Y0039089D01*
X0064852Y0040585D02*
X0070376Y0040585D01*
D16*
X0020193Y0063294D02*
X0020193Y0066838D01*
X0020193Y0063294D02*
X0014287Y0063294D01*
X0014287Y0066838D01*
X0020193Y0066838D01*
X0020193Y0064416D02*
X0014287Y0064416D01*
X0014287Y0065538D02*
X0020193Y0065538D01*
X0020193Y0066660D02*
X0014287Y0066660D01*
X0020193Y0085341D02*
X0020193Y0088885D01*
X0020193Y0085341D02*
X0014287Y0085341D01*
X0014287Y0088885D01*
X0020193Y0088885D01*
X0020193Y0086463D02*
X0014287Y0086463D01*
X0014287Y0087585D02*
X0020193Y0087585D01*
X0020193Y0088707D02*
X0014287Y0088707D01*
D17*
X0035252Y0082881D02*
X0035252Y0081109D01*
X0029740Y0081109D01*
X0029740Y0082881D01*
X0035252Y0082881D01*
X0035252Y0081670D02*
X0029740Y0081670D01*
X0029740Y0082231D02*
X0035252Y0082231D01*
X0035252Y0082792D02*
X0029740Y0082792D01*
X0035252Y0078944D02*
X0035252Y0077172D01*
X0029740Y0077172D01*
X0029740Y0078944D01*
X0035252Y0078944D01*
X0035252Y0077733D02*
X0029740Y0077733D01*
X0029740Y0078294D02*
X0035252Y0078294D01*
X0035252Y0078855D02*
X0029740Y0078855D01*
X0035252Y0075007D02*
X0035252Y0073235D01*
X0029740Y0073235D01*
X0029740Y0075007D01*
X0035252Y0075007D01*
X0035252Y0073796D02*
X0029740Y0073796D01*
X0029740Y0074357D02*
X0035252Y0074357D01*
X0035252Y0074918D02*
X0029740Y0074918D01*
X0035252Y0071070D02*
X0035252Y0069298D01*
X0029740Y0069298D01*
X0029740Y0071070D01*
X0035252Y0071070D01*
X0035252Y0069859D02*
X0029740Y0069859D01*
X0029740Y0070420D02*
X0035252Y0070420D01*
X0035252Y0070981D02*
X0029740Y0070981D01*
M02*
