%
M48
M72
T01C0.01378
T02C0.03937
T03C0.12598
%
T01
X73520Y28999
X85331Y36798
X101079Y42703
X92417Y50184
X110932Y52966
X124701Y56483
X114071Y65932
X108543Y68273
X86916Y64346
X77309Y64209
X64443Y56483
X59947Y66513
X71551Y73779
X65646Y76168
X47929Y80105
X35331Y87585
X25488Y83648
X26276Y78136
X61698Y93895
X94337Y83205
X108953Y89948
X110932Y82063
X133756Y93491
X141630Y87585
X142417Y80105
X64443Y43469
X101079Y27262
T02
X117349Y20662
X117349Y30662
X117349Y40662
X117349Y50662
X117349Y60662
X117349Y70662
X117349Y80662
X117349Y90662
X117349Y100662
X117349Y110662
X57249Y110662
X57249Y100662
X57249Y90662
X57249Y80662
X57249Y70662
X57249Y60662
X57249Y50662
X57249Y40662
X57249Y30662
X57249Y20662
T03
X148323Y24987
X148323Y127349
X26276Y127349
X26276Y24987
M30
