G75*
%MOIN*%
%OFA0B0*%
%FSLAX25Y25*%
%IPPOS*%
%LPD*%
%AMOC8*
5,1,8,0,0,1.08239X$1,22.5*
%
%ADD10C,0.00000*%
%ADD11C,0.01388*%
%ADD12R,0.14180X0.04337*%
%ADD13R,0.13786X0.06306*%
%ADD14C,0.00949*%
%ADD15C,0.01943*%
%ADD16C,0.06306*%
%ADD17C,0.01589*%
%ADD18C,0.00994*%
%ADD19C,0.23400*%
D10*
X0026276Y0011207D02*
X0148323Y0011207D01*
X0148656Y0011211D01*
X0148989Y0011223D01*
X0149321Y0011243D01*
X0149653Y0011271D01*
X0149984Y0011307D01*
X0150314Y0011352D01*
X0150643Y0011404D01*
X0150971Y0011464D01*
X0151297Y0011532D01*
X0151621Y0011607D01*
X0151943Y0011691D01*
X0152263Y0011782D01*
X0152581Y0011881D01*
X0152897Y0011988D01*
X0153209Y0012102D01*
X0153519Y0012224D01*
X0153826Y0012354D01*
X0154130Y0012490D01*
X0154430Y0012634D01*
X0154727Y0012785D01*
X0155020Y0012944D01*
X0155309Y0013109D01*
X0155594Y0013281D01*
X0155875Y0013460D01*
X0156151Y0013646D01*
X0156423Y0013839D01*
X0156690Y0014038D01*
X0156952Y0014243D01*
X0157209Y0014455D01*
X0157461Y0014673D01*
X0157707Y0014896D01*
X0157948Y0015126D01*
X0158184Y0015362D01*
X0158414Y0015603D01*
X0158637Y0015849D01*
X0158855Y0016101D01*
X0159067Y0016358D01*
X0159272Y0016620D01*
X0159471Y0016887D01*
X0159664Y0017159D01*
X0159850Y0017435D01*
X0160029Y0017716D01*
X0160201Y0018001D01*
X0160366Y0018290D01*
X0160525Y0018583D01*
X0160676Y0018880D01*
X0160820Y0019180D01*
X0160956Y0019484D01*
X0161086Y0019791D01*
X0161208Y0020101D01*
X0161322Y0020413D01*
X0161429Y0020729D01*
X0161528Y0021047D01*
X0161619Y0021367D01*
X0161703Y0021689D01*
X0161778Y0022013D01*
X0161846Y0022339D01*
X0161906Y0022667D01*
X0161958Y0022996D01*
X0162003Y0023326D01*
X0162039Y0023657D01*
X0162067Y0023989D01*
X0162087Y0024321D01*
X0162099Y0024654D01*
X0162103Y0024987D01*
X0162102Y0024987D02*
X0162102Y0127231D01*
X0162103Y0127231D02*
X0162075Y0127588D01*
X0162038Y0127943D01*
X0161993Y0128298D01*
X0161939Y0128652D01*
X0161877Y0129004D01*
X0161806Y0129354D01*
X0161727Y0129703D01*
X0161639Y0130050D01*
X0161543Y0130394D01*
X0161439Y0130736D01*
X0161326Y0131075D01*
X0161205Y0131412D01*
X0161076Y0131746D01*
X0160940Y0132076D01*
X0160795Y0132403D01*
X0160642Y0132726D01*
X0160482Y0133046D01*
X0160314Y0133361D01*
X0160138Y0133673D01*
X0159955Y0133980D01*
X0159764Y0134282D01*
X0159566Y0134580D01*
X0159361Y0134873D01*
X0159149Y0135161D01*
X0158931Y0135444D01*
X0158705Y0135721D01*
X0158473Y0135993D01*
X0158234Y0136260D01*
X0157989Y0136520D01*
X0157737Y0136774D01*
X0157480Y0137022D01*
X0157217Y0137264D01*
X0156948Y0137500D01*
X0156673Y0137729D01*
X0156393Y0137951D01*
X0156107Y0138166D01*
X0155817Y0138375D01*
X0155521Y0138576D01*
X0155221Y0138770D01*
X0154916Y0138957D01*
X0154607Y0139136D01*
X0154293Y0139308D01*
X0153975Y0139472D01*
X0153654Y0139629D01*
X0153329Y0139777D01*
X0153000Y0139918D01*
X0152668Y0140051D01*
X0152333Y0140176D01*
X0151995Y0140292D01*
X0151654Y0140401D01*
X0151311Y0140501D01*
X0150965Y0140593D01*
X0150618Y0140676D01*
X0150268Y0140751D01*
X0149917Y0140818D01*
X0149564Y0140876D01*
X0149210Y0140925D01*
X0148854Y0140966D01*
X0148498Y0140999D01*
X0148142Y0141022D01*
X0147784Y0141037D01*
X0147427Y0141044D01*
X0147069Y0141042D01*
X0146712Y0141031D01*
X0146355Y0141011D01*
X0146354Y0141010D02*
X0026276Y0141010D01*
X0026276Y0141011D02*
X0025943Y0141007D01*
X0025610Y0140995D01*
X0025278Y0140975D01*
X0024946Y0140947D01*
X0024615Y0140911D01*
X0024285Y0140866D01*
X0023956Y0140814D01*
X0023628Y0140754D01*
X0023302Y0140686D01*
X0022978Y0140611D01*
X0022656Y0140527D01*
X0022336Y0140436D01*
X0022018Y0140337D01*
X0021702Y0140230D01*
X0021390Y0140116D01*
X0021080Y0139994D01*
X0020773Y0139864D01*
X0020469Y0139728D01*
X0020169Y0139584D01*
X0019872Y0139433D01*
X0019579Y0139274D01*
X0019290Y0139109D01*
X0019005Y0138937D01*
X0018724Y0138758D01*
X0018448Y0138572D01*
X0018176Y0138379D01*
X0017909Y0138180D01*
X0017647Y0137975D01*
X0017390Y0137763D01*
X0017138Y0137545D01*
X0016892Y0137322D01*
X0016651Y0137092D01*
X0016415Y0136856D01*
X0016185Y0136615D01*
X0015962Y0136369D01*
X0015744Y0136117D01*
X0015532Y0135860D01*
X0015327Y0135598D01*
X0015128Y0135331D01*
X0014935Y0135059D01*
X0014749Y0134783D01*
X0014570Y0134502D01*
X0014398Y0134217D01*
X0014233Y0133928D01*
X0014074Y0133635D01*
X0013923Y0133338D01*
X0013779Y0133038D01*
X0013643Y0132734D01*
X0013513Y0132427D01*
X0013391Y0132117D01*
X0013277Y0131805D01*
X0013170Y0131489D01*
X0013071Y0131171D01*
X0012980Y0130851D01*
X0012896Y0130529D01*
X0012821Y0130205D01*
X0012753Y0129879D01*
X0012693Y0129551D01*
X0012641Y0129222D01*
X0012596Y0128892D01*
X0012560Y0128561D01*
X0012532Y0128229D01*
X0012512Y0127897D01*
X0012500Y0127564D01*
X0012496Y0127231D01*
X0012496Y0024987D01*
X0012500Y0024654D01*
X0012512Y0024321D01*
X0012532Y0023989D01*
X0012560Y0023657D01*
X0012596Y0023326D01*
X0012641Y0022996D01*
X0012693Y0022667D01*
X0012753Y0022339D01*
X0012821Y0022013D01*
X0012896Y0021689D01*
X0012980Y0021367D01*
X0013071Y0021047D01*
X0013170Y0020729D01*
X0013277Y0020413D01*
X0013391Y0020101D01*
X0013513Y0019791D01*
X0013643Y0019484D01*
X0013779Y0019180D01*
X0013923Y0018880D01*
X0014074Y0018583D01*
X0014233Y0018290D01*
X0014398Y0018001D01*
X0014570Y0017716D01*
X0014749Y0017435D01*
X0014935Y0017159D01*
X0015128Y0016887D01*
X0015327Y0016620D01*
X0015532Y0016358D01*
X0015744Y0016101D01*
X0015962Y0015849D01*
X0016185Y0015603D01*
X0016415Y0015362D01*
X0016651Y0015126D01*
X0016892Y0014896D01*
X0017138Y0014673D01*
X0017390Y0014455D01*
X0017647Y0014243D01*
X0017909Y0014038D01*
X0018176Y0013839D01*
X0018448Y0013646D01*
X0018724Y0013460D01*
X0019005Y0013281D01*
X0019290Y0013109D01*
X0019579Y0012944D01*
X0019872Y0012785D01*
X0020169Y0012634D01*
X0020469Y0012490D01*
X0020773Y0012354D01*
X0021080Y0012224D01*
X0021390Y0012102D01*
X0021702Y0011988D01*
X0022018Y0011881D01*
X0022336Y0011782D01*
X0022656Y0011691D01*
X0022978Y0011607D01*
X0023302Y0011532D01*
X0023628Y0011464D01*
X0023956Y0011404D01*
X0024285Y0011352D01*
X0024615Y0011307D01*
X0024946Y0011271D01*
X0025278Y0011243D01*
X0025610Y0011223D01*
X0025943Y0011211D01*
X0026276Y0011207D01*
D11*
X0047632Y0043788D02*
X0047632Y0046736D01*
X0047632Y0043788D02*
X0044290Y0043788D01*
X0044290Y0046736D01*
X0047632Y0046736D01*
X0047632Y0045107D02*
X0044290Y0045107D01*
X0044290Y0046426D02*
X0047632Y0046426D01*
X0047632Y0050481D02*
X0047632Y0053429D01*
X0047632Y0050481D02*
X0044290Y0050481D01*
X0044290Y0053429D01*
X0047632Y0053429D01*
X0047632Y0051800D02*
X0044290Y0051800D01*
X0044290Y0053119D02*
X0047632Y0053119D01*
X0064369Y0062091D02*
X0067317Y0062091D01*
X0067317Y0058749D01*
X0064369Y0058749D01*
X0064369Y0062091D01*
X0064369Y0060068D02*
X0067317Y0060068D01*
X0067317Y0061387D02*
X0064369Y0061387D01*
X0071061Y0062091D02*
X0074009Y0062091D01*
X0074009Y0058749D01*
X0071061Y0058749D01*
X0071061Y0062091D01*
X0071061Y0060068D02*
X0074009Y0060068D01*
X0074009Y0061387D02*
X0071061Y0061387D01*
X0071061Y0069965D02*
X0074009Y0069965D01*
X0074009Y0066623D01*
X0071061Y0066623D01*
X0071061Y0069965D01*
X0071061Y0067942D02*
X0074009Y0067942D01*
X0074009Y0069261D02*
X0071061Y0069261D01*
X0067317Y0069965D02*
X0064369Y0069965D01*
X0067317Y0069965D02*
X0067317Y0066623D01*
X0064369Y0066623D01*
X0064369Y0069965D01*
X0064369Y0067942D02*
X0067317Y0067942D01*
X0067317Y0069261D02*
X0064369Y0069261D01*
X0076180Y0069965D02*
X0079128Y0069965D01*
X0079128Y0066623D01*
X0076180Y0066623D01*
X0076180Y0069965D01*
X0076180Y0067942D02*
X0079128Y0067942D01*
X0079128Y0069261D02*
X0076180Y0069261D01*
X0082872Y0069965D02*
X0085820Y0069965D01*
X0085820Y0066623D01*
X0082872Y0066623D01*
X0082872Y0069965D01*
X0082872Y0067942D02*
X0085820Y0067942D01*
X0085820Y0069261D02*
X0082872Y0069261D01*
X0088384Y0076465D02*
X0091332Y0076465D01*
X0088384Y0076465D02*
X0088384Y0079807D01*
X0091332Y0079807D01*
X0091332Y0076465D01*
X0091332Y0077784D02*
X0088384Y0077784D01*
X0088384Y0079103D02*
X0091332Y0079103D01*
X0095077Y0076465D02*
X0098025Y0076465D01*
X0095077Y0076465D02*
X0095077Y0079807D01*
X0098025Y0079807D01*
X0098025Y0076465D01*
X0098025Y0077784D02*
X0095077Y0077784D01*
X0095077Y0079103D02*
X0098025Y0079103D01*
X0100195Y0076465D02*
X0103143Y0076465D01*
X0100195Y0076465D02*
X0100195Y0079807D01*
X0103143Y0079807D01*
X0103143Y0076465D01*
X0103143Y0077784D02*
X0100195Y0077784D01*
X0100195Y0079103D02*
X0103143Y0079103D01*
X0106888Y0076465D02*
X0109836Y0076465D01*
X0106888Y0076465D02*
X0106888Y0079807D01*
X0109836Y0079807D01*
X0109836Y0076465D01*
X0109836Y0077784D02*
X0106888Y0077784D01*
X0106888Y0079103D02*
X0109836Y0079103D01*
X0109836Y0084339D02*
X0106888Y0084339D01*
X0106888Y0087681D01*
X0109836Y0087681D01*
X0109836Y0084339D01*
X0109836Y0085658D02*
X0106888Y0085658D01*
X0106888Y0086977D02*
X0109836Y0086977D01*
X0103143Y0084339D02*
X0100195Y0084339D01*
X0100195Y0087681D01*
X0103143Y0087681D01*
X0103143Y0084339D01*
X0103143Y0085658D02*
X0100195Y0085658D01*
X0100195Y0086977D02*
X0103143Y0086977D01*
X0085820Y0089650D02*
X0082872Y0089650D01*
X0085820Y0089650D02*
X0085820Y0086308D01*
X0082872Y0086308D01*
X0082872Y0089650D01*
X0082872Y0087627D02*
X0085820Y0087627D01*
X0085820Y0088946D02*
X0082872Y0088946D01*
X0079128Y0089650D02*
X0076180Y0089650D01*
X0079128Y0089650D02*
X0079128Y0086308D01*
X0076180Y0086308D01*
X0076180Y0089650D01*
X0076180Y0087627D02*
X0079128Y0087627D01*
X0079128Y0088946D02*
X0076180Y0088946D01*
X0074009Y0089650D02*
X0071061Y0089650D01*
X0074009Y0089650D02*
X0074009Y0086308D01*
X0071061Y0086308D01*
X0071061Y0089650D01*
X0071061Y0087627D02*
X0074009Y0087627D01*
X0074009Y0088946D02*
X0071061Y0088946D01*
X0067317Y0089650D02*
X0064369Y0089650D01*
X0067317Y0089650D02*
X0067317Y0086308D01*
X0064369Y0086308D01*
X0064369Y0089650D01*
X0064369Y0087627D02*
X0067317Y0087627D01*
X0067317Y0088946D02*
X0064369Y0088946D01*
X0064369Y0081776D02*
X0067317Y0081776D01*
X0067317Y0078434D01*
X0064369Y0078434D01*
X0064369Y0081776D01*
X0064369Y0079753D02*
X0067317Y0079753D01*
X0067317Y0081072D02*
X0064369Y0081072D01*
X0071061Y0081776D02*
X0074009Y0081776D01*
X0074009Y0078434D01*
X0071061Y0078434D01*
X0071061Y0081776D01*
X0071061Y0079753D02*
X0074009Y0079753D01*
X0074009Y0081072D02*
X0071061Y0081072D01*
X0100195Y0062686D02*
X0103143Y0062686D01*
X0100195Y0062686D02*
X0100195Y0066028D01*
X0103143Y0066028D01*
X0103143Y0062686D01*
X0103143Y0064005D02*
X0100195Y0064005D01*
X0100195Y0065324D02*
X0103143Y0065324D01*
X0106888Y0062686D02*
X0109836Y0062686D01*
X0106888Y0062686D02*
X0106888Y0066028D01*
X0109836Y0066028D01*
X0109836Y0062686D01*
X0109836Y0064005D02*
X0106888Y0064005D01*
X0106888Y0065324D02*
X0109836Y0065324D01*
X0109836Y0054812D02*
X0106888Y0054812D01*
X0106888Y0058154D01*
X0109836Y0058154D01*
X0109836Y0054812D01*
X0109836Y0056131D02*
X0106888Y0056131D01*
X0106888Y0057450D02*
X0109836Y0057450D01*
X0103143Y0054812D02*
X0100195Y0054812D01*
X0100195Y0058154D01*
X0103143Y0058154D01*
X0103143Y0054812D01*
X0103143Y0056131D02*
X0100195Y0056131D01*
X0100195Y0057450D02*
X0103143Y0057450D01*
X0098025Y0054812D02*
X0095077Y0054812D01*
X0095077Y0058154D01*
X0098025Y0058154D01*
X0098025Y0054812D01*
X0098025Y0056131D02*
X0095077Y0056131D01*
X0095077Y0057450D02*
X0098025Y0057450D01*
X0091332Y0054812D02*
X0088384Y0054812D01*
X0088384Y0058154D01*
X0091332Y0058154D01*
X0091332Y0054812D01*
X0091332Y0056131D02*
X0088384Y0056131D01*
X0088384Y0057450D02*
X0091332Y0057450D01*
D12*
X0132181Y0064357D03*
X0132181Y0072231D03*
X0132181Y0080105D03*
X0132181Y0087979D03*
D13*
X0154031Y0099593D03*
X0154031Y0052743D03*
D14*
X0096671Y0070775D02*
X0094857Y0070775D01*
X0096671Y0070775D02*
X0096671Y0069159D01*
X0094857Y0069159D01*
X0094857Y0070775D01*
X0094857Y0070061D02*
X0096671Y0070061D01*
X0091553Y0070775D02*
X0089739Y0070775D01*
X0091553Y0070775D02*
X0091553Y0069159D01*
X0089739Y0069159D01*
X0089739Y0070775D01*
X0089739Y0070061D02*
X0091553Y0070061D01*
X0084466Y0073687D02*
X0082652Y0073687D01*
X0082652Y0075303D01*
X0084466Y0075303D01*
X0084466Y0073687D01*
X0084466Y0074589D02*
X0082652Y0074589D01*
X0079348Y0073687D02*
X0077534Y0073687D01*
X0077534Y0075303D01*
X0079348Y0075303D01*
X0079348Y0073687D01*
X0079348Y0074589D02*
X0077534Y0074589D01*
X0080093Y0080970D02*
X0081907Y0080970D01*
X0080093Y0080970D02*
X0080093Y0082586D01*
X0081907Y0082586D01*
X0081907Y0080970D01*
X0081907Y0081872D02*
X0080093Y0081872D01*
X0092298Y0085145D02*
X0094112Y0085145D01*
X0094112Y0083529D01*
X0092298Y0083529D01*
X0092298Y0085145D01*
X0092298Y0084431D02*
X0094112Y0084431D01*
X0094857Y0092429D02*
X0096671Y0092429D01*
X0096671Y0090813D01*
X0094857Y0090813D01*
X0094857Y0092429D01*
X0094857Y0091715D02*
X0096671Y0091715D01*
X0091553Y0092429D02*
X0089739Y0092429D01*
X0091553Y0092429D02*
X0091553Y0090813D01*
X0089739Y0090813D01*
X0089739Y0092429D01*
X0089739Y0091715D02*
X0091553Y0091715D01*
X0092298Y0063492D02*
X0094112Y0063492D01*
X0094112Y0061876D01*
X0092298Y0061876D01*
X0092298Y0063492D01*
X0092298Y0062778D02*
X0094112Y0062778D01*
X0081907Y0061285D02*
X0080093Y0061285D01*
X0080093Y0062901D01*
X0081907Y0062901D01*
X0081907Y0061285D01*
X0081907Y0062187D02*
X0080093Y0062187D01*
X0079348Y0054002D02*
X0077534Y0054002D01*
X0077534Y0055618D01*
X0079348Y0055618D01*
X0079348Y0054002D01*
X0079348Y0054904D02*
X0077534Y0054904D01*
X0082652Y0054002D02*
X0084466Y0054002D01*
X0082652Y0054002D02*
X0082652Y0055618D01*
X0084466Y0055618D01*
X0084466Y0054002D01*
X0084466Y0054904D02*
X0082652Y0054904D01*
D15*
X0076647Y0040837D02*
X0076647Y0036081D01*
X0076647Y0040837D02*
X0082203Y0040837D01*
X0082203Y0036081D01*
X0076647Y0036081D01*
X0076647Y0037927D02*
X0082203Y0037927D01*
X0082203Y0039773D02*
X0076647Y0039773D01*
X0064836Y0040837D02*
X0064836Y0036081D01*
X0064836Y0040837D02*
X0070392Y0040837D01*
X0070392Y0036081D01*
X0064836Y0036081D01*
X0064836Y0037927D02*
X0070392Y0037927D01*
X0070392Y0039773D02*
X0064836Y0039773D01*
X0064836Y0029640D02*
X0064836Y0024884D01*
X0064836Y0029640D02*
X0070392Y0029640D01*
X0070392Y0024884D01*
X0064836Y0024884D01*
X0064836Y0026730D02*
X0070392Y0026730D01*
X0070392Y0028576D02*
X0064836Y0028576D01*
X0076647Y0029640D02*
X0076647Y0024884D01*
X0076647Y0029640D02*
X0082203Y0029640D01*
X0082203Y0024884D01*
X0076647Y0024884D01*
X0076647Y0026730D02*
X0082203Y0026730D01*
X0082203Y0028576D02*
X0076647Y0028576D01*
X0092395Y0029640D02*
X0092395Y0024884D01*
X0092395Y0029640D02*
X0097951Y0029640D01*
X0097951Y0024884D01*
X0092395Y0024884D01*
X0092395Y0026730D02*
X0097951Y0026730D01*
X0097951Y0028576D02*
X0092395Y0028576D01*
X0104206Y0029640D02*
X0104206Y0024884D01*
X0104206Y0029640D02*
X0109762Y0029640D01*
X0109762Y0024884D01*
X0104206Y0024884D01*
X0104206Y0026730D02*
X0109762Y0026730D01*
X0109762Y0028576D02*
X0104206Y0028576D01*
X0104206Y0036081D02*
X0104206Y0040837D01*
X0109762Y0040837D01*
X0109762Y0036081D01*
X0104206Y0036081D01*
X0104206Y0037927D02*
X0109762Y0037927D01*
X0109762Y0039773D02*
X0104206Y0039773D01*
X0092395Y0040837D02*
X0092395Y0036081D01*
X0092395Y0040837D02*
X0097951Y0040837D01*
X0097951Y0036081D01*
X0092395Y0036081D01*
X0092395Y0037927D02*
X0097951Y0037927D01*
X0097951Y0039773D02*
X0092395Y0039773D01*
D16*
X0117349Y0040662D03*
X0117349Y0030662D03*
X0117349Y0020662D03*
X0117349Y0050662D03*
X0117349Y0060662D03*
X0117349Y0070662D03*
X0117349Y0080662D03*
X0117349Y0090662D03*
X0117349Y0100662D03*
X0117349Y0110662D03*
X0057249Y0110662D03*
X0057249Y0100662D03*
X0057249Y0090662D03*
X0057249Y0080662D03*
X0057249Y0070662D03*
X0057249Y0060662D03*
X0057249Y0050662D03*
X0057249Y0040662D03*
X0057249Y0030662D03*
X0057249Y0020662D03*
D17*
X0020189Y0063298D02*
X0020189Y0066834D01*
X0020189Y0063298D02*
X0014291Y0063298D01*
X0014291Y0066834D01*
X0020189Y0066834D01*
X0020189Y0064808D02*
X0014291Y0064808D01*
X0014291Y0066318D02*
X0020189Y0066318D01*
X0020189Y0085345D02*
X0020189Y0088881D01*
X0020189Y0085345D02*
X0014291Y0085345D01*
X0014291Y0088881D01*
X0020189Y0088881D01*
X0020189Y0086855D02*
X0014291Y0086855D01*
X0014291Y0088365D02*
X0020189Y0088365D01*
D18*
X0035250Y0082879D02*
X0035250Y0081111D01*
X0029742Y0081111D01*
X0029742Y0082879D01*
X0035250Y0082879D01*
X0035250Y0082055D02*
X0029742Y0082055D01*
X0035250Y0078942D02*
X0035250Y0077174D01*
X0029742Y0077174D01*
X0029742Y0078942D01*
X0035250Y0078942D01*
X0035250Y0078118D02*
X0029742Y0078118D01*
X0035250Y0075005D02*
X0035250Y0073237D01*
X0029742Y0073237D01*
X0029742Y0075005D01*
X0035250Y0075005D01*
X0035250Y0074181D02*
X0029742Y0074181D01*
X0035250Y0071068D02*
X0035250Y0069300D01*
X0029742Y0069300D01*
X0029742Y0071068D01*
X0035250Y0071068D01*
X0035250Y0070244D02*
X0029742Y0070244D01*
D19*
X0026276Y0024987D03*
X0148323Y0024987D03*
X0148323Y0127349D03*
X0026276Y0127349D03*
M02*
