G75*
%MOIN*%
%OFA0B0*%
%FSLAX25Y25*%
%IPPOS*%
%LPD*%
%AMOC8*
5,1,8,0,0,1.08239X$1,22.5*
%
%ADD10C,0.00000*%
D10*
X0026276Y0010843D02*
X0148323Y0010843D01*
X0148323Y0010842D02*
X0148656Y0010846D01*
X0148989Y0010858D01*
X0149321Y0010878D01*
X0149653Y0010906D01*
X0149984Y0010942D01*
X0150314Y0010987D01*
X0150643Y0011039D01*
X0150971Y0011099D01*
X0151297Y0011167D01*
X0151621Y0011242D01*
X0151943Y0011326D01*
X0152263Y0011417D01*
X0152581Y0011516D01*
X0152897Y0011623D01*
X0153209Y0011737D01*
X0153519Y0011859D01*
X0153826Y0011989D01*
X0154130Y0012125D01*
X0154430Y0012269D01*
X0154727Y0012420D01*
X0155020Y0012579D01*
X0155309Y0012744D01*
X0155594Y0012916D01*
X0155875Y0013095D01*
X0156151Y0013281D01*
X0156423Y0013474D01*
X0156690Y0013673D01*
X0156952Y0013878D01*
X0157209Y0014090D01*
X0157461Y0014308D01*
X0157707Y0014531D01*
X0157948Y0014761D01*
X0158184Y0014997D01*
X0158414Y0015238D01*
X0158637Y0015484D01*
X0158855Y0015736D01*
X0159067Y0015993D01*
X0159272Y0016255D01*
X0159471Y0016522D01*
X0159664Y0016794D01*
X0159850Y0017070D01*
X0160029Y0017351D01*
X0160201Y0017636D01*
X0160366Y0017925D01*
X0160525Y0018218D01*
X0160676Y0018515D01*
X0160820Y0018815D01*
X0160956Y0019119D01*
X0161086Y0019426D01*
X0161208Y0019736D01*
X0161322Y0020048D01*
X0161429Y0020364D01*
X0161528Y0020682D01*
X0161619Y0021002D01*
X0161703Y0021324D01*
X0161778Y0021648D01*
X0161846Y0021974D01*
X0161906Y0022302D01*
X0161958Y0022631D01*
X0162003Y0022961D01*
X0162039Y0023292D01*
X0162067Y0023624D01*
X0162087Y0023956D01*
X0162099Y0024289D01*
X0162103Y0024622D01*
X0162102Y0024622D02*
X0162102Y0126866D01*
X0162103Y0126866D02*
X0162075Y0127223D01*
X0162038Y0127578D01*
X0161993Y0127933D01*
X0161939Y0128287D01*
X0161877Y0128639D01*
X0161806Y0128989D01*
X0161727Y0129338D01*
X0161639Y0129685D01*
X0161543Y0130029D01*
X0161439Y0130371D01*
X0161326Y0130710D01*
X0161205Y0131047D01*
X0161076Y0131381D01*
X0160940Y0131711D01*
X0160795Y0132038D01*
X0160642Y0132361D01*
X0160482Y0132681D01*
X0160314Y0132996D01*
X0160138Y0133308D01*
X0159955Y0133615D01*
X0159764Y0133917D01*
X0159566Y0134215D01*
X0159361Y0134508D01*
X0159149Y0134796D01*
X0158931Y0135079D01*
X0158705Y0135356D01*
X0158473Y0135628D01*
X0158234Y0135895D01*
X0157989Y0136155D01*
X0157737Y0136409D01*
X0157480Y0136657D01*
X0157217Y0136899D01*
X0156948Y0137135D01*
X0156673Y0137364D01*
X0156393Y0137586D01*
X0156107Y0137801D01*
X0155817Y0138010D01*
X0155521Y0138211D01*
X0155221Y0138405D01*
X0154916Y0138592D01*
X0154607Y0138771D01*
X0154293Y0138943D01*
X0153975Y0139107D01*
X0153654Y0139264D01*
X0153329Y0139412D01*
X0153000Y0139553D01*
X0152668Y0139686D01*
X0152333Y0139811D01*
X0151995Y0139927D01*
X0151654Y0140036D01*
X0151311Y0140136D01*
X0150965Y0140228D01*
X0150618Y0140311D01*
X0150268Y0140386D01*
X0149917Y0140453D01*
X0149564Y0140511D01*
X0149210Y0140560D01*
X0148854Y0140601D01*
X0148498Y0140634D01*
X0148142Y0140657D01*
X0147784Y0140672D01*
X0147427Y0140679D01*
X0147069Y0140677D01*
X0146712Y0140666D01*
X0146355Y0140646D01*
X0146354Y0140646D02*
X0026276Y0140646D01*
X0025943Y0140642D01*
X0025610Y0140630D01*
X0025278Y0140610D01*
X0024946Y0140582D01*
X0024615Y0140546D01*
X0024285Y0140501D01*
X0023956Y0140449D01*
X0023628Y0140389D01*
X0023302Y0140321D01*
X0022978Y0140246D01*
X0022656Y0140162D01*
X0022336Y0140071D01*
X0022018Y0139972D01*
X0021702Y0139865D01*
X0021390Y0139751D01*
X0021080Y0139629D01*
X0020773Y0139499D01*
X0020469Y0139363D01*
X0020169Y0139219D01*
X0019872Y0139068D01*
X0019579Y0138909D01*
X0019290Y0138744D01*
X0019005Y0138572D01*
X0018724Y0138393D01*
X0018448Y0138207D01*
X0018176Y0138014D01*
X0017909Y0137815D01*
X0017647Y0137610D01*
X0017390Y0137398D01*
X0017138Y0137180D01*
X0016892Y0136957D01*
X0016651Y0136727D01*
X0016415Y0136491D01*
X0016185Y0136250D01*
X0015962Y0136004D01*
X0015744Y0135752D01*
X0015532Y0135495D01*
X0015327Y0135233D01*
X0015128Y0134966D01*
X0014935Y0134694D01*
X0014749Y0134418D01*
X0014570Y0134137D01*
X0014398Y0133852D01*
X0014233Y0133563D01*
X0014074Y0133270D01*
X0013923Y0132973D01*
X0013779Y0132673D01*
X0013643Y0132369D01*
X0013513Y0132062D01*
X0013391Y0131752D01*
X0013277Y0131440D01*
X0013170Y0131124D01*
X0013071Y0130806D01*
X0012980Y0130486D01*
X0012896Y0130164D01*
X0012821Y0129840D01*
X0012753Y0129514D01*
X0012693Y0129186D01*
X0012641Y0128857D01*
X0012596Y0128527D01*
X0012560Y0128196D01*
X0012532Y0127864D01*
X0012512Y0127532D01*
X0012500Y0127199D01*
X0012496Y0126866D01*
X0012496Y0024622D01*
X0012500Y0024289D01*
X0012512Y0023956D01*
X0012532Y0023624D01*
X0012560Y0023292D01*
X0012596Y0022961D01*
X0012641Y0022631D01*
X0012693Y0022302D01*
X0012753Y0021974D01*
X0012821Y0021648D01*
X0012896Y0021324D01*
X0012980Y0021002D01*
X0013071Y0020682D01*
X0013170Y0020364D01*
X0013277Y0020048D01*
X0013391Y0019736D01*
X0013513Y0019426D01*
X0013643Y0019119D01*
X0013779Y0018815D01*
X0013923Y0018515D01*
X0014074Y0018218D01*
X0014233Y0017925D01*
X0014398Y0017636D01*
X0014570Y0017351D01*
X0014749Y0017070D01*
X0014935Y0016794D01*
X0015128Y0016522D01*
X0015327Y0016255D01*
X0015532Y0015993D01*
X0015744Y0015736D01*
X0015962Y0015484D01*
X0016185Y0015238D01*
X0016415Y0014997D01*
X0016651Y0014761D01*
X0016892Y0014531D01*
X0017138Y0014308D01*
X0017390Y0014090D01*
X0017647Y0013878D01*
X0017909Y0013673D01*
X0018176Y0013474D01*
X0018448Y0013281D01*
X0018724Y0013095D01*
X0019005Y0012916D01*
X0019290Y0012744D01*
X0019579Y0012579D01*
X0019872Y0012420D01*
X0020169Y0012269D01*
X0020469Y0012125D01*
X0020773Y0011989D01*
X0021080Y0011859D01*
X0021390Y0011737D01*
X0021702Y0011623D01*
X0022018Y0011516D01*
X0022336Y0011417D01*
X0022656Y0011326D01*
X0022978Y0011242D01*
X0023302Y0011167D01*
X0023628Y0011099D01*
X0023956Y0011039D01*
X0024285Y0010987D01*
X0024615Y0010942D01*
X0024946Y0010906D01*
X0025278Y0010878D01*
X0025610Y0010858D01*
X0025943Y0010846D01*
X0026276Y0010842D01*
M02*
