G75*
%MOIN*%
%OFA0B0*%
%FSLAX25Y25*%
%IPPOS*%
%LPD*%
%AMOC8*
5,1,8,0,0,1.08239X$1,22.5*
%
%ADD10C,0.00000*%
%ADD11C,0.00400*%
%ADD12C,0.00600*%
%ADD13C,0.00300*%
%ADD14C,0.00500*%
D10*
X0026276Y0010843D02*
X0148323Y0010843D01*
X0148323Y0010842D02*
X0148656Y0010846D01*
X0148989Y0010858D01*
X0149321Y0010878D01*
X0149653Y0010906D01*
X0149984Y0010942D01*
X0150314Y0010987D01*
X0150643Y0011039D01*
X0150971Y0011099D01*
X0151297Y0011167D01*
X0151621Y0011242D01*
X0151943Y0011326D01*
X0152263Y0011417D01*
X0152581Y0011516D01*
X0152897Y0011623D01*
X0153209Y0011737D01*
X0153519Y0011859D01*
X0153826Y0011989D01*
X0154130Y0012125D01*
X0154430Y0012269D01*
X0154727Y0012420D01*
X0155020Y0012579D01*
X0155309Y0012744D01*
X0155594Y0012916D01*
X0155875Y0013095D01*
X0156151Y0013281D01*
X0156423Y0013474D01*
X0156690Y0013673D01*
X0156952Y0013878D01*
X0157209Y0014090D01*
X0157461Y0014308D01*
X0157707Y0014531D01*
X0157948Y0014761D01*
X0158184Y0014997D01*
X0158414Y0015238D01*
X0158637Y0015484D01*
X0158855Y0015736D01*
X0159067Y0015993D01*
X0159272Y0016255D01*
X0159471Y0016522D01*
X0159664Y0016794D01*
X0159850Y0017070D01*
X0160029Y0017351D01*
X0160201Y0017636D01*
X0160366Y0017925D01*
X0160525Y0018218D01*
X0160676Y0018515D01*
X0160820Y0018815D01*
X0160956Y0019119D01*
X0161086Y0019426D01*
X0161208Y0019736D01*
X0161322Y0020048D01*
X0161429Y0020364D01*
X0161528Y0020682D01*
X0161619Y0021002D01*
X0161703Y0021324D01*
X0161778Y0021648D01*
X0161846Y0021974D01*
X0161906Y0022302D01*
X0161958Y0022631D01*
X0162003Y0022961D01*
X0162039Y0023292D01*
X0162067Y0023624D01*
X0162087Y0023956D01*
X0162099Y0024289D01*
X0162103Y0024622D01*
X0162102Y0024622D02*
X0162102Y0126866D01*
X0162103Y0126866D02*
X0162075Y0127223D01*
X0162038Y0127578D01*
X0161993Y0127933D01*
X0161939Y0128287D01*
X0161877Y0128639D01*
X0161806Y0128989D01*
X0161727Y0129338D01*
X0161639Y0129685D01*
X0161543Y0130029D01*
X0161439Y0130371D01*
X0161326Y0130710D01*
X0161205Y0131047D01*
X0161076Y0131381D01*
X0160940Y0131711D01*
X0160795Y0132038D01*
X0160642Y0132361D01*
X0160482Y0132681D01*
X0160314Y0132996D01*
X0160138Y0133308D01*
X0159955Y0133615D01*
X0159764Y0133917D01*
X0159566Y0134215D01*
X0159361Y0134508D01*
X0159149Y0134796D01*
X0158931Y0135079D01*
X0158705Y0135356D01*
X0158473Y0135628D01*
X0158234Y0135895D01*
X0157989Y0136155D01*
X0157737Y0136409D01*
X0157480Y0136657D01*
X0157217Y0136899D01*
X0156948Y0137135D01*
X0156673Y0137364D01*
X0156393Y0137586D01*
X0156107Y0137801D01*
X0155817Y0138010D01*
X0155521Y0138211D01*
X0155221Y0138405D01*
X0154916Y0138592D01*
X0154607Y0138771D01*
X0154293Y0138943D01*
X0153975Y0139107D01*
X0153654Y0139264D01*
X0153329Y0139412D01*
X0153000Y0139553D01*
X0152668Y0139686D01*
X0152333Y0139811D01*
X0151995Y0139927D01*
X0151654Y0140036D01*
X0151311Y0140136D01*
X0150965Y0140228D01*
X0150618Y0140311D01*
X0150268Y0140386D01*
X0149917Y0140453D01*
X0149564Y0140511D01*
X0149210Y0140560D01*
X0148854Y0140601D01*
X0148498Y0140634D01*
X0148142Y0140657D01*
X0147784Y0140672D01*
X0147427Y0140679D01*
X0147069Y0140677D01*
X0146712Y0140666D01*
X0146355Y0140646D01*
X0146354Y0140646D02*
X0026276Y0140646D01*
X0025943Y0140642D01*
X0025610Y0140630D01*
X0025278Y0140610D01*
X0024946Y0140582D01*
X0024615Y0140546D01*
X0024285Y0140501D01*
X0023956Y0140449D01*
X0023628Y0140389D01*
X0023302Y0140321D01*
X0022978Y0140246D01*
X0022656Y0140162D01*
X0022336Y0140071D01*
X0022018Y0139972D01*
X0021702Y0139865D01*
X0021390Y0139751D01*
X0021080Y0139629D01*
X0020773Y0139499D01*
X0020469Y0139363D01*
X0020169Y0139219D01*
X0019872Y0139068D01*
X0019579Y0138909D01*
X0019290Y0138744D01*
X0019005Y0138572D01*
X0018724Y0138393D01*
X0018448Y0138207D01*
X0018176Y0138014D01*
X0017909Y0137815D01*
X0017647Y0137610D01*
X0017390Y0137398D01*
X0017138Y0137180D01*
X0016892Y0136957D01*
X0016651Y0136727D01*
X0016415Y0136491D01*
X0016185Y0136250D01*
X0015962Y0136004D01*
X0015744Y0135752D01*
X0015532Y0135495D01*
X0015327Y0135233D01*
X0015128Y0134966D01*
X0014935Y0134694D01*
X0014749Y0134418D01*
X0014570Y0134137D01*
X0014398Y0133852D01*
X0014233Y0133563D01*
X0014074Y0133270D01*
X0013923Y0132973D01*
X0013779Y0132673D01*
X0013643Y0132369D01*
X0013513Y0132062D01*
X0013391Y0131752D01*
X0013277Y0131440D01*
X0013170Y0131124D01*
X0013071Y0130806D01*
X0012980Y0130486D01*
X0012896Y0130164D01*
X0012821Y0129840D01*
X0012753Y0129514D01*
X0012693Y0129186D01*
X0012641Y0128857D01*
X0012596Y0128527D01*
X0012560Y0128196D01*
X0012532Y0127864D01*
X0012512Y0127532D01*
X0012500Y0127199D01*
X0012496Y0126866D01*
X0012496Y0024622D01*
X0012500Y0024289D01*
X0012512Y0023956D01*
X0012532Y0023624D01*
X0012560Y0023292D01*
X0012596Y0022961D01*
X0012641Y0022631D01*
X0012693Y0022302D01*
X0012753Y0021974D01*
X0012821Y0021648D01*
X0012896Y0021324D01*
X0012980Y0021002D01*
X0013071Y0020682D01*
X0013170Y0020364D01*
X0013277Y0020048D01*
X0013391Y0019736D01*
X0013513Y0019426D01*
X0013643Y0019119D01*
X0013779Y0018815D01*
X0013923Y0018515D01*
X0014074Y0018218D01*
X0014233Y0017925D01*
X0014398Y0017636D01*
X0014570Y0017351D01*
X0014749Y0017070D01*
X0014935Y0016794D01*
X0015128Y0016522D01*
X0015327Y0016255D01*
X0015532Y0015993D01*
X0015744Y0015736D01*
X0015962Y0015484D01*
X0016185Y0015238D01*
X0016415Y0014997D01*
X0016651Y0014761D01*
X0016892Y0014531D01*
X0017138Y0014308D01*
X0017390Y0014090D01*
X0017647Y0013878D01*
X0017909Y0013673D01*
X0018176Y0013474D01*
X0018448Y0013281D01*
X0018724Y0013095D01*
X0019005Y0012916D01*
X0019290Y0012744D01*
X0019579Y0012579D01*
X0019872Y0012420D01*
X0020169Y0012269D01*
X0020469Y0012125D01*
X0020773Y0011989D01*
X0021080Y0011859D01*
X0021390Y0011737D01*
X0021702Y0011623D01*
X0022018Y0011516D01*
X0022336Y0011417D01*
X0022656Y0011326D01*
X0022978Y0011242D01*
X0023302Y0011167D01*
X0023628Y0011099D01*
X0023956Y0011039D01*
X0024285Y0010987D01*
X0024615Y0010942D01*
X0024946Y0010906D01*
X0025278Y0010878D01*
X0025610Y0010858D01*
X0025943Y0010846D01*
X0026276Y0010842D01*
D11*
X0026994Y0057499D02*
X0028016Y0060566D01*
X0029039Y0057499D01*
X0030061Y0062099D01*
X0031705Y0062099D02*
X0032727Y0062099D01*
X0032216Y0062099D02*
X0032216Y0057499D01*
X0031705Y0057499D02*
X0032727Y0057499D01*
X0034405Y0057499D02*
X0035427Y0057499D01*
X0034916Y0057499D02*
X0034916Y0062099D01*
X0034405Y0062099D02*
X0035427Y0062099D01*
X0037225Y0061077D02*
X0037225Y0058521D01*
X0037226Y0058521D02*
X0037228Y0058459D01*
X0037233Y0058398D01*
X0037243Y0058337D01*
X0037256Y0058276D01*
X0037272Y0058217D01*
X0037292Y0058159D01*
X0037316Y0058102D01*
X0037343Y0058046D01*
X0037373Y0057992D01*
X0037407Y0057940D01*
X0037443Y0057891D01*
X0037483Y0057843D01*
X0037525Y0057798D01*
X0037570Y0057756D01*
X0037618Y0057716D01*
X0037667Y0057680D01*
X0037719Y0057646D01*
X0037773Y0057616D01*
X0037829Y0057589D01*
X0037886Y0057565D01*
X0037944Y0057545D01*
X0038003Y0057529D01*
X0038064Y0057516D01*
X0038125Y0057506D01*
X0038186Y0057501D01*
X0038248Y0057499D01*
X0039270Y0057499D01*
X0037226Y0061077D02*
X0037228Y0061139D01*
X0037233Y0061200D01*
X0037243Y0061261D01*
X0037256Y0061322D01*
X0037272Y0061381D01*
X0037292Y0061439D01*
X0037316Y0061496D01*
X0037343Y0061552D01*
X0037373Y0061606D01*
X0037407Y0061658D01*
X0037443Y0061707D01*
X0037483Y0061755D01*
X0037525Y0061800D01*
X0037570Y0061842D01*
X0037618Y0061881D01*
X0037667Y0061918D01*
X0037719Y0061952D01*
X0037773Y0061982D01*
X0037829Y0062009D01*
X0037886Y0062033D01*
X0037944Y0062053D01*
X0038003Y0062069D01*
X0038064Y0062082D01*
X0038125Y0062092D01*
X0038186Y0062097D01*
X0038248Y0062099D01*
X0039270Y0062099D01*
X0026994Y0057499D02*
X0025972Y0062099D01*
X0024307Y0060821D02*
X0024307Y0058777D01*
X0023796Y0058521D02*
X0024818Y0057499D01*
X0024307Y0058777D02*
X0024305Y0058707D01*
X0024299Y0058636D01*
X0024290Y0058567D01*
X0024276Y0058498D01*
X0024259Y0058429D01*
X0024238Y0058362D01*
X0024213Y0058296D01*
X0024185Y0058232D01*
X0024153Y0058169D01*
X0024118Y0058108D01*
X0024079Y0058049D01*
X0024038Y0057992D01*
X0023993Y0057938D01*
X0023945Y0057886D01*
X0023895Y0057837D01*
X0023841Y0057790D01*
X0023786Y0057747D01*
X0023728Y0057707D01*
X0023668Y0057670D01*
X0023606Y0057637D01*
X0023542Y0057607D01*
X0023477Y0057580D01*
X0023411Y0057557D01*
X0023343Y0057538D01*
X0023274Y0057523D01*
X0023205Y0057511D01*
X0023135Y0057503D01*
X0023064Y0057499D01*
X0022994Y0057499D01*
X0022923Y0057503D01*
X0022853Y0057511D01*
X0022784Y0057523D01*
X0022715Y0057538D01*
X0022647Y0057557D01*
X0022581Y0057580D01*
X0022516Y0057607D01*
X0022452Y0057637D01*
X0022390Y0057670D01*
X0022330Y0057707D01*
X0022272Y0057747D01*
X0022217Y0057790D01*
X0022163Y0057837D01*
X0022113Y0057886D01*
X0022065Y0057938D01*
X0022020Y0057992D01*
X0021979Y0058049D01*
X0021940Y0058108D01*
X0021905Y0058169D01*
X0021873Y0058232D01*
X0021845Y0058296D01*
X0021820Y0058362D01*
X0021799Y0058429D01*
X0021782Y0058498D01*
X0021768Y0058567D01*
X0021759Y0058636D01*
X0021753Y0058707D01*
X0021751Y0058777D01*
X0021751Y0060821D01*
X0021753Y0060891D01*
X0021759Y0060962D01*
X0021768Y0061031D01*
X0021782Y0061100D01*
X0021799Y0061169D01*
X0021820Y0061236D01*
X0021845Y0061302D01*
X0021873Y0061366D01*
X0021905Y0061429D01*
X0021940Y0061490D01*
X0021979Y0061549D01*
X0022020Y0061606D01*
X0022065Y0061660D01*
X0022113Y0061712D01*
X0022163Y0061761D01*
X0022217Y0061808D01*
X0022272Y0061851D01*
X0022330Y0061891D01*
X0022390Y0061928D01*
X0022452Y0061961D01*
X0022516Y0061991D01*
X0022581Y0062018D01*
X0022647Y0062041D01*
X0022715Y0062060D01*
X0022784Y0062075D01*
X0022853Y0062087D01*
X0022923Y0062095D01*
X0022994Y0062099D01*
X0023064Y0062099D01*
X0023135Y0062095D01*
X0023205Y0062087D01*
X0023274Y0062075D01*
X0023343Y0062060D01*
X0023411Y0062041D01*
X0023477Y0062018D01*
X0023542Y0061991D01*
X0023606Y0061961D01*
X0023668Y0061928D01*
X0023728Y0061891D01*
X0023786Y0061851D01*
X0023841Y0061808D01*
X0023895Y0061761D01*
X0023945Y0061712D01*
X0023993Y0061660D01*
X0024038Y0061606D01*
X0024079Y0061549D01*
X0024118Y0061490D01*
X0024153Y0061429D01*
X0024185Y0061366D01*
X0024213Y0061302D01*
X0024238Y0061236D01*
X0024259Y0061169D01*
X0024276Y0061100D01*
X0024290Y0061031D01*
X0024299Y0060962D01*
X0024305Y0060891D01*
X0024307Y0060821D01*
X0071751Y0095688D02*
X0074307Y0095688D01*
X0078424Y0096327D02*
X0078472Y0096431D01*
X0078518Y0096536D01*
X0078560Y0096642D01*
X0078599Y0096750D01*
X0078635Y0096859D01*
X0078667Y0096969D01*
X0078697Y0097080D01*
X0078722Y0097192D01*
X0078745Y0097304D01*
X0078764Y0097417D01*
X0078779Y0097531D01*
X0078791Y0097645D01*
X0078800Y0097759D01*
X0078805Y0097873D01*
X0078807Y0097988D01*
X0076251Y0097988D02*
X0076253Y0098103D01*
X0076258Y0098217D01*
X0076267Y0098331D01*
X0076279Y0098445D01*
X0076294Y0098559D01*
X0076313Y0098672D01*
X0076336Y0098784D01*
X0076361Y0098896D01*
X0076391Y0099007D01*
X0076423Y0099117D01*
X0076459Y0099226D01*
X0076498Y0099334D01*
X0076540Y0099440D01*
X0076586Y0099545D01*
X0076634Y0099649D01*
X0077529Y0100289D02*
X0077588Y0100287D01*
X0077646Y0100282D01*
X0077704Y0100273D01*
X0077761Y0100260D01*
X0077818Y0100244D01*
X0077873Y0100224D01*
X0077927Y0100201D01*
X0077979Y0100175D01*
X0078030Y0100145D01*
X0078079Y0100113D01*
X0078126Y0100077D01*
X0078170Y0100039D01*
X0078212Y0099998D01*
X0078251Y0099954D01*
X0078288Y0099908D01*
X0078321Y0099860D01*
X0078352Y0099810D01*
X0078379Y0099758D01*
X0078403Y0099705D01*
X0078424Y0099650D01*
X0078551Y0099266D02*
X0076507Y0096710D01*
X0077529Y0095688D02*
X0077588Y0095690D01*
X0077646Y0095695D01*
X0077704Y0095704D01*
X0077761Y0095717D01*
X0077818Y0095733D01*
X0077873Y0095753D01*
X0077927Y0095776D01*
X0077979Y0095802D01*
X0078030Y0095832D01*
X0078079Y0095864D01*
X0078126Y0095900D01*
X0078170Y0095938D01*
X0078212Y0095979D01*
X0078251Y0096023D01*
X0078288Y0096069D01*
X0078321Y0096117D01*
X0078352Y0096167D01*
X0078379Y0096219D01*
X0078403Y0096272D01*
X0078424Y0096327D01*
X0077529Y0095688D02*
X0077470Y0095690D01*
X0077412Y0095695D01*
X0077354Y0095704D01*
X0077297Y0095717D01*
X0077240Y0095733D01*
X0077185Y0095753D01*
X0077131Y0095776D01*
X0077079Y0095802D01*
X0077028Y0095832D01*
X0076979Y0095864D01*
X0076932Y0095900D01*
X0076888Y0095938D01*
X0076846Y0095979D01*
X0076807Y0096023D01*
X0076770Y0096069D01*
X0076737Y0096117D01*
X0076706Y0096167D01*
X0076679Y0096219D01*
X0076655Y0096272D01*
X0076634Y0096327D01*
X0078807Y0097988D02*
X0078805Y0098103D01*
X0078800Y0098217D01*
X0078791Y0098331D01*
X0078779Y0098445D01*
X0078764Y0098559D01*
X0078745Y0098672D01*
X0078722Y0098784D01*
X0078697Y0098896D01*
X0078667Y0099007D01*
X0078635Y0099117D01*
X0078599Y0099226D01*
X0078560Y0099334D01*
X0078518Y0099440D01*
X0078472Y0099545D01*
X0078424Y0099649D01*
X0077529Y0100289D02*
X0077470Y0100287D01*
X0077412Y0100282D01*
X0077354Y0100273D01*
X0077297Y0100260D01*
X0077240Y0100244D01*
X0077185Y0100224D01*
X0077131Y0100201D01*
X0077079Y0100175D01*
X0077028Y0100145D01*
X0076979Y0100113D01*
X0076932Y0100077D01*
X0076888Y0100039D01*
X0076846Y0099998D01*
X0076807Y0099954D01*
X0076770Y0099908D01*
X0076737Y0099860D01*
X0076706Y0099810D01*
X0076679Y0099758D01*
X0076655Y0099705D01*
X0076634Y0099650D01*
X0073923Y0098244D02*
X0071751Y0095688D01*
X0071752Y0099266D02*
X0071777Y0099336D01*
X0071805Y0099405D01*
X0071836Y0099472D01*
X0071871Y0099538D01*
X0071909Y0099601D01*
X0071951Y0099663D01*
X0071995Y0099723D01*
X0072042Y0099780D01*
X0072092Y0099835D01*
X0072145Y0099887D01*
X0072201Y0099937D01*
X0072259Y0099983D01*
X0072319Y0100027D01*
X0072381Y0100068D01*
X0072445Y0100105D01*
X0072511Y0100139D01*
X0072579Y0100170D01*
X0072648Y0100197D01*
X0072718Y0100221D01*
X0072789Y0100242D01*
X0072862Y0100258D01*
X0072935Y0100271D01*
X0073009Y0100281D01*
X0073083Y0100286D01*
X0073157Y0100288D01*
X0073224Y0100286D01*
X0073291Y0100280D01*
X0073357Y0100271D01*
X0073422Y0100257D01*
X0073487Y0100240D01*
X0073550Y0100219D01*
X0073612Y0100194D01*
X0073673Y0100166D01*
X0073732Y0100134D01*
X0073789Y0100099D01*
X0073844Y0100060D01*
X0073896Y0100019D01*
X0073946Y0099974D01*
X0073993Y0099927D01*
X0074038Y0099877D01*
X0074079Y0099825D01*
X0074118Y0099770D01*
X0074153Y0099713D01*
X0074185Y0099654D01*
X0074213Y0099593D01*
X0074238Y0099531D01*
X0074259Y0099468D01*
X0074276Y0099403D01*
X0074290Y0099338D01*
X0074299Y0099272D01*
X0074305Y0099205D01*
X0074307Y0099138D01*
X0074306Y0099138D02*
X0074304Y0099071D01*
X0074299Y0099005D01*
X0074290Y0098939D01*
X0074277Y0098873D01*
X0074261Y0098809D01*
X0074242Y0098745D01*
X0074219Y0098682D01*
X0074193Y0098621D01*
X0074163Y0098561D01*
X0074130Y0098503D01*
X0074095Y0098447D01*
X0074056Y0098393D01*
X0074014Y0098341D01*
X0073970Y0098291D01*
X0073923Y0098244D01*
X0076251Y0097988D02*
X0076253Y0097873D01*
X0076258Y0097759D01*
X0076267Y0097645D01*
X0076279Y0097531D01*
X0076294Y0097417D01*
X0076313Y0097304D01*
X0076336Y0097192D01*
X0076361Y0097080D01*
X0076391Y0096969D01*
X0076423Y0096859D01*
X0076459Y0096750D01*
X0076498Y0096642D01*
X0076540Y0096536D01*
X0076586Y0096431D01*
X0076634Y0096327D01*
X0080751Y0095688D02*
X0083307Y0095688D01*
X0085251Y0095688D02*
X0087807Y0095688D01*
X0086529Y0095688D02*
X0086529Y0100288D01*
X0085251Y0099266D01*
X0082923Y0098244D02*
X0080751Y0095688D01*
X0080752Y0099266D02*
X0080777Y0099336D01*
X0080805Y0099405D01*
X0080836Y0099472D01*
X0080871Y0099538D01*
X0080909Y0099601D01*
X0080951Y0099663D01*
X0080995Y0099723D01*
X0081042Y0099780D01*
X0081092Y0099835D01*
X0081145Y0099887D01*
X0081201Y0099937D01*
X0081259Y0099983D01*
X0081319Y0100027D01*
X0081381Y0100068D01*
X0081445Y0100105D01*
X0081511Y0100139D01*
X0081579Y0100170D01*
X0081648Y0100197D01*
X0081718Y0100221D01*
X0081789Y0100242D01*
X0081862Y0100258D01*
X0081935Y0100271D01*
X0082009Y0100281D01*
X0082083Y0100286D01*
X0082157Y0100288D01*
X0082224Y0100286D01*
X0082291Y0100280D01*
X0082357Y0100271D01*
X0082422Y0100257D01*
X0082487Y0100240D01*
X0082550Y0100219D01*
X0082612Y0100194D01*
X0082673Y0100166D01*
X0082732Y0100134D01*
X0082789Y0100099D01*
X0082844Y0100060D01*
X0082896Y0100019D01*
X0082946Y0099974D01*
X0082993Y0099927D01*
X0083038Y0099877D01*
X0083079Y0099825D01*
X0083118Y0099770D01*
X0083153Y0099713D01*
X0083185Y0099654D01*
X0083213Y0099593D01*
X0083238Y0099531D01*
X0083259Y0099468D01*
X0083276Y0099403D01*
X0083290Y0099338D01*
X0083299Y0099272D01*
X0083305Y0099205D01*
X0083307Y0099138D01*
X0083306Y0099138D02*
X0083304Y0099071D01*
X0083299Y0099005D01*
X0083290Y0098939D01*
X0083277Y0098873D01*
X0083261Y0098809D01*
X0083242Y0098745D01*
X0083219Y0098682D01*
X0083193Y0098621D01*
X0083163Y0098561D01*
X0083130Y0098503D01*
X0083095Y0098447D01*
X0083056Y0098393D01*
X0083014Y0098341D01*
X0082970Y0098291D01*
X0082923Y0098244D01*
X0089796Y0097477D02*
X0092862Y0097477D01*
X0097024Y0096327D02*
X0097072Y0096431D01*
X0097118Y0096536D01*
X0097160Y0096642D01*
X0097199Y0096750D01*
X0097235Y0096859D01*
X0097267Y0096969D01*
X0097297Y0097080D01*
X0097322Y0097192D01*
X0097345Y0097304D01*
X0097364Y0097417D01*
X0097379Y0097531D01*
X0097391Y0097645D01*
X0097400Y0097759D01*
X0097405Y0097873D01*
X0097407Y0097988D01*
X0094851Y0097988D02*
X0094853Y0098103D01*
X0094858Y0098217D01*
X0094867Y0098331D01*
X0094879Y0098445D01*
X0094894Y0098559D01*
X0094913Y0098672D01*
X0094936Y0098784D01*
X0094961Y0098896D01*
X0094991Y0099007D01*
X0095023Y0099117D01*
X0095059Y0099226D01*
X0095098Y0099334D01*
X0095140Y0099440D01*
X0095186Y0099545D01*
X0095234Y0099649D01*
X0096129Y0100289D02*
X0096188Y0100287D01*
X0096246Y0100282D01*
X0096304Y0100273D01*
X0096361Y0100260D01*
X0096418Y0100244D01*
X0096473Y0100224D01*
X0096527Y0100201D01*
X0096579Y0100175D01*
X0096630Y0100145D01*
X0096679Y0100113D01*
X0096726Y0100077D01*
X0096770Y0100039D01*
X0096812Y0099998D01*
X0096851Y0099954D01*
X0096888Y0099908D01*
X0096921Y0099860D01*
X0096952Y0099810D01*
X0096979Y0099758D01*
X0097003Y0099705D01*
X0097024Y0099650D01*
X0097151Y0099266D02*
X0095107Y0096710D01*
X0096129Y0095688D02*
X0096188Y0095690D01*
X0096246Y0095695D01*
X0096304Y0095704D01*
X0096361Y0095717D01*
X0096418Y0095733D01*
X0096473Y0095753D01*
X0096527Y0095776D01*
X0096579Y0095802D01*
X0096630Y0095832D01*
X0096679Y0095864D01*
X0096726Y0095900D01*
X0096770Y0095938D01*
X0096812Y0095979D01*
X0096851Y0096023D01*
X0096888Y0096069D01*
X0096921Y0096117D01*
X0096952Y0096167D01*
X0096979Y0096219D01*
X0097003Y0096272D01*
X0097024Y0096327D01*
X0096129Y0095688D02*
X0096070Y0095690D01*
X0096012Y0095695D01*
X0095954Y0095704D01*
X0095897Y0095717D01*
X0095840Y0095733D01*
X0095785Y0095753D01*
X0095731Y0095776D01*
X0095679Y0095802D01*
X0095628Y0095832D01*
X0095579Y0095864D01*
X0095532Y0095900D01*
X0095488Y0095938D01*
X0095446Y0095979D01*
X0095407Y0096023D01*
X0095370Y0096069D01*
X0095337Y0096117D01*
X0095306Y0096167D01*
X0095279Y0096219D01*
X0095255Y0096272D01*
X0095234Y0096327D01*
X0097407Y0097988D02*
X0097405Y0098103D01*
X0097400Y0098217D01*
X0097391Y0098331D01*
X0097379Y0098445D01*
X0097364Y0098559D01*
X0097345Y0098672D01*
X0097322Y0098784D01*
X0097297Y0098896D01*
X0097267Y0099007D01*
X0097235Y0099117D01*
X0097199Y0099226D01*
X0097160Y0099334D01*
X0097118Y0099440D01*
X0097072Y0099545D01*
X0097024Y0099649D01*
X0096129Y0100289D02*
X0096070Y0100287D01*
X0096012Y0100282D01*
X0095954Y0100273D01*
X0095897Y0100260D01*
X0095840Y0100244D01*
X0095785Y0100224D01*
X0095731Y0100201D01*
X0095679Y0100175D01*
X0095628Y0100145D01*
X0095579Y0100113D01*
X0095532Y0100077D01*
X0095488Y0100039D01*
X0095446Y0099998D01*
X0095407Y0099954D01*
X0095370Y0099908D01*
X0095337Y0099860D01*
X0095306Y0099810D01*
X0095279Y0099758D01*
X0095255Y0099705D01*
X0095234Y0099650D01*
X0094851Y0097988D02*
X0094853Y0097873D01*
X0094858Y0097759D01*
X0094867Y0097645D01*
X0094879Y0097531D01*
X0094894Y0097417D01*
X0094913Y0097304D01*
X0094936Y0097192D01*
X0094961Y0097080D01*
X0094991Y0096969D01*
X0095023Y0096859D01*
X0095059Y0096750D01*
X0095098Y0096642D01*
X0095140Y0096536D01*
X0095186Y0096431D01*
X0095234Y0096327D01*
X0099351Y0098755D02*
X0099351Y0099010D01*
X0099351Y0098755D02*
X0099353Y0098693D01*
X0099358Y0098632D01*
X0099368Y0098571D01*
X0099381Y0098510D01*
X0099397Y0098451D01*
X0099417Y0098393D01*
X0099441Y0098336D01*
X0099468Y0098280D01*
X0099498Y0098226D01*
X0099532Y0098174D01*
X0099568Y0098125D01*
X0099608Y0098077D01*
X0099650Y0098032D01*
X0099695Y0097990D01*
X0099743Y0097950D01*
X0099792Y0097914D01*
X0099844Y0097880D01*
X0099898Y0097850D01*
X0099954Y0097823D01*
X0100011Y0097799D01*
X0100069Y0097779D01*
X0100128Y0097763D01*
X0100189Y0097750D01*
X0100250Y0097740D01*
X0100311Y0097735D01*
X0100373Y0097733D01*
X0101907Y0097733D01*
X0101907Y0099010D01*
X0101905Y0099080D01*
X0101899Y0099151D01*
X0101890Y0099220D01*
X0101876Y0099289D01*
X0101859Y0099358D01*
X0101838Y0099425D01*
X0101813Y0099491D01*
X0101785Y0099555D01*
X0101753Y0099618D01*
X0101718Y0099679D01*
X0101679Y0099738D01*
X0101638Y0099795D01*
X0101593Y0099849D01*
X0101545Y0099901D01*
X0101495Y0099950D01*
X0101441Y0099997D01*
X0101386Y0100040D01*
X0101328Y0100080D01*
X0101268Y0100117D01*
X0101206Y0100150D01*
X0101142Y0100180D01*
X0101077Y0100207D01*
X0101011Y0100230D01*
X0100943Y0100249D01*
X0100874Y0100264D01*
X0100805Y0100276D01*
X0100735Y0100284D01*
X0100664Y0100288D01*
X0100594Y0100288D01*
X0100523Y0100284D01*
X0100453Y0100276D01*
X0100384Y0100264D01*
X0100315Y0100249D01*
X0100247Y0100230D01*
X0100181Y0100207D01*
X0100116Y0100180D01*
X0100052Y0100150D01*
X0099990Y0100117D01*
X0099930Y0100080D01*
X0099872Y0100040D01*
X0099817Y0099997D01*
X0099763Y0099950D01*
X0099713Y0099901D01*
X0099665Y0099849D01*
X0099620Y0099795D01*
X0099579Y0099738D01*
X0099540Y0099679D01*
X0099505Y0099618D01*
X0099473Y0099555D01*
X0099445Y0099491D01*
X0099420Y0099425D01*
X0099399Y0099358D01*
X0099382Y0099289D01*
X0099368Y0099220D01*
X0099359Y0099151D01*
X0099353Y0099080D01*
X0099351Y0099010D01*
X0101906Y0097733D02*
X0101904Y0097644D01*
X0101898Y0097555D01*
X0101889Y0097466D01*
X0101875Y0097378D01*
X0101858Y0097291D01*
X0101836Y0097204D01*
X0101811Y0097118D01*
X0101783Y0097034D01*
X0101750Y0096951D01*
X0101714Y0096869D01*
X0101675Y0096789D01*
X0101632Y0096711D01*
X0101586Y0096635D01*
X0101536Y0096561D01*
X0101484Y0096489D01*
X0101428Y0096419D01*
X0101369Y0096352D01*
X0101307Y0096288D01*
X0101243Y0096226D01*
X0101176Y0096167D01*
X0101106Y0096111D01*
X0101034Y0096059D01*
X0100960Y0096009D01*
X0100884Y0095963D01*
X0100806Y0095920D01*
X0100726Y0095881D01*
X0100644Y0095845D01*
X0100561Y0095812D01*
X0100477Y0095784D01*
X0100391Y0095759D01*
X0100304Y0095737D01*
X0100217Y0095720D01*
X0100129Y0095706D01*
X0100040Y0095697D01*
X0099951Y0095691D01*
X0099862Y0095689D01*
X0103896Y0097477D02*
X0106962Y0097477D01*
X0108951Y0095688D02*
X0111507Y0095688D01*
X0108951Y0095688D02*
X0111123Y0098244D01*
X0110357Y0100288D02*
X0110283Y0100286D01*
X0110209Y0100281D01*
X0110135Y0100271D01*
X0110062Y0100258D01*
X0109989Y0100242D01*
X0109918Y0100221D01*
X0109848Y0100197D01*
X0109779Y0100170D01*
X0109711Y0100139D01*
X0109645Y0100105D01*
X0109581Y0100068D01*
X0109519Y0100027D01*
X0109459Y0099983D01*
X0109401Y0099937D01*
X0109345Y0099887D01*
X0109292Y0099835D01*
X0109242Y0099780D01*
X0109195Y0099723D01*
X0109151Y0099663D01*
X0109109Y0099601D01*
X0109071Y0099538D01*
X0109036Y0099472D01*
X0109005Y0099405D01*
X0108977Y0099336D01*
X0108952Y0099266D01*
X0111123Y0098244D02*
X0111170Y0098291D01*
X0111214Y0098341D01*
X0111256Y0098393D01*
X0111295Y0098447D01*
X0111330Y0098503D01*
X0111363Y0098561D01*
X0111393Y0098621D01*
X0111419Y0098682D01*
X0111442Y0098745D01*
X0111461Y0098809D01*
X0111477Y0098873D01*
X0111490Y0098939D01*
X0111499Y0099005D01*
X0111504Y0099071D01*
X0111506Y0099138D01*
X0111507Y0099138D02*
X0111505Y0099205D01*
X0111499Y0099272D01*
X0111490Y0099338D01*
X0111476Y0099403D01*
X0111459Y0099468D01*
X0111438Y0099531D01*
X0111413Y0099593D01*
X0111385Y0099654D01*
X0111353Y0099713D01*
X0111318Y0099770D01*
X0111279Y0099825D01*
X0111238Y0099877D01*
X0111193Y0099927D01*
X0111146Y0099974D01*
X0111096Y0100019D01*
X0111044Y0100060D01*
X0110989Y0100099D01*
X0110932Y0100134D01*
X0110873Y0100166D01*
X0110812Y0100194D01*
X0110750Y0100219D01*
X0110687Y0100240D01*
X0110622Y0100257D01*
X0110557Y0100271D01*
X0110491Y0100280D01*
X0110424Y0100286D01*
X0110357Y0100288D01*
X0113451Y0100288D02*
X0113451Y0099777D01*
X0113451Y0100288D02*
X0116007Y0100288D01*
X0114729Y0095688D01*
X0100216Y0103188D02*
X0100161Y0103190D01*
X0100107Y0103196D01*
X0100053Y0103206D01*
X0100000Y0103219D01*
X0099948Y0103236D01*
X0099897Y0103257D01*
X0099848Y0103282D01*
X0099801Y0103310D01*
X0099756Y0103341D01*
X0099714Y0103375D01*
X0099674Y0103413D01*
X0099636Y0103453D01*
X0099602Y0103495D01*
X0099571Y0103540D01*
X0099543Y0103587D01*
X0099518Y0103636D01*
X0099497Y0103687D01*
X0099480Y0103739D01*
X0099467Y0103792D01*
X0099457Y0103846D01*
X0099451Y0103900D01*
X0099449Y0103955D01*
X0099449Y0107788D01*
X0096618Y0106255D02*
X0095340Y0106255D01*
X0096618Y0106255D02*
X0096673Y0106253D01*
X0096727Y0106247D01*
X0096781Y0106237D01*
X0096834Y0106224D01*
X0096886Y0106207D01*
X0096937Y0106186D01*
X0096986Y0106161D01*
X0097033Y0106133D01*
X0097078Y0106102D01*
X0097120Y0106068D01*
X0097160Y0106030D01*
X0097198Y0105990D01*
X0097232Y0105948D01*
X0097263Y0105903D01*
X0097291Y0105856D01*
X0097316Y0105807D01*
X0097337Y0105756D01*
X0097354Y0105704D01*
X0097367Y0105651D01*
X0097377Y0105597D01*
X0097383Y0105543D01*
X0097385Y0105488D01*
X0097384Y0105488D02*
X0097384Y0103188D01*
X0095340Y0103188D02*
X0095340Y0107788D01*
X0092395Y0106255D02*
X0091372Y0106255D01*
X0092395Y0106255D02*
X0092450Y0106253D01*
X0092504Y0106247D01*
X0092558Y0106237D01*
X0092611Y0106224D01*
X0092663Y0106207D01*
X0092714Y0106186D01*
X0092763Y0106161D01*
X0092810Y0106133D01*
X0092855Y0106102D01*
X0092897Y0106068D01*
X0092937Y0106030D01*
X0092975Y0105990D01*
X0093009Y0105948D01*
X0093040Y0105903D01*
X0093068Y0105856D01*
X0093093Y0105807D01*
X0093114Y0105756D01*
X0093131Y0105704D01*
X0093144Y0105651D01*
X0093154Y0105597D01*
X0093160Y0105543D01*
X0093162Y0105488D01*
X0093161Y0105488D02*
X0093161Y0103188D01*
X0092011Y0103188D01*
X0092011Y0103189D02*
X0091953Y0103191D01*
X0091894Y0103197D01*
X0091837Y0103206D01*
X0091780Y0103219D01*
X0091724Y0103236D01*
X0091669Y0103257D01*
X0091616Y0103281D01*
X0091564Y0103309D01*
X0091514Y0103340D01*
X0091467Y0103374D01*
X0091422Y0103411D01*
X0091379Y0103451D01*
X0091339Y0103494D01*
X0091302Y0103539D01*
X0091268Y0103586D01*
X0091237Y0103636D01*
X0091209Y0103688D01*
X0091185Y0103741D01*
X0091164Y0103796D01*
X0091147Y0103852D01*
X0091134Y0103909D01*
X0091125Y0103966D01*
X0091119Y0104025D01*
X0091117Y0104083D01*
X0091119Y0104141D01*
X0091125Y0104200D01*
X0091134Y0104257D01*
X0091147Y0104314D01*
X0091164Y0104370D01*
X0091185Y0104425D01*
X0091209Y0104478D01*
X0091237Y0104530D01*
X0091268Y0104580D01*
X0091302Y0104627D01*
X0091339Y0104672D01*
X0091379Y0104715D01*
X0091422Y0104755D01*
X0091467Y0104792D01*
X0091514Y0104826D01*
X0091564Y0104857D01*
X0091616Y0104885D01*
X0091669Y0104909D01*
X0091724Y0104930D01*
X0091780Y0104947D01*
X0091837Y0104960D01*
X0091894Y0104969D01*
X0091953Y0104975D01*
X0092011Y0104977D01*
X0093161Y0104977D01*
X0089111Y0106255D02*
X0087834Y0106255D01*
X0087779Y0106253D01*
X0087725Y0106247D01*
X0087671Y0106237D01*
X0087618Y0106224D01*
X0087566Y0106207D01*
X0087515Y0106186D01*
X0087466Y0106161D01*
X0087419Y0106133D01*
X0087374Y0106102D01*
X0087332Y0106068D01*
X0087292Y0106030D01*
X0087254Y0105990D01*
X0087220Y0105948D01*
X0087189Y0105903D01*
X0087161Y0105856D01*
X0087136Y0105807D01*
X0087115Y0105756D01*
X0087098Y0105704D01*
X0087085Y0105651D01*
X0087075Y0105597D01*
X0087069Y0105543D01*
X0087067Y0105488D01*
X0087067Y0103955D01*
X0087069Y0103900D01*
X0087075Y0103846D01*
X0087085Y0103792D01*
X0087098Y0103739D01*
X0087115Y0103687D01*
X0087136Y0103636D01*
X0087161Y0103587D01*
X0087189Y0103540D01*
X0087220Y0103495D01*
X0087254Y0103453D01*
X0087292Y0103413D01*
X0087332Y0103375D01*
X0087374Y0103341D01*
X0087419Y0103310D01*
X0087466Y0103282D01*
X0087515Y0103257D01*
X0087566Y0103236D01*
X0087618Y0103219D01*
X0087671Y0103206D01*
X0087725Y0103196D01*
X0087779Y0103190D01*
X0087834Y0103188D01*
X0089111Y0103188D01*
X0089111Y0107788D01*
X0087977Y0109155D02*
X0089511Y0113755D01*
X0087466Y0113755D02*
X0088488Y0110688D01*
X0085611Y0110688D02*
X0085611Y0112988D01*
X0085609Y0113043D01*
X0085603Y0113097D01*
X0085593Y0113151D01*
X0085580Y0113204D01*
X0085563Y0113256D01*
X0085542Y0113307D01*
X0085517Y0113356D01*
X0085489Y0113403D01*
X0085458Y0113448D01*
X0085424Y0113490D01*
X0085386Y0113530D01*
X0085346Y0113568D01*
X0085304Y0113602D01*
X0085259Y0113633D01*
X0085212Y0113661D01*
X0085163Y0113686D01*
X0085112Y0113707D01*
X0085060Y0113724D01*
X0085007Y0113737D01*
X0084953Y0113747D01*
X0084899Y0113753D01*
X0084844Y0113755D01*
X0083566Y0113755D01*
X0083566Y0110688D01*
X0081411Y0110688D02*
X0081411Y0112988D01*
X0081409Y0113043D01*
X0081403Y0113097D01*
X0081393Y0113151D01*
X0081380Y0113204D01*
X0081363Y0113256D01*
X0081342Y0113307D01*
X0081317Y0113356D01*
X0081289Y0113403D01*
X0081258Y0113448D01*
X0081224Y0113490D01*
X0081186Y0113530D01*
X0081146Y0113568D01*
X0081104Y0113602D01*
X0081059Y0113633D01*
X0081012Y0113661D01*
X0080963Y0113686D01*
X0080912Y0113707D01*
X0080860Y0113724D01*
X0080807Y0113737D01*
X0080753Y0113747D01*
X0080699Y0113753D01*
X0080644Y0113755D01*
X0079366Y0113755D01*
X0079366Y0110688D01*
X0077361Y0111710D02*
X0077361Y0112733D01*
X0077360Y0112733D02*
X0077358Y0112796D01*
X0077352Y0112859D01*
X0077343Y0112921D01*
X0077329Y0112982D01*
X0077312Y0113043D01*
X0077291Y0113102D01*
X0077266Y0113160D01*
X0077238Y0113217D01*
X0077207Y0113271D01*
X0077172Y0113323D01*
X0077134Y0113374D01*
X0077093Y0113422D01*
X0077049Y0113467D01*
X0077003Y0113509D01*
X0076954Y0113549D01*
X0076903Y0113585D01*
X0076849Y0113618D01*
X0076794Y0113648D01*
X0076736Y0113674D01*
X0076678Y0113697D01*
X0076618Y0113716D01*
X0076557Y0113731D01*
X0076495Y0113743D01*
X0076432Y0113751D01*
X0076369Y0113755D01*
X0076307Y0113755D01*
X0076244Y0113751D01*
X0076181Y0113743D01*
X0076119Y0113731D01*
X0076058Y0113716D01*
X0075998Y0113697D01*
X0075940Y0113674D01*
X0075882Y0113648D01*
X0075827Y0113618D01*
X0075773Y0113585D01*
X0075722Y0113549D01*
X0075673Y0113509D01*
X0075627Y0113467D01*
X0075583Y0113422D01*
X0075542Y0113374D01*
X0075504Y0113323D01*
X0075469Y0113271D01*
X0075438Y0113217D01*
X0075410Y0113160D01*
X0075385Y0113102D01*
X0075364Y0113043D01*
X0075347Y0112982D01*
X0075333Y0112921D01*
X0075324Y0112859D01*
X0075318Y0112796D01*
X0075316Y0112733D01*
X0075316Y0111710D01*
X0075318Y0111647D01*
X0075324Y0111584D01*
X0075333Y0111522D01*
X0075347Y0111461D01*
X0075364Y0111400D01*
X0075385Y0111341D01*
X0075410Y0111283D01*
X0075438Y0111226D01*
X0075469Y0111172D01*
X0075504Y0111120D01*
X0075542Y0111069D01*
X0075583Y0111021D01*
X0075627Y0110976D01*
X0075673Y0110934D01*
X0075722Y0110894D01*
X0075773Y0110858D01*
X0075827Y0110825D01*
X0075882Y0110795D01*
X0075940Y0110769D01*
X0075998Y0110746D01*
X0076058Y0110727D01*
X0076119Y0110712D01*
X0076181Y0110700D01*
X0076244Y0110692D01*
X0076307Y0110688D01*
X0076369Y0110688D01*
X0076432Y0110692D01*
X0076495Y0110700D01*
X0076557Y0110712D01*
X0076618Y0110727D01*
X0076678Y0110746D01*
X0076736Y0110769D01*
X0076794Y0110795D01*
X0076849Y0110825D01*
X0076903Y0110858D01*
X0076954Y0110894D01*
X0077003Y0110934D01*
X0077049Y0110976D01*
X0077093Y0111021D01*
X0077134Y0111069D01*
X0077172Y0111120D01*
X0077207Y0111172D01*
X0077238Y0111226D01*
X0077266Y0111283D01*
X0077291Y0111341D01*
X0077312Y0111400D01*
X0077329Y0111461D01*
X0077343Y0111522D01*
X0077352Y0111584D01*
X0077358Y0111647D01*
X0077360Y0111710D01*
X0073285Y0111710D02*
X0073285Y0115288D01*
X0073284Y0111710D02*
X0073282Y0111648D01*
X0073277Y0111587D01*
X0073267Y0111526D01*
X0073254Y0111465D01*
X0073238Y0111406D01*
X0073218Y0111348D01*
X0073194Y0111291D01*
X0073167Y0111235D01*
X0073137Y0111181D01*
X0073103Y0111129D01*
X0073067Y0111080D01*
X0073027Y0111032D01*
X0072985Y0110987D01*
X0072940Y0110945D01*
X0072892Y0110905D01*
X0072843Y0110869D01*
X0072791Y0110835D01*
X0072737Y0110805D01*
X0072681Y0110778D01*
X0072624Y0110754D01*
X0072566Y0110734D01*
X0072507Y0110718D01*
X0072446Y0110705D01*
X0072385Y0110695D01*
X0072324Y0110690D01*
X0072262Y0110688D01*
X0071751Y0110688D01*
X0071751Y0107788D02*
X0073029Y0107788D01*
X0073092Y0107786D01*
X0073155Y0107780D01*
X0073217Y0107771D01*
X0073278Y0107757D01*
X0073339Y0107740D01*
X0073398Y0107719D01*
X0073456Y0107694D01*
X0073513Y0107666D01*
X0073567Y0107635D01*
X0073619Y0107600D01*
X0073670Y0107562D01*
X0073718Y0107521D01*
X0073763Y0107477D01*
X0073805Y0107431D01*
X0073845Y0107382D01*
X0073881Y0107331D01*
X0073914Y0107277D01*
X0073944Y0107222D01*
X0073970Y0107164D01*
X0073993Y0107106D01*
X0074012Y0107046D01*
X0074027Y0106985D01*
X0074039Y0106923D01*
X0074047Y0106860D01*
X0074051Y0106797D01*
X0074051Y0106735D01*
X0074047Y0106672D01*
X0074039Y0106609D01*
X0074027Y0106547D01*
X0074012Y0106486D01*
X0073993Y0106426D01*
X0073970Y0106368D01*
X0073944Y0106310D01*
X0073914Y0106255D01*
X0073881Y0106201D01*
X0073845Y0106150D01*
X0073805Y0106101D01*
X0073763Y0106055D01*
X0073718Y0106011D01*
X0073670Y0105970D01*
X0073619Y0105932D01*
X0073567Y0105897D01*
X0073513Y0105866D01*
X0073456Y0105838D01*
X0073398Y0105813D01*
X0073339Y0105792D01*
X0073278Y0105775D01*
X0073217Y0105761D01*
X0073155Y0105752D01*
X0073092Y0105746D01*
X0073029Y0105744D01*
X0071751Y0105744D01*
X0073029Y0105744D02*
X0073099Y0105742D01*
X0073170Y0105736D01*
X0073239Y0105727D01*
X0073308Y0105713D01*
X0073377Y0105696D01*
X0073444Y0105675D01*
X0073510Y0105650D01*
X0073574Y0105622D01*
X0073637Y0105590D01*
X0073698Y0105555D01*
X0073757Y0105516D01*
X0073814Y0105475D01*
X0073868Y0105430D01*
X0073920Y0105382D01*
X0073969Y0105332D01*
X0074016Y0105278D01*
X0074059Y0105223D01*
X0074099Y0105165D01*
X0074136Y0105105D01*
X0074169Y0105043D01*
X0074199Y0104979D01*
X0074226Y0104914D01*
X0074249Y0104848D01*
X0074268Y0104780D01*
X0074283Y0104711D01*
X0074295Y0104642D01*
X0074303Y0104572D01*
X0074307Y0104501D01*
X0074307Y0104431D01*
X0074303Y0104360D01*
X0074295Y0104290D01*
X0074283Y0104221D01*
X0074268Y0104152D01*
X0074249Y0104084D01*
X0074226Y0104018D01*
X0074199Y0103953D01*
X0074169Y0103889D01*
X0074136Y0103827D01*
X0074099Y0103767D01*
X0074059Y0103709D01*
X0074016Y0103654D01*
X0073969Y0103600D01*
X0073920Y0103550D01*
X0073868Y0103502D01*
X0073814Y0103457D01*
X0073757Y0103416D01*
X0073698Y0103377D01*
X0073637Y0103342D01*
X0073574Y0103310D01*
X0073510Y0103282D01*
X0073444Y0103257D01*
X0073377Y0103236D01*
X0073308Y0103219D01*
X0073239Y0103205D01*
X0073170Y0103196D01*
X0073099Y0103190D01*
X0073029Y0103188D01*
X0071751Y0103188D01*
X0071751Y0107788D01*
X0075990Y0105233D02*
X0075990Y0103955D01*
X0075990Y0104722D02*
X0078034Y0104722D01*
X0078034Y0105233D01*
X0078032Y0105296D01*
X0078026Y0105359D01*
X0078017Y0105421D01*
X0078003Y0105482D01*
X0077986Y0105543D01*
X0077965Y0105602D01*
X0077940Y0105660D01*
X0077912Y0105717D01*
X0077881Y0105771D01*
X0077846Y0105823D01*
X0077808Y0105874D01*
X0077767Y0105922D01*
X0077723Y0105967D01*
X0077677Y0106009D01*
X0077628Y0106049D01*
X0077577Y0106085D01*
X0077523Y0106118D01*
X0077468Y0106148D01*
X0077410Y0106174D01*
X0077352Y0106197D01*
X0077292Y0106216D01*
X0077231Y0106231D01*
X0077169Y0106243D01*
X0077106Y0106251D01*
X0077043Y0106255D01*
X0076981Y0106255D01*
X0076918Y0106251D01*
X0076855Y0106243D01*
X0076793Y0106231D01*
X0076732Y0106216D01*
X0076672Y0106197D01*
X0076614Y0106174D01*
X0076556Y0106148D01*
X0076501Y0106118D01*
X0076447Y0106085D01*
X0076396Y0106049D01*
X0076347Y0106009D01*
X0076301Y0105967D01*
X0076257Y0105922D01*
X0076216Y0105874D01*
X0076178Y0105823D01*
X0076143Y0105771D01*
X0076112Y0105717D01*
X0076084Y0105660D01*
X0076059Y0105602D01*
X0076038Y0105543D01*
X0076021Y0105482D01*
X0076007Y0105421D01*
X0075998Y0105359D01*
X0075992Y0105296D01*
X0075990Y0105233D01*
X0075990Y0103955D02*
X0075992Y0103900D01*
X0075998Y0103846D01*
X0076008Y0103792D01*
X0076021Y0103739D01*
X0076038Y0103687D01*
X0076059Y0103636D01*
X0076084Y0103587D01*
X0076112Y0103540D01*
X0076143Y0103495D01*
X0076177Y0103453D01*
X0076215Y0103413D01*
X0076255Y0103375D01*
X0076297Y0103341D01*
X0076342Y0103310D01*
X0076389Y0103282D01*
X0076438Y0103257D01*
X0076489Y0103236D01*
X0076541Y0103219D01*
X0076594Y0103206D01*
X0076648Y0103196D01*
X0076702Y0103190D01*
X0076757Y0103188D01*
X0078034Y0103188D01*
X0080066Y0103188D02*
X0080066Y0106255D01*
X0081600Y0106255D01*
X0081600Y0105744D01*
X0083017Y0105488D02*
X0083017Y0103955D01*
X0083019Y0103900D01*
X0083025Y0103846D01*
X0083035Y0103792D01*
X0083048Y0103739D01*
X0083065Y0103687D01*
X0083086Y0103636D01*
X0083111Y0103587D01*
X0083139Y0103540D01*
X0083170Y0103495D01*
X0083204Y0103453D01*
X0083242Y0103413D01*
X0083282Y0103375D01*
X0083324Y0103341D01*
X0083369Y0103310D01*
X0083416Y0103282D01*
X0083465Y0103257D01*
X0083516Y0103236D01*
X0083568Y0103219D01*
X0083621Y0103206D01*
X0083675Y0103196D01*
X0083729Y0103190D01*
X0083784Y0103188D01*
X0085061Y0103188D01*
X0085061Y0102422D02*
X0085061Y0106255D01*
X0083784Y0106255D01*
X0083729Y0106253D01*
X0083675Y0106247D01*
X0083621Y0106237D01*
X0083568Y0106224D01*
X0083516Y0106207D01*
X0083465Y0106186D01*
X0083416Y0106161D01*
X0083369Y0106133D01*
X0083324Y0106102D01*
X0083282Y0106068D01*
X0083242Y0106030D01*
X0083204Y0105990D01*
X0083170Y0105948D01*
X0083139Y0105903D01*
X0083111Y0105856D01*
X0083086Y0105807D01*
X0083065Y0105756D01*
X0083048Y0105704D01*
X0083035Y0105651D01*
X0083025Y0105597D01*
X0083019Y0105543D01*
X0083017Y0105488D01*
X0085062Y0102422D02*
X0085060Y0102367D01*
X0085054Y0102313D01*
X0085044Y0102259D01*
X0085031Y0102206D01*
X0085014Y0102154D01*
X0084993Y0102103D01*
X0084968Y0102054D01*
X0084940Y0102007D01*
X0084909Y0101962D01*
X0084875Y0101920D01*
X0084837Y0101880D01*
X0084797Y0101842D01*
X0084755Y0101808D01*
X0084710Y0101777D01*
X0084663Y0101749D01*
X0084614Y0101724D01*
X0084563Y0101703D01*
X0084511Y0101686D01*
X0084458Y0101673D01*
X0084404Y0101663D01*
X0084350Y0101657D01*
X0084295Y0101655D01*
X0083272Y0101655D01*
X0087466Y0109155D02*
X0087977Y0109155D01*
X0127892Y0050682D02*
X0129425Y0050682D01*
X0127892Y0050682D02*
X0127830Y0050680D01*
X0127769Y0050675D01*
X0127708Y0050665D01*
X0127647Y0050652D01*
X0127588Y0050636D01*
X0127530Y0050616D01*
X0127473Y0050592D01*
X0127417Y0050565D01*
X0127363Y0050535D01*
X0127311Y0050501D01*
X0127262Y0050464D01*
X0127214Y0050425D01*
X0127169Y0050383D01*
X0127127Y0050338D01*
X0127087Y0050290D01*
X0127051Y0050241D01*
X0127017Y0050189D01*
X0126987Y0050135D01*
X0126960Y0050079D01*
X0126936Y0050022D01*
X0126916Y0049964D01*
X0126900Y0049905D01*
X0126887Y0049844D01*
X0126877Y0049783D01*
X0126872Y0049722D01*
X0126870Y0049660D01*
X0126869Y0049660D02*
X0126869Y0047104D01*
X0126870Y0047104D02*
X0126872Y0047042D01*
X0126877Y0046981D01*
X0126887Y0046920D01*
X0126900Y0046859D01*
X0126916Y0046800D01*
X0126936Y0046742D01*
X0126960Y0046685D01*
X0126987Y0046629D01*
X0127017Y0046575D01*
X0127051Y0046523D01*
X0127087Y0046474D01*
X0127127Y0046426D01*
X0127169Y0046381D01*
X0127214Y0046339D01*
X0127262Y0046299D01*
X0127311Y0046263D01*
X0127363Y0046229D01*
X0127417Y0046199D01*
X0127473Y0046172D01*
X0127530Y0046148D01*
X0127588Y0046128D01*
X0127647Y0046112D01*
X0127708Y0046099D01*
X0127769Y0046089D01*
X0127830Y0046084D01*
X0127892Y0046082D01*
X0129425Y0046082D01*
X0129425Y0048637D01*
X0128658Y0048637D01*
X0131651Y0049149D02*
X0133184Y0049149D01*
X0133184Y0048637D01*
X0134625Y0048126D02*
X0134625Y0047104D01*
X0134627Y0047041D01*
X0134633Y0046978D01*
X0134642Y0046916D01*
X0134656Y0046855D01*
X0134673Y0046794D01*
X0134694Y0046735D01*
X0134719Y0046677D01*
X0134747Y0046620D01*
X0134778Y0046566D01*
X0134813Y0046514D01*
X0134851Y0046463D01*
X0134892Y0046415D01*
X0134936Y0046370D01*
X0134982Y0046328D01*
X0135031Y0046288D01*
X0135082Y0046252D01*
X0135136Y0046219D01*
X0135191Y0046189D01*
X0135249Y0046163D01*
X0135307Y0046140D01*
X0135367Y0046121D01*
X0135428Y0046106D01*
X0135490Y0046094D01*
X0135553Y0046086D01*
X0135616Y0046082D01*
X0135678Y0046082D01*
X0135741Y0046086D01*
X0135804Y0046094D01*
X0135866Y0046106D01*
X0135927Y0046121D01*
X0135987Y0046140D01*
X0136045Y0046163D01*
X0136103Y0046189D01*
X0136158Y0046219D01*
X0136212Y0046252D01*
X0136263Y0046288D01*
X0136312Y0046328D01*
X0136358Y0046370D01*
X0136402Y0046415D01*
X0136443Y0046463D01*
X0136481Y0046514D01*
X0136516Y0046566D01*
X0136547Y0046620D01*
X0136575Y0046677D01*
X0136600Y0046735D01*
X0136621Y0046794D01*
X0136638Y0046855D01*
X0136652Y0046916D01*
X0136661Y0046978D01*
X0136667Y0047041D01*
X0136669Y0047104D01*
X0136669Y0048126D01*
X0136667Y0048189D01*
X0136661Y0048252D01*
X0136652Y0048314D01*
X0136638Y0048375D01*
X0136621Y0048436D01*
X0136600Y0048495D01*
X0136575Y0048553D01*
X0136547Y0048610D01*
X0136516Y0048664D01*
X0136481Y0048716D01*
X0136443Y0048767D01*
X0136402Y0048815D01*
X0136358Y0048860D01*
X0136312Y0048902D01*
X0136263Y0048942D01*
X0136212Y0048978D01*
X0136158Y0049011D01*
X0136103Y0049041D01*
X0136045Y0049067D01*
X0135987Y0049090D01*
X0135927Y0049109D01*
X0135866Y0049124D01*
X0135804Y0049136D01*
X0135741Y0049144D01*
X0135678Y0049148D01*
X0135616Y0049148D01*
X0135553Y0049144D01*
X0135490Y0049136D01*
X0135428Y0049124D01*
X0135367Y0049109D01*
X0135307Y0049090D01*
X0135249Y0049067D01*
X0135191Y0049041D01*
X0135136Y0049011D01*
X0135082Y0048978D01*
X0135031Y0048942D01*
X0134982Y0048902D01*
X0134936Y0048860D01*
X0134892Y0048815D01*
X0134851Y0048767D01*
X0134813Y0048716D01*
X0134778Y0048664D01*
X0134747Y0048610D01*
X0134719Y0048553D01*
X0134694Y0048495D01*
X0134673Y0048436D01*
X0134656Y0048375D01*
X0134642Y0048314D01*
X0134633Y0048252D01*
X0134627Y0048189D01*
X0134625Y0048126D01*
X0131651Y0049149D02*
X0131651Y0046082D01*
X0138375Y0049149D02*
X0139397Y0046082D01*
X0140419Y0049149D01*
X0142125Y0048126D02*
X0142125Y0046849D01*
X0142125Y0047615D02*
X0144169Y0047615D01*
X0144169Y0048126D01*
X0144167Y0048189D01*
X0144161Y0048252D01*
X0144152Y0048314D01*
X0144138Y0048375D01*
X0144121Y0048436D01*
X0144100Y0048495D01*
X0144075Y0048553D01*
X0144047Y0048610D01*
X0144016Y0048664D01*
X0143981Y0048716D01*
X0143943Y0048767D01*
X0143902Y0048815D01*
X0143858Y0048860D01*
X0143812Y0048902D01*
X0143763Y0048942D01*
X0143712Y0048978D01*
X0143658Y0049011D01*
X0143603Y0049041D01*
X0143545Y0049067D01*
X0143487Y0049090D01*
X0143427Y0049109D01*
X0143366Y0049124D01*
X0143304Y0049136D01*
X0143241Y0049144D01*
X0143178Y0049148D01*
X0143116Y0049148D01*
X0143053Y0049144D01*
X0142990Y0049136D01*
X0142928Y0049124D01*
X0142867Y0049109D01*
X0142807Y0049090D01*
X0142749Y0049067D01*
X0142691Y0049041D01*
X0142636Y0049011D01*
X0142582Y0048978D01*
X0142531Y0048942D01*
X0142482Y0048902D01*
X0142436Y0048860D01*
X0142392Y0048815D01*
X0142351Y0048767D01*
X0142313Y0048716D01*
X0142278Y0048664D01*
X0142247Y0048610D01*
X0142219Y0048553D01*
X0142194Y0048495D01*
X0142173Y0048436D01*
X0142156Y0048375D01*
X0142142Y0048314D01*
X0142133Y0048252D01*
X0142127Y0048189D01*
X0142125Y0048126D01*
X0142124Y0046849D02*
X0142126Y0046794D01*
X0142132Y0046740D01*
X0142142Y0046686D01*
X0142155Y0046633D01*
X0142172Y0046581D01*
X0142193Y0046530D01*
X0142218Y0046481D01*
X0142246Y0046434D01*
X0142277Y0046389D01*
X0142311Y0046347D01*
X0142349Y0046307D01*
X0142389Y0046269D01*
X0142431Y0046235D01*
X0142476Y0046204D01*
X0142523Y0046176D01*
X0142572Y0046151D01*
X0142623Y0046130D01*
X0142675Y0046113D01*
X0142728Y0046100D01*
X0142782Y0046090D01*
X0142836Y0046084D01*
X0142891Y0046082D01*
X0144169Y0046082D01*
D12*
X0141630Y0024622D02*
X0141632Y0024786D01*
X0141638Y0024950D01*
X0141648Y0025114D01*
X0141662Y0025278D01*
X0141680Y0025441D01*
X0141702Y0025604D01*
X0141729Y0025766D01*
X0141759Y0025928D01*
X0141793Y0026088D01*
X0141831Y0026248D01*
X0141872Y0026407D01*
X0141918Y0026565D01*
X0141968Y0026721D01*
X0142021Y0026877D01*
X0142078Y0027031D01*
X0142139Y0027183D01*
X0142204Y0027334D01*
X0142273Y0027484D01*
X0142345Y0027631D01*
X0142420Y0027777D01*
X0142500Y0027921D01*
X0142582Y0028063D01*
X0142668Y0028203D01*
X0142758Y0028340D01*
X0142851Y0028476D01*
X0142947Y0028609D01*
X0143047Y0028740D01*
X0143149Y0028868D01*
X0143255Y0028994D01*
X0143364Y0029117D01*
X0143476Y0029237D01*
X0143590Y0029355D01*
X0143708Y0029469D01*
X0143828Y0029581D01*
X0143951Y0029690D01*
X0144077Y0029796D01*
X0144205Y0029898D01*
X0144336Y0029998D01*
X0144469Y0030094D01*
X0144605Y0030187D01*
X0144742Y0030277D01*
X0144882Y0030363D01*
X0145024Y0030445D01*
X0145168Y0030525D01*
X0145314Y0030600D01*
X0145461Y0030672D01*
X0145611Y0030741D01*
X0145762Y0030806D01*
X0145914Y0030867D01*
X0146068Y0030924D01*
X0146224Y0030977D01*
X0146380Y0031027D01*
X0146538Y0031073D01*
X0146697Y0031114D01*
X0146857Y0031152D01*
X0147017Y0031186D01*
X0147179Y0031216D01*
X0147341Y0031243D01*
X0147504Y0031265D01*
X0147667Y0031283D01*
X0147831Y0031297D01*
X0147995Y0031307D01*
X0148159Y0031313D01*
X0148323Y0031315D01*
X0148487Y0031313D01*
X0148651Y0031307D01*
X0148815Y0031297D01*
X0148979Y0031283D01*
X0149142Y0031265D01*
X0149305Y0031243D01*
X0149467Y0031216D01*
X0149629Y0031186D01*
X0149789Y0031152D01*
X0149949Y0031114D01*
X0150108Y0031073D01*
X0150266Y0031027D01*
X0150422Y0030977D01*
X0150578Y0030924D01*
X0150732Y0030867D01*
X0150884Y0030806D01*
X0151035Y0030741D01*
X0151185Y0030672D01*
X0151332Y0030600D01*
X0151478Y0030525D01*
X0151622Y0030445D01*
X0151764Y0030363D01*
X0151904Y0030277D01*
X0152041Y0030187D01*
X0152177Y0030094D01*
X0152310Y0029998D01*
X0152441Y0029898D01*
X0152569Y0029796D01*
X0152695Y0029690D01*
X0152818Y0029581D01*
X0152938Y0029469D01*
X0153056Y0029355D01*
X0153170Y0029237D01*
X0153282Y0029117D01*
X0153391Y0028994D01*
X0153497Y0028868D01*
X0153599Y0028740D01*
X0153699Y0028609D01*
X0153795Y0028476D01*
X0153888Y0028340D01*
X0153978Y0028203D01*
X0154064Y0028063D01*
X0154146Y0027921D01*
X0154226Y0027777D01*
X0154301Y0027631D01*
X0154373Y0027484D01*
X0154442Y0027334D01*
X0154507Y0027183D01*
X0154568Y0027031D01*
X0154625Y0026877D01*
X0154678Y0026721D01*
X0154728Y0026565D01*
X0154774Y0026407D01*
X0154815Y0026248D01*
X0154853Y0026088D01*
X0154887Y0025928D01*
X0154917Y0025766D01*
X0154944Y0025604D01*
X0154966Y0025441D01*
X0154984Y0025278D01*
X0154998Y0025114D01*
X0155008Y0024950D01*
X0155014Y0024786D01*
X0155016Y0024622D01*
X0155014Y0024458D01*
X0155008Y0024294D01*
X0154998Y0024130D01*
X0154984Y0023966D01*
X0154966Y0023803D01*
X0154944Y0023640D01*
X0154917Y0023478D01*
X0154887Y0023316D01*
X0154853Y0023156D01*
X0154815Y0022996D01*
X0154774Y0022837D01*
X0154728Y0022679D01*
X0154678Y0022523D01*
X0154625Y0022367D01*
X0154568Y0022213D01*
X0154507Y0022061D01*
X0154442Y0021910D01*
X0154373Y0021760D01*
X0154301Y0021613D01*
X0154226Y0021467D01*
X0154146Y0021323D01*
X0154064Y0021181D01*
X0153978Y0021041D01*
X0153888Y0020904D01*
X0153795Y0020768D01*
X0153699Y0020635D01*
X0153599Y0020504D01*
X0153497Y0020376D01*
X0153391Y0020250D01*
X0153282Y0020127D01*
X0153170Y0020007D01*
X0153056Y0019889D01*
X0152938Y0019775D01*
X0152818Y0019663D01*
X0152695Y0019554D01*
X0152569Y0019448D01*
X0152441Y0019346D01*
X0152310Y0019246D01*
X0152177Y0019150D01*
X0152041Y0019057D01*
X0151904Y0018967D01*
X0151764Y0018881D01*
X0151622Y0018799D01*
X0151478Y0018719D01*
X0151332Y0018644D01*
X0151185Y0018572D01*
X0151035Y0018503D01*
X0150884Y0018438D01*
X0150732Y0018377D01*
X0150578Y0018320D01*
X0150422Y0018267D01*
X0150266Y0018217D01*
X0150108Y0018171D01*
X0149949Y0018130D01*
X0149789Y0018092D01*
X0149629Y0018058D01*
X0149467Y0018028D01*
X0149305Y0018001D01*
X0149142Y0017979D01*
X0148979Y0017961D01*
X0148815Y0017947D01*
X0148651Y0017937D01*
X0148487Y0017931D01*
X0148323Y0017929D01*
X0148159Y0017931D01*
X0147995Y0017937D01*
X0147831Y0017947D01*
X0147667Y0017961D01*
X0147504Y0017979D01*
X0147341Y0018001D01*
X0147179Y0018028D01*
X0147017Y0018058D01*
X0146857Y0018092D01*
X0146697Y0018130D01*
X0146538Y0018171D01*
X0146380Y0018217D01*
X0146224Y0018267D01*
X0146068Y0018320D01*
X0145914Y0018377D01*
X0145762Y0018438D01*
X0145611Y0018503D01*
X0145461Y0018572D01*
X0145314Y0018644D01*
X0145168Y0018719D01*
X0145024Y0018799D01*
X0144882Y0018881D01*
X0144742Y0018967D01*
X0144605Y0019057D01*
X0144469Y0019150D01*
X0144336Y0019246D01*
X0144205Y0019346D01*
X0144077Y0019448D01*
X0143951Y0019554D01*
X0143828Y0019663D01*
X0143708Y0019775D01*
X0143590Y0019889D01*
X0143476Y0020007D01*
X0143364Y0020127D01*
X0143255Y0020250D01*
X0143149Y0020376D01*
X0143047Y0020504D01*
X0142947Y0020635D01*
X0142851Y0020768D01*
X0142758Y0020904D01*
X0142668Y0021041D01*
X0142582Y0021181D01*
X0142500Y0021323D01*
X0142420Y0021467D01*
X0142345Y0021613D01*
X0142273Y0021760D01*
X0142204Y0021910D01*
X0142139Y0022061D01*
X0142078Y0022213D01*
X0142021Y0022367D01*
X0141968Y0022523D01*
X0141918Y0022679D01*
X0141872Y0022837D01*
X0141831Y0022996D01*
X0141793Y0023156D01*
X0141759Y0023316D01*
X0141729Y0023478D01*
X0141702Y0023640D01*
X0141680Y0023803D01*
X0141662Y0023966D01*
X0141648Y0024130D01*
X0141638Y0024294D01*
X0141632Y0024458D01*
X0141630Y0024622D01*
X0134823Y0024622D02*
X0134827Y0024953D01*
X0134839Y0025284D01*
X0134860Y0025615D01*
X0134888Y0025945D01*
X0134925Y0026275D01*
X0134969Y0026603D01*
X0135022Y0026930D01*
X0135082Y0027256D01*
X0135151Y0027580D01*
X0135228Y0027902D01*
X0135312Y0028223D01*
X0135404Y0028541D01*
X0135504Y0028857D01*
X0135612Y0029170D01*
X0135728Y0029481D01*
X0135851Y0029788D01*
X0135981Y0030093D01*
X0136119Y0030394D01*
X0136264Y0030692D01*
X0136417Y0030986D01*
X0136577Y0031276D01*
X0136744Y0031562D01*
X0136917Y0031844D01*
X0137098Y0032122D01*
X0137286Y0032395D01*
X0137480Y0032664D01*
X0137680Y0032928D01*
X0137887Y0033186D01*
X0138101Y0033440D01*
X0138320Y0033688D01*
X0138546Y0033931D01*
X0138777Y0034168D01*
X0139014Y0034399D01*
X0139257Y0034625D01*
X0139505Y0034844D01*
X0139759Y0035058D01*
X0140017Y0035265D01*
X0140281Y0035465D01*
X0140550Y0035659D01*
X0140823Y0035847D01*
X0141101Y0036028D01*
X0141383Y0036201D01*
X0141669Y0036368D01*
X0141959Y0036528D01*
X0142253Y0036681D01*
X0142551Y0036826D01*
X0142852Y0036964D01*
X0143157Y0037094D01*
X0143464Y0037217D01*
X0143775Y0037333D01*
X0144088Y0037441D01*
X0144404Y0037541D01*
X0144722Y0037633D01*
X0145043Y0037717D01*
X0145365Y0037794D01*
X0145689Y0037863D01*
X0146015Y0037923D01*
X0146342Y0037976D01*
X0146670Y0038020D01*
X0147000Y0038057D01*
X0147330Y0038085D01*
X0147661Y0038106D01*
X0147992Y0038118D01*
X0148323Y0038122D01*
X0148654Y0038118D01*
X0148985Y0038106D01*
X0149316Y0038085D01*
X0149646Y0038057D01*
X0149976Y0038020D01*
X0150304Y0037976D01*
X0150631Y0037923D01*
X0150957Y0037863D01*
X0151281Y0037794D01*
X0151603Y0037717D01*
X0151924Y0037633D01*
X0152242Y0037541D01*
X0152558Y0037441D01*
X0152871Y0037333D01*
X0153182Y0037217D01*
X0153489Y0037094D01*
X0153794Y0036964D01*
X0154095Y0036826D01*
X0154393Y0036681D01*
X0154687Y0036528D01*
X0154977Y0036368D01*
X0155263Y0036201D01*
X0155545Y0036028D01*
X0155823Y0035847D01*
X0156096Y0035659D01*
X0156365Y0035465D01*
X0156629Y0035265D01*
X0156887Y0035058D01*
X0157141Y0034844D01*
X0157389Y0034625D01*
X0157632Y0034399D01*
X0157869Y0034168D01*
X0158100Y0033931D01*
X0158326Y0033688D01*
X0158545Y0033440D01*
X0158759Y0033186D01*
X0158966Y0032928D01*
X0159166Y0032664D01*
X0159360Y0032395D01*
X0159548Y0032122D01*
X0159729Y0031844D01*
X0159902Y0031562D01*
X0160069Y0031276D01*
X0160229Y0030986D01*
X0160382Y0030692D01*
X0160527Y0030394D01*
X0160665Y0030093D01*
X0160795Y0029788D01*
X0160918Y0029481D01*
X0161034Y0029170D01*
X0161142Y0028857D01*
X0161242Y0028541D01*
X0161334Y0028223D01*
X0161418Y0027902D01*
X0161495Y0027580D01*
X0161564Y0027256D01*
X0161624Y0026930D01*
X0161677Y0026603D01*
X0161721Y0026275D01*
X0161758Y0025945D01*
X0161786Y0025615D01*
X0161807Y0025284D01*
X0161819Y0024953D01*
X0161823Y0024622D01*
X0161819Y0024291D01*
X0161807Y0023960D01*
X0161786Y0023629D01*
X0161758Y0023299D01*
X0161721Y0022969D01*
X0161677Y0022641D01*
X0161624Y0022314D01*
X0161564Y0021988D01*
X0161495Y0021664D01*
X0161418Y0021342D01*
X0161334Y0021021D01*
X0161242Y0020703D01*
X0161142Y0020387D01*
X0161034Y0020074D01*
X0160918Y0019763D01*
X0160795Y0019456D01*
X0160665Y0019151D01*
X0160527Y0018850D01*
X0160382Y0018552D01*
X0160229Y0018258D01*
X0160069Y0017968D01*
X0159902Y0017682D01*
X0159729Y0017400D01*
X0159548Y0017122D01*
X0159360Y0016849D01*
X0159166Y0016580D01*
X0158966Y0016316D01*
X0158759Y0016058D01*
X0158545Y0015804D01*
X0158326Y0015556D01*
X0158100Y0015313D01*
X0157869Y0015076D01*
X0157632Y0014845D01*
X0157389Y0014619D01*
X0157141Y0014400D01*
X0156887Y0014186D01*
X0156629Y0013979D01*
X0156365Y0013779D01*
X0156096Y0013585D01*
X0155823Y0013397D01*
X0155545Y0013216D01*
X0155263Y0013043D01*
X0154977Y0012876D01*
X0154687Y0012716D01*
X0154393Y0012563D01*
X0154095Y0012418D01*
X0153794Y0012280D01*
X0153489Y0012150D01*
X0153182Y0012027D01*
X0152871Y0011911D01*
X0152558Y0011803D01*
X0152242Y0011703D01*
X0151924Y0011611D01*
X0151603Y0011527D01*
X0151281Y0011450D01*
X0150957Y0011381D01*
X0150631Y0011321D01*
X0150304Y0011268D01*
X0149976Y0011224D01*
X0149646Y0011187D01*
X0149316Y0011159D01*
X0148985Y0011138D01*
X0148654Y0011126D01*
X0148323Y0011122D01*
X0147992Y0011126D01*
X0147661Y0011138D01*
X0147330Y0011159D01*
X0147000Y0011187D01*
X0146670Y0011224D01*
X0146342Y0011268D01*
X0146015Y0011321D01*
X0145689Y0011381D01*
X0145365Y0011450D01*
X0145043Y0011527D01*
X0144722Y0011611D01*
X0144404Y0011703D01*
X0144088Y0011803D01*
X0143775Y0011911D01*
X0143464Y0012027D01*
X0143157Y0012150D01*
X0142852Y0012280D01*
X0142551Y0012418D01*
X0142253Y0012563D01*
X0141959Y0012716D01*
X0141669Y0012876D01*
X0141383Y0013043D01*
X0141101Y0013216D01*
X0140823Y0013397D01*
X0140550Y0013585D01*
X0140281Y0013779D01*
X0140017Y0013979D01*
X0139759Y0014186D01*
X0139505Y0014400D01*
X0139257Y0014619D01*
X0139014Y0014845D01*
X0138777Y0015076D01*
X0138546Y0015313D01*
X0138320Y0015556D01*
X0138101Y0015804D01*
X0137887Y0016058D01*
X0137680Y0016316D01*
X0137480Y0016580D01*
X0137286Y0016849D01*
X0137098Y0017122D01*
X0136917Y0017400D01*
X0136744Y0017682D01*
X0136577Y0017968D01*
X0136417Y0018258D01*
X0136264Y0018552D01*
X0136119Y0018850D01*
X0135981Y0019151D01*
X0135851Y0019456D01*
X0135728Y0019763D01*
X0135612Y0020074D01*
X0135504Y0020387D01*
X0135404Y0020703D01*
X0135312Y0021021D01*
X0135228Y0021342D01*
X0135151Y0021664D01*
X0135082Y0021988D01*
X0135022Y0022314D01*
X0134969Y0022641D01*
X0134925Y0022969D01*
X0134888Y0023299D01*
X0134860Y0023629D01*
X0134839Y0023960D01*
X0134827Y0024291D01*
X0134823Y0024622D01*
X0019583Y0024622D02*
X0019585Y0024786D01*
X0019591Y0024950D01*
X0019601Y0025114D01*
X0019615Y0025278D01*
X0019633Y0025441D01*
X0019655Y0025604D01*
X0019682Y0025766D01*
X0019712Y0025928D01*
X0019746Y0026088D01*
X0019784Y0026248D01*
X0019825Y0026407D01*
X0019871Y0026565D01*
X0019921Y0026721D01*
X0019974Y0026877D01*
X0020031Y0027031D01*
X0020092Y0027183D01*
X0020157Y0027334D01*
X0020226Y0027484D01*
X0020298Y0027631D01*
X0020373Y0027777D01*
X0020453Y0027921D01*
X0020535Y0028063D01*
X0020621Y0028203D01*
X0020711Y0028340D01*
X0020804Y0028476D01*
X0020900Y0028609D01*
X0021000Y0028740D01*
X0021102Y0028868D01*
X0021208Y0028994D01*
X0021317Y0029117D01*
X0021429Y0029237D01*
X0021543Y0029355D01*
X0021661Y0029469D01*
X0021781Y0029581D01*
X0021904Y0029690D01*
X0022030Y0029796D01*
X0022158Y0029898D01*
X0022289Y0029998D01*
X0022422Y0030094D01*
X0022558Y0030187D01*
X0022695Y0030277D01*
X0022835Y0030363D01*
X0022977Y0030445D01*
X0023121Y0030525D01*
X0023267Y0030600D01*
X0023414Y0030672D01*
X0023564Y0030741D01*
X0023715Y0030806D01*
X0023867Y0030867D01*
X0024021Y0030924D01*
X0024177Y0030977D01*
X0024333Y0031027D01*
X0024491Y0031073D01*
X0024650Y0031114D01*
X0024810Y0031152D01*
X0024970Y0031186D01*
X0025132Y0031216D01*
X0025294Y0031243D01*
X0025457Y0031265D01*
X0025620Y0031283D01*
X0025784Y0031297D01*
X0025948Y0031307D01*
X0026112Y0031313D01*
X0026276Y0031315D01*
X0026440Y0031313D01*
X0026604Y0031307D01*
X0026768Y0031297D01*
X0026932Y0031283D01*
X0027095Y0031265D01*
X0027258Y0031243D01*
X0027420Y0031216D01*
X0027582Y0031186D01*
X0027742Y0031152D01*
X0027902Y0031114D01*
X0028061Y0031073D01*
X0028219Y0031027D01*
X0028375Y0030977D01*
X0028531Y0030924D01*
X0028685Y0030867D01*
X0028837Y0030806D01*
X0028988Y0030741D01*
X0029138Y0030672D01*
X0029285Y0030600D01*
X0029431Y0030525D01*
X0029575Y0030445D01*
X0029717Y0030363D01*
X0029857Y0030277D01*
X0029994Y0030187D01*
X0030130Y0030094D01*
X0030263Y0029998D01*
X0030394Y0029898D01*
X0030522Y0029796D01*
X0030648Y0029690D01*
X0030771Y0029581D01*
X0030891Y0029469D01*
X0031009Y0029355D01*
X0031123Y0029237D01*
X0031235Y0029117D01*
X0031344Y0028994D01*
X0031450Y0028868D01*
X0031552Y0028740D01*
X0031652Y0028609D01*
X0031748Y0028476D01*
X0031841Y0028340D01*
X0031931Y0028203D01*
X0032017Y0028063D01*
X0032099Y0027921D01*
X0032179Y0027777D01*
X0032254Y0027631D01*
X0032326Y0027484D01*
X0032395Y0027334D01*
X0032460Y0027183D01*
X0032521Y0027031D01*
X0032578Y0026877D01*
X0032631Y0026721D01*
X0032681Y0026565D01*
X0032727Y0026407D01*
X0032768Y0026248D01*
X0032806Y0026088D01*
X0032840Y0025928D01*
X0032870Y0025766D01*
X0032897Y0025604D01*
X0032919Y0025441D01*
X0032937Y0025278D01*
X0032951Y0025114D01*
X0032961Y0024950D01*
X0032967Y0024786D01*
X0032969Y0024622D01*
X0032967Y0024458D01*
X0032961Y0024294D01*
X0032951Y0024130D01*
X0032937Y0023966D01*
X0032919Y0023803D01*
X0032897Y0023640D01*
X0032870Y0023478D01*
X0032840Y0023316D01*
X0032806Y0023156D01*
X0032768Y0022996D01*
X0032727Y0022837D01*
X0032681Y0022679D01*
X0032631Y0022523D01*
X0032578Y0022367D01*
X0032521Y0022213D01*
X0032460Y0022061D01*
X0032395Y0021910D01*
X0032326Y0021760D01*
X0032254Y0021613D01*
X0032179Y0021467D01*
X0032099Y0021323D01*
X0032017Y0021181D01*
X0031931Y0021041D01*
X0031841Y0020904D01*
X0031748Y0020768D01*
X0031652Y0020635D01*
X0031552Y0020504D01*
X0031450Y0020376D01*
X0031344Y0020250D01*
X0031235Y0020127D01*
X0031123Y0020007D01*
X0031009Y0019889D01*
X0030891Y0019775D01*
X0030771Y0019663D01*
X0030648Y0019554D01*
X0030522Y0019448D01*
X0030394Y0019346D01*
X0030263Y0019246D01*
X0030130Y0019150D01*
X0029994Y0019057D01*
X0029857Y0018967D01*
X0029717Y0018881D01*
X0029575Y0018799D01*
X0029431Y0018719D01*
X0029285Y0018644D01*
X0029138Y0018572D01*
X0028988Y0018503D01*
X0028837Y0018438D01*
X0028685Y0018377D01*
X0028531Y0018320D01*
X0028375Y0018267D01*
X0028219Y0018217D01*
X0028061Y0018171D01*
X0027902Y0018130D01*
X0027742Y0018092D01*
X0027582Y0018058D01*
X0027420Y0018028D01*
X0027258Y0018001D01*
X0027095Y0017979D01*
X0026932Y0017961D01*
X0026768Y0017947D01*
X0026604Y0017937D01*
X0026440Y0017931D01*
X0026276Y0017929D01*
X0026112Y0017931D01*
X0025948Y0017937D01*
X0025784Y0017947D01*
X0025620Y0017961D01*
X0025457Y0017979D01*
X0025294Y0018001D01*
X0025132Y0018028D01*
X0024970Y0018058D01*
X0024810Y0018092D01*
X0024650Y0018130D01*
X0024491Y0018171D01*
X0024333Y0018217D01*
X0024177Y0018267D01*
X0024021Y0018320D01*
X0023867Y0018377D01*
X0023715Y0018438D01*
X0023564Y0018503D01*
X0023414Y0018572D01*
X0023267Y0018644D01*
X0023121Y0018719D01*
X0022977Y0018799D01*
X0022835Y0018881D01*
X0022695Y0018967D01*
X0022558Y0019057D01*
X0022422Y0019150D01*
X0022289Y0019246D01*
X0022158Y0019346D01*
X0022030Y0019448D01*
X0021904Y0019554D01*
X0021781Y0019663D01*
X0021661Y0019775D01*
X0021543Y0019889D01*
X0021429Y0020007D01*
X0021317Y0020127D01*
X0021208Y0020250D01*
X0021102Y0020376D01*
X0021000Y0020504D01*
X0020900Y0020635D01*
X0020804Y0020768D01*
X0020711Y0020904D01*
X0020621Y0021041D01*
X0020535Y0021181D01*
X0020453Y0021323D01*
X0020373Y0021467D01*
X0020298Y0021613D01*
X0020226Y0021760D01*
X0020157Y0021910D01*
X0020092Y0022061D01*
X0020031Y0022213D01*
X0019974Y0022367D01*
X0019921Y0022523D01*
X0019871Y0022679D01*
X0019825Y0022837D01*
X0019784Y0022996D01*
X0019746Y0023156D01*
X0019712Y0023316D01*
X0019682Y0023478D01*
X0019655Y0023640D01*
X0019633Y0023803D01*
X0019615Y0023966D01*
X0019601Y0024130D01*
X0019591Y0024294D01*
X0019585Y0024458D01*
X0019583Y0024622D01*
X0012776Y0024622D02*
X0012780Y0024953D01*
X0012792Y0025284D01*
X0012813Y0025615D01*
X0012841Y0025945D01*
X0012878Y0026275D01*
X0012922Y0026603D01*
X0012975Y0026930D01*
X0013035Y0027256D01*
X0013104Y0027580D01*
X0013181Y0027902D01*
X0013265Y0028223D01*
X0013357Y0028541D01*
X0013457Y0028857D01*
X0013565Y0029170D01*
X0013681Y0029481D01*
X0013804Y0029788D01*
X0013934Y0030093D01*
X0014072Y0030394D01*
X0014217Y0030692D01*
X0014370Y0030986D01*
X0014530Y0031276D01*
X0014697Y0031562D01*
X0014870Y0031844D01*
X0015051Y0032122D01*
X0015239Y0032395D01*
X0015433Y0032664D01*
X0015633Y0032928D01*
X0015840Y0033186D01*
X0016054Y0033440D01*
X0016273Y0033688D01*
X0016499Y0033931D01*
X0016730Y0034168D01*
X0016967Y0034399D01*
X0017210Y0034625D01*
X0017458Y0034844D01*
X0017712Y0035058D01*
X0017970Y0035265D01*
X0018234Y0035465D01*
X0018503Y0035659D01*
X0018776Y0035847D01*
X0019054Y0036028D01*
X0019336Y0036201D01*
X0019622Y0036368D01*
X0019912Y0036528D01*
X0020206Y0036681D01*
X0020504Y0036826D01*
X0020805Y0036964D01*
X0021110Y0037094D01*
X0021417Y0037217D01*
X0021728Y0037333D01*
X0022041Y0037441D01*
X0022357Y0037541D01*
X0022675Y0037633D01*
X0022996Y0037717D01*
X0023318Y0037794D01*
X0023642Y0037863D01*
X0023968Y0037923D01*
X0024295Y0037976D01*
X0024623Y0038020D01*
X0024953Y0038057D01*
X0025283Y0038085D01*
X0025614Y0038106D01*
X0025945Y0038118D01*
X0026276Y0038122D01*
X0026607Y0038118D01*
X0026938Y0038106D01*
X0027269Y0038085D01*
X0027599Y0038057D01*
X0027929Y0038020D01*
X0028257Y0037976D01*
X0028584Y0037923D01*
X0028910Y0037863D01*
X0029234Y0037794D01*
X0029556Y0037717D01*
X0029877Y0037633D01*
X0030195Y0037541D01*
X0030511Y0037441D01*
X0030824Y0037333D01*
X0031135Y0037217D01*
X0031442Y0037094D01*
X0031747Y0036964D01*
X0032048Y0036826D01*
X0032346Y0036681D01*
X0032640Y0036528D01*
X0032930Y0036368D01*
X0033216Y0036201D01*
X0033498Y0036028D01*
X0033776Y0035847D01*
X0034049Y0035659D01*
X0034318Y0035465D01*
X0034582Y0035265D01*
X0034840Y0035058D01*
X0035094Y0034844D01*
X0035342Y0034625D01*
X0035585Y0034399D01*
X0035822Y0034168D01*
X0036053Y0033931D01*
X0036279Y0033688D01*
X0036498Y0033440D01*
X0036712Y0033186D01*
X0036919Y0032928D01*
X0037119Y0032664D01*
X0037313Y0032395D01*
X0037501Y0032122D01*
X0037682Y0031844D01*
X0037855Y0031562D01*
X0038022Y0031276D01*
X0038182Y0030986D01*
X0038335Y0030692D01*
X0038480Y0030394D01*
X0038618Y0030093D01*
X0038748Y0029788D01*
X0038871Y0029481D01*
X0038987Y0029170D01*
X0039095Y0028857D01*
X0039195Y0028541D01*
X0039287Y0028223D01*
X0039371Y0027902D01*
X0039448Y0027580D01*
X0039517Y0027256D01*
X0039577Y0026930D01*
X0039630Y0026603D01*
X0039674Y0026275D01*
X0039711Y0025945D01*
X0039739Y0025615D01*
X0039760Y0025284D01*
X0039772Y0024953D01*
X0039776Y0024622D01*
X0039772Y0024291D01*
X0039760Y0023960D01*
X0039739Y0023629D01*
X0039711Y0023299D01*
X0039674Y0022969D01*
X0039630Y0022641D01*
X0039577Y0022314D01*
X0039517Y0021988D01*
X0039448Y0021664D01*
X0039371Y0021342D01*
X0039287Y0021021D01*
X0039195Y0020703D01*
X0039095Y0020387D01*
X0038987Y0020074D01*
X0038871Y0019763D01*
X0038748Y0019456D01*
X0038618Y0019151D01*
X0038480Y0018850D01*
X0038335Y0018552D01*
X0038182Y0018258D01*
X0038022Y0017968D01*
X0037855Y0017682D01*
X0037682Y0017400D01*
X0037501Y0017122D01*
X0037313Y0016849D01*
X0037119Y0016580D01*
X0036919Y0016316D01*
X0036712Y0016058D01*
X0036498Y0015804D01*
X0036279Y0015556D01*
X0036053Y0015313D01*
X0035822Y0015076D01*
X0035585Y0014845D01*
X0035342Y0014619D01*
X0035094Y0014400D01*
X0034840Y0014186D01*
X0034582Y0013979D01*
X0034318Y0013779D01*
X0034049Y0013585D01*
X0033776Y0013397D01*
X0033498Y0013216D01*
X0033216Y0013043D01*
X0032930Y0012876D01*
X0032640Y0012716D01*
X0032346Y0012563D01*
X0032048Y0012418D01*
X0031747Y0012280D01*
X0031442Y0012150D01*
X0031135Y0012027D01*
X0030824Y0011911D01*
X0030511Y0011803D01*
X0030195Y0011703D01*
X0029877Y0011611D01*
X0029556Y0011527D01*
X0029234Y0011450D01*
X0028910Y0011381D01*
X0028584Y0011321D01*
X0028257Y0011268D01*
X0027929Y0011224D01*
X0027599Y0011187D01*
X0027269Y0011159D01*
X0026938Y0011138D01*
X0026607Y0011126D01*
X0026276Y0011122D01*
X0025945Y0011126D01*
X0025614Y0011138D01*
X0025283Y0011159D01*
X0024953Y0011187D01*
X0024623Y0011224D01*
X0024295Y0011268D01*
X0023968Y0011321D01*
X0023642Y0011381D01*
X0023318Y0011450D01*
X0022996Y0011527D01*
X0022675Y0011611D01*
X0022357Y0011703D01*
X0022041Y0011803D01*
X0021728Y0011911D01*
X0021417Y0012027D01*
X0021110Y0012150D01*
X0020805Y0012280D01*
X0020504Y0012418D01*
X0020206Y0012563D01*
X0019912Y0012716D01*
X0019622Y0012876D01*
X0019336Y0013043D01*
X0019054Y0013216D01*
X0018776Y0013397D01*
X0018503Y0013585D01*
X0018234Y0013779D01*
X0017970Y0013979D01*
X0017712Y0014186D01*
X0017458Y0014400D01*
X0017210Y0014619D01*
X0016967Y0014845D01*
X0016730Y0015076D01*
X0016499Y0015313D01*
X0016273Y0015556D01*
X0016054Y0015804D01*
X0015840Y0016058D01*
X0015633Y0016316D01*
X0015433Y0016580D01*
X0015239Y0016849D01*
X0015051Y0017122D01*
X0014870Y0017400D01*
X0014697Y0017682D01*
X0014530Y0017968D01*
X0014370Y0018258D01*
X0014217Y0018552D01*
X0014072Y0018850D01*
X0013934Y0019151D01*
X0013804Y0019456D01*
X0013681Y0019763D01*
X0013565Y0020074D01*
X0013457Y0020387D01*
X0013357Y0020703D01*
X0013265Y0021021D01*
X0013181Y0021342D01*
X0013104Y0021664D01*
X0013035Y0021988D01*
X0012975Y0022314D01*
X0012922Y0022641D01*
X0012878Y0022969D01*
X0012841Y0023299D01*
X0012813Y0023629D01*
X0012792Y0023960D01*
X0012780Y0024291D01*
X0012776Y0024622D01*
X0016733Y0101694D02*
X0016733Y0108094D01*
X0020289Y0108094D02*
X0020289Y0101694D01*
X0024253Y0101694D02*
X0025853Y0101694D01*
X0025853Y0104894D01*
X0025853Y0104183D02*
X0024253Y0104183D01*
X0025853Y0104894D02*
X0025851Y0104958D01*
X0025845Y0105023D01*
X0025836Y0105086D01*
X0025822Y0105149D01*
X0025805Y0105211D01*
X0025784Y0105272D01*
X0025759Y0105332D01*
X0025731Y0105390D01*
X0025699Y0105446D01*
X0025664Y0105500D01*
X0025626Y0105552D01*
X0025585Y0105602D01*
X0025540Y0105648D01*
X0025494Y0105693D01*
X0025444Y0105734D01*
X0025392Y0105772D01*
X0025338Y0105807D01*
X0025282Y0105839D01*
X0025224Y0105867D01*
X0025164Y0105892D01*
X0025103Y0105913D01*
X0025041Y0105930D01*
X0024978Y0105944D01*
X0024915Y0105953D01*
X0024850Y0105959D01*
X0024786Y0105961D01*
X0024786Y0105960D02*
X0023364Y0105960D01*
X0020289Y0105249D02*
X0016733Y0105249D01*
X0024253Y0104182D02*
X0024183Y0104180D01*
X0024114Y0104174D01*
X0024045Y0104164D01*
X0023976Y0104151D01*
X0023909Y0104133D01*
X0023842Y0104112D01*
X0023777Y0104087D01*
X0023713Y0104059D01*
X0023651Y0104027D01*
X0023591Y0103991D01*
X0023533Y0103953D01*
X0023477Y0103911D01*
X0023424Y0103866D01*
X0023373Y0103818D01*
X0023325Y0103767D01*
X0023280Y0103714D01*
X0023238Y0103658D01*
X0023200Y0103600D01*
X0023164Y0103540D01*
X0023132Y0103478D01*
X0023104Y0103414D01*
X0023079Y0103349D01*
X0023058Y0103282D01*
X0023040Y0103215D01*
X0023027Y0103146D01*
X0023017Y0103077D01*
X0023011Y0103008D01*
X0023009Y0102938D01*
X0023011Y0102868D01*
X0023017Y0102799D01*
X0023027Y0102730D01*
X0023040Y0102661D01*
X0023058Y0102594D01*
X0023079Y0102527D01*
X0023104Y0102462D01*
X0023132Y0102398D01*
X0023164Y0102336D01*
X0023200Y0102276D01*
X0023238Y0102218D01*
X0023280Y0102162D01*
X0023325Y0102109D01*
X0023373Y0102058D01*
X0023424Y0102010D01*
X0023477Y0101965D01*
X0023533Y0101923D01*
X0023591Y0101885D01*
X0023651Y0101849D01*
X0023713Y0101817D01*
X0023777Y0101789D01*
X0023842Y0101764D01*
X0023909Y0101743D01*
X0023976Y0101725D01*
X0024045Y0101712D01*
X0024114Y0101702D01*
X0024183Y0101696D01*
X0024253Y0101694D01*
X0029706Y0105960D02*
X0031840Y0105960D01*
X0034441Y0105960D02*
X0035864Y0105960D01*
X0035864Y0105961D02*
X0035928Y0105959D01*
X0035993Y0105953D01*
X0036056Y0105944D01*
X0036119Y0105930D01*
X0036181Y0105913D01*
X0036242Y0105892D01*
X0036302Y0105867D01*
X0036360Y0105839D01*
X0036416Y0105807D01*
X0036470Y0105772D01*
X0036522Y0105734D01*
X0036572Y0105693D01*
X0036618Y0105648D01*
X0036663Y0105602D01*
X0036704Y0105552D01*
X0036742Y0105500D01*
X0036777Y0105446D01*
X0036809Y0105390D01*
X0036837Y0105332D01*
X0036862Y0105272D01*
X0036883Y0105211D01*
X0036900Y0105149D01*
X0036914Y0105086D01*
X0036923Y0105023D01*
X0036929Y0104958D01*
X0036931Y0104894D01*
X0036930Y0104894D02*
X0036930Y0101694D01*
X0035330Y0101694D01*
X0035260Y0101696D01*
X0035191Y0101702D01*
X0035122Y0101712D01*
X0035053Y0101725D01*
X0034986Y0101743D01*
X0034919Y0101764D01*
X0034854Y0101789D01*
X0034790Y0101817D01*
X0034728Y0101849D01*
X0034668Y0101885D01*
X0034610Y0101923D01*
X0034554Y0101965D01*
X0034501Y0102010D01*
X0034450Y0102058D01*
X0034402Y0102109D01*
X0034357Y0102162D01*
X0034315Y0102218D01*
X0034277Y0102276D01*
X0034241Y0102336D01*
X0034209Y0102398D01*
X0034181Y0102462D01*
X0034156Y0102527D01*
X0034135Y0102594D01*
X0034117Y0102661D01*
X0034104Y0102730D01*
X0034094Y0102799D01*
X0034088Y0102868D01*
X0034086Y0102938D01*
X0034088Y0103008D01*
X0034094Y0103077D01*
X0034104Y0103146D01*
X0034117Y0103215D01*
X0034135Y0103282D01*
X0034156Y0103349D01*
X0034181Y0103414D01*
X0034209Y0103478D01*
X0034241Y0103540D01*
X0034277Y0103600D01*
X0034315Y0103658D01*
X0034357Y0103714D01*
X0034402Y0103767D01*
X0034450Y0103818D01*
X0034501Y0103866D01*
X0034554Y0103911D01*
X0034610Y0103953D01*
X0034668Y0103991D01*
X0034728Y0104027D01*
X0034790Y0104059D01*
X0034854Y0104087D01*
X0034919Y0104112D01*
X0034986Y0104133D01*
X0035053Y0104151D01*
X0035122Y0104164D01*
X0035191Y0104174D01*
X0035260Y0104180D01*
X0035330Y0104182D01*
X0035330Y0104183D02*
X0036930Y0104183D01*
X0039925Y0103827D02*
X0042769Y0105960D01*
X0041169Y0104716D02*
X0042769Y0101694D01*
X0039925Y0101694D02*
X0039925Y0108094D01*
X0030418Y0108094D02*
X0030418Y0102760D01*
X0030417Y0102760D02*
X0030419Y0102696D01*
X0030425Y0102631D01*
X0030434Y0102568D01*
X0030448Y0102505D01*
X0030465Y0102443D01*
X0030486Y0102382D01*
X0030511Y0102322D01*
X0030539Y0102264D01*
X0030571Y0102208D01*
X0030606Y0102154D01*
X0030644Y0102102D01*
X0030685Y0102052D01*
X0030730Y0102006D01*
X0030776Y0101961D01*
X0030826Y0101920D01*
X0030878Y0101882D01*
X0030932Y0101847D01*
X0030988Y0101815D01*
X0031046Y0101787D01*
X0031106Y0101762D01*
X0031167Y0101741D01*
X0031229Y0101724D01*
X0031292Y0101710D01*
X0031355Y0101701D01*
X0031420Y0101695D01*
X0031484Y0101693D01*
X0031484Y0101694D02*
X0031840Y0101694D01*
X0028152Y0108094D02*
X0028152Y0109516D01*
X0019583Y0126984D02*
X0019585Y0127148D01*
X0019591Y0127312D01*
X0019601Y0127476D01*
X0019615Y0127640D01*
X0019633Y0127803D01*
X0019655Y0127966D01*
X0019682Y0128128D01*
X0019712Y0128290D01*
X0019746Y0128450D01*
X0019784Y0128610D01*
X0019825Y0128769D01*
X0019871Y0128927D01*
X0019921Y0129083D01*
X0019974Y0129239D01*
X0020031Y0129393D01*
X0020092Y0129545D01*
X0020157Y0129696D01*
X0020226Y0129846D01*
X0020298Y0129993D01*
X0020373Y0130139D01*
X0020453Y0130283D01*
X0020535Y0130425D01*
X0020621Y0130565D01*
X0020711Y0130702D01*
X0020804Y0130838D01*
X0020900Y0130971D01*
X0021000Y0131102D01*
X0021102Y0131230D01*
X0021208Y0131356D01*
X0021317Y0131479D01*
X0021429Y0131599D01*
X0021543Y0131717D01*
X0021661Y0131831D01*
X0021781Y0131943D01*
X0021904Y0132052D01*
X0022030Y0132158D01*
X0022158Y0132260D01*
X0022289Y0132360D01*
X0022422Y0132456D01*
X0022558Y0132549D01*
X0022695Y0132639D01*
X0022835Y0132725D01*
X0022977Y0132807D01*
X0023121Y0132887D01*
X0023267Y0132962D01*
X0023414Y0133034D01*
X0023564Y0133103D01*
X0023715Y0133168D01*
X0023867Y0133229D01*
X0024021Y0133286D01*
X0024177Y0133339D01*
X0024333Y0133389D01*
X0024491Y0133435D01*
X0024650Y0133476D01*
X0024810Y0133514D01*
X0024970Y0133548D01*
X0025132Y0133578D01*
X0025294Y0133605D01*
X0025457Y0133627D01*
X0025620Y0133645D01*
X0025784Y0133659D01*
X0025948Y0133669D01*
X0026112Y0133675D01*
X0026276Y0133677D01*
X0026440Y0133675D01*
X0026604Y0133669D01*
X0026768Y0133659D01*
X0026932Y0133645D01*
X0027095Y0133627D01*
X0027258Y0133605D01*
X0027420Y0133578D01*
X0027582Y0133548D01*
X0027742Y0133514D01*
X0027902Y0133476D01*
X0028061Y0133435D01*
X0028219Y0133389D01*
X0028375Y0133339D01*
X0028531Y0133286D01*
X0028685Y0133229D01*
X0028837Y0133168D01*
X0028988Y0133103D01*
X0029138Y0133034D01*
X0029285Y0132962D01*
X0029431Y0132887D01*
X0029575Y0132807D01*
X0029717Y0132725D01*
X0029857Y0132639D01*
X0029994Y0132549D01*
X0030130Y0132456D01*
X0030263Y0132360D01*
X0030394Y0132260D01*
X0030522Y0132158D01*
X0030648Y0132052D01*
X0030771Y0131943D01*
X0030891Y0131831D01*
X0031009Y0131717D01*
X0031123Y0131599D01*
X0031235Y0131479D01*
X0031344Y0131356D01*
X0031450Y0131230D01*
X0031552Y0131102D01*
X0031652Y0130971D01*
X0031748Y0130838D01*
X0031841Y0130702D01*
X0031931Y0130565D01*
X0032017Y0130425D01*
X0032099Y0130283D01*
X0032179Y0130139D01*
X0032254Y0129993D01*
X0032326Y0129846D01*
X0032395Y0129696D01*
X0032460Y0129545D01*
X0032521Y0129393D01*
X0032578Y0129239D01*
X0032631Y0129083D01*
X0032681Y0128927D01*
X0032727Y0128769D01*
X0032768Y0128610D01*
X0032806Y0128450D01*
X0032840Y0128290D01*
X0032870Y0128128D01*
X0032897Y0127966D01*
X0032919Y0127803D01*
X0032937Y0127640D01*
X0032951Y0127476D01*
X0032961Y0127312D01*
X0032967Y0127148D01*
X0032969Y0126984D01*
X0032967Y0126820D01*
X0032961Y0126656D01*
X0032951Y0126492D01*
X0032937Y0126328D01*
X0032919Y0126165D01*
X0032897Y0126002D01*
X0032870Y0125840D01*
X0032840Y0125678D01*
X0032806Y0125518D01*
X0032768Y0125358D01*
X0032727Y0125199D01*
X0032681Y0125041D01*
X0032631Y0124885D01*
X0032578Y0124729D01*
X0032521Y0124575D01*
X0032460Y0124423D01*
X0032395Y0124272D01*
X0032326Y0124122D01*
X0032254Y0123975D01*
X0032179Y0123829D01*
X0032099Y0123685D01*
X0032017Y0123543D01*
X0031931Y0123403D01*
X0031841Y0123266D01*
X0031748Y0123130D01*
X0031652Y0122997D01*
X0031552Y0122866D01*
X0031450Y0122738D01*
X0031344Y0122612D01*
X0031235Y0122489D01*
X0031123Y0122369D01*
X0031009Y0122251D01*
X0030891Y0122137D01*
X0030771Y0122025D01*
X0030648Y0121916D01*
X0030522Y0121810D01*
X0030394Y0121708D01*
X0030263Y0121608D01*
X0030130Y0121512D01*
X0029994Y0121419D01*
X0029857Y0121329D01*
X0029717Y0121243D01*
X0029575Y0121161D01*
X0029431Y0121081D01*
X0029285Y0121006D01*
X0029138Y0120934D01*
X0028988Y0120865D01*
X0028837Y0120800D01*
X0028685Y0120739D01*
X0028531Y0120682D01*
X0028375Y0120629D01*
X0028219Y0120579D01*
X0028061Y0120533D01*
X0027902Y0120492D01*
X0027742Y0120454D01*
X0027582Y0120420D01*
X0027420Y0120390D01*
X0027258Y0120363D01*
X0027095Y0120341D01*
X0026932Y0120323D01*
X0026768Y0120309D01*
X0026604Y0120299D01*
X0026440Y0120293D01*
X0026276Y0120291D01*
X0026112Y0120293D01*
X0025948Y0120299D01*
X0025784Y0120309D01*
X0025620Y0120323D01*
X0025457Y0120341D01*
X0025294Y0120363D01*
X0025132Y0120390D01*
X0024970Y0120420D01*
X0024810Y0120454D01*
X0024650Y0120492D01*
X0024491Y0120533D01*
X0024333Y0120579D01*
X0024177Y0120629D01*
X0024021Y0120682D01*
X0023867Y0120739D01*
X0023715Y0120800D01*
X0023564Y0120865D01*
X0023414Y0120934D01*
X0023267Y0121006D01*
X0023121Y0121081D01*
X0022977Y0121161D01*
X0022835Y0121243D01*
X0022695Y0121329D01*
X0022558Y0121419D01*
X0022422Y0121512D01*
X0022289Y0121608D01*
X0022158Y0121708D01*
X0022030Y0121810D01*
X0021904Y0121916D01*
X0021781Y0122025D01*
X0021661Y0122137D01*
X0021543Y0122251D01*
X0021429Y0122369D01*
X0021317Y0122489D01*
X0021208Y0122612D01*
X0021102Y0122738D01*
X0021000Y0122866D01*
X0020900Y0122997D01*
X0020804Y0123130D01*
X0020711Y0123266D01*
X0020621Y0123403D01*
X0020535Y0123543D01*
X0020453Y0123685D01*
X0020373Y0123829D01*
X0020298Y0123975D01*
X0020226Y0124122D01*
X0020157Y0124272D01*
X0020092Y0124423D01*
X0020031Y0124575D01*
X0019974Y0124729D01*
X0019921Y0124885D01*
X0019871Y0125041D01*
X0019825Y0125199D01*
X0019784Y0125358D01*
X0019746Y0125518D01*
X0019712Y0125678D01*
X0019682Y0125840D01*
X0019655Y0126002D01*
X0019633Y0126165D01*
X0019615Y0126328D01*
X0019601Y0126492D01*
X0019591Y0126656D01*
X0019585Y0126820D01*
X0019583Y0126984D01*
X0012776Y0126984D02*
X0012780Y0127315D01*
X0012792Y0127646D01*
X0012813Y0127977D01*
X0012841Y0128307D01*
X0012878Y0128637D01*
X0012922Y0128965D01*
X0012975Y0129292D01*
X0013035Y0129618D01*
X0013104Y0129942D01*
X0013181Y0130264D01*
X0013265Y0130585D01*
X0013357Y0130903D01*
X0013457Y0131219D01*
X0013565Y0131532D01*
X0013681Y0131843D01*
X0013804Y0132150D01*
X0013934Y0132455D01*
X0014072Y0132756D01*
X0014217Y0133054D01*
X0014370Y0133348D01*
X0014530Y0133638D01*
X0014697Y0133924D01*
X0014870Y0134206D01*
X0015051Y0134484D01*
X0015239Y0134757D01*
X0015433Y0135026D01*
X0015633Y0135290D01*
X0015840Y0135548D01*
X0016054Y0135802D01*
X0016273Y0136050D01*
X0016499Y0136293D01*
X0016730Y0136530D01*
X0016967Y0136761D01*
X0017210Y0136987D01*
X0017458Y0137206D01*
X0017712Y0137420D01*
X0017970Y0137627D01*
X0018234Y0137827D01*
X0018503Y0138021D01*
X0018776Y0138209D01*
X0019054Y0138390D01*
X0019336Y0138563D01*
X0019622Y0138730D01*
X0019912Y0138890D01*
X0020206Y0139043D01*
X0020504Y0139188D01*
X0020805Y0139326D01*
X0021110Y0139456D01*
X0021417Y0139579D01*
X0021728Y0139695D01*
X0022041Y0139803D01*
X0022357Y0139903D01*
X0022675Y0139995D01*
X0022996Y0140079D01*
X0023318Y0140156D01*
X0023642Y0140225D01*
X0023968Y0140285D01*
X0024295Y0140338D01*
X0024623Y0140382D01*
X0024953Y0140419D01*
X0025283Y0140447D01*
X0025614Y0140468D01*
X0025945Y0140480D01*
X0026276Y0140484D01*
X0026607Y0140480D01*
X0026938Y0140468D01*
X0027269Y0140447D01*
X0027599Y0140419D01*
X0027929Y0140382D01*
X0028257Y0140338D01*
X0028584Y0140285D01*
X0028910Y0140225D01*
X0029234Y0140156D01*
X0029556Y0140079D01*
X0029877Y0139995D01*
X0030195Y0139903D01*
X0030511Y0139803D01*
X0030824Y0139695D01*
X0031135Y0139579D01*
X0031442Y0139456D01*
X0031747Y0139326D01*
X0032048Y0139188D01*
X0032346Y0139043D01*
X0032640Y0138890D01*
X0032930Y0138730D01*
X0033216Y0138563D01*
X0033498Y0138390D01*
X0033776Y0138209D01*
X0034049Y0138021D01*
X0034318Y0137827D01*
X0034582Y0137627D01*
X0034840Y0137420D01*
X0035094Y0137206D01*
X0035342Y0136987D01*
X0035585Y0136761D01*
X0035822Y0136530D01*
X0036053Y0136293D01*
X0036279Y0136050D01*
X0036498Y0135802D01*
X0036712Y0135548D01*
X0036919Y0135290D01*
X0037119Y0135026D01*
X0037313Y0134757D01*
X0037501Y0134484D01*
X0037682Y0134206D01*
X0037855Y0133924D01*
X0038022Y0133638D01*
X0038182Y0133348D01*
X0038335Y0133054D01*
X0038480Y0132756D01*
X0038618Y0132455D01*
X0038748Y0132150D01*
X0038871Y0131843D01*
X0038987Y0131532D01*
X0039095Y0131219D01*
X0039195Y0130903D01*
X0039287Y0130585D01*
X0039371Y0130264D01*
X0039448Y0129942D01*
X0039517Y0129618D01*
X0039577Y0129292D01*
X0039630Y0128965D01*
X0039674Y0128637D01*
X0039711Y0128307D01*
X0039739Y0127977D01*
X0039760Y0127646D01*
X0039772Y0127315D01*
X0039776Y0126984D01*
X0039772Y0126653D01*
X0039760Y0126322D01*
X0039739Y0125991D01*
X0039711Y0125661D01*
X0039674Y0125331D01*
X0039630Y0125003D01*
X0039577Y0124676D01*
X0039517Y0124350D01*
X0039448Y0124026D01*
X0039371Y0123704D01*
X0039287Y0123383D01*
X0039195Y0123065D01*
X0039095Y0122749D01*
X0038987Y0122436D01*
X0038871Y0122125D01*
X0038748Y0121818D01*
X0038618Y0121513D01*
X0038480Y0121212D01*
X0038335Y0120914D01*
X0038182Y0120620D01*
X0038022Y0120330D01*
X0037855Y0120044D01*
X0037682Y0119762D01*
X0037501Y0119484D01*
X0037313Y0119211D01*
X0037119Y0118942D01*
X0036919Y0118678D01*
X0036712Y0118420D01*
X0036498Y0118166D01*
X0036279Y0117918D01*
X0036053Y0117675D01*
X0035822Y0117438D01*
X0035585Y0117207D01*
X0035342Y0116981D01*
X0035094Y0116762D01*
X0034840Y0116548D01*
X0034582Y0116341D01*
X0034318Y0116141D01*
X0034049Y0115947D01*
X0033776Y0115759D01*
X0033498Y0115578D01*
X0033216Y0115405D01*
X0032930Y0115238D01*
X0032640Y0115078D01*
X0032346Y0114925D01*
X0032048Y0114780D01*
X0031747Y0114642D01*
X0031442Y0114512D01*
X0031135Y0114389D01*
X0030824Y0114273D01*
X0030511Y0114165D01*
X0030195Y0114065D01*
X0029877Y0113973D01*
X0029556Y0113889D01*
X0029234Y0113812D01*
X0028910Y0113743D01*
X0028584Y0113683D01*
X0028257Y0113630D01*
X0027929Y0113586D01*
X0027599Y0113549D01*
X0027269Y0113521D01*
X0026938Y0113500D01*
X0026607Y0113488D01*
X0026276Y0113484D01*
X0025945Y0113488D01*
X0025614Y0113500D01*
X0025283Y0113521D01*
X0024953Y0113549D01*
X0024623Y0113586D01*
X0024295Y0113630D01*
X0023968Y0113683D01*
X0023642Y0113743D01*
X0023318Y0113812D01*
X0022996Y0113889D01*
X0022675Y0113973D01*
X0022357Y0114065D01*
X0022041Y0114165D01*
X0021728Y0114273D01*
X0021417Y0114389D01*
X0021110Y0114512D01*
X0020805Y0114642D01*
X0020504Y0114780D01*
X0020206Y0114925D01*
X0019912Y0115078D01*
X0019622Y0115238D01*
X0019336Y0115405D01*
X0019054Y0115578D01*
X0018776Y0115759D01*
X0018503Y0115947D01*
X0018234Y0116141D01*
X0017970Y0116341D01*
X0017712Y0116548D01*
X0017458Y0116762D01*
X0017210Y0116981D01*
X0016967Y0117207D01*
X0016730Y0117438D01*
X0016499Y0117675D01*
X0016273Y0117918D01*
X0016054Y0118166D01*
X0015840Y0118420D01*
X0015633Y0118678D01*
X0015433Y0118942D01*
X0015239Y0119211D01*
X0015051Y0119484D01*
X0014870Y0119762D01*
X0014697Y0120044D01*
X0014530Y0120330D01*
X0014370Y0120620D01*
X0014217Y0120914D01*
X0014072Y0121212D01*
X0013934Y0121513D01*
X0013804Y0121818D01*
X0013681Y0122125D01*
X0013565Y0122436D01*
X0013457Y0122749D01*
X0013357Y0123065D01*
X0013265Y0123383D01*
X0013181Y0123704D01*
X0013104Y0124026D01*
X0013035Y0124350D01*
X0012975Y0124676D01*
X0012922Y0125003D01*
X0012878Y0125331D01*
X0012841Y0125661D01*
X0012813Y0125991D01*
X0012792Y0126322D01*
X0012780Y0126653D01*
X0012776Y0126984D01*
X0067914Y0131716D02*
X0071470Y0131716D01*
X0069692Y0131716D02*
X0069692Y0125316D01*
X0073589Y0125316D02*
X0073589Y0129582D01*
X0073767Y0131360D02*
X0073412Y0131360D01*
X0073412Y0131716D01*
X0073767Y0131716D01*
X0073767Y0131360D01*
X0076270Y0129582D02*
X0078048Y0129582D01*
X0078048Y0129583D02*
X0078112Y0129581D01*
X0078177Y0129575D01*
X0078240Y0129566D01*
X0078303Y0129552D01*
X0078365Y0129535D01*
X0078426Y0129514D01*
X0078486Y0129489D01*
X0078544Y0129461D01*
X0078600Y0129429D01*
X0078654Y0129394D01*
X0078706Y0129356D01*
X0078756Y0129315D01*
X0078802Y0129270D01*
X0078847Y0129224D01*
X0078888Y0129174D01*
X0078926Y0129122D01*
X0078961Y0129068D01*
X0078993Y0129012D01*
X0079021Y0128954D01*
X0079046Y0128894D01*
X0079067Y0128833D01*
X0079084Y0128771D01*
X0079098Y0128708D01*
X0079107Y0128645D01*
X0079113Y0128580D01*
X0079115Y0128516D01*
X0079114Y0128516D02*
X0079114Y0125316D01*
X0076270Y0125316D02*
X0076270Y0129582D01*
X0081603Y0129582D02*
X0083026Y0125316D01*
X0082315Y0123182D02*
X0081603Y0123182D01*
X0082315Y0123182D02*
X0084448Y0129582D01*
X0087075Y0128160D02*
X0088852Y0128160D01*
X0088935Y0128162D01*
X0089018Y0128168D01*
X0089101Y0128178D01*
X0089184Y0128191D01*
X0089265Y0128209D01*
X0089346Y0128230D01*
X0089425Y0128255D01*
X0089503Y0128284D01*
X0089580Y0128316D01*
X0089655Y0128352D01*
X0089729Y0128391D01*
X0089800Y0128434D01*
X0089870Y0128480D01*
X0089937Y0128530D01*
X0090002Y0128582D01*
X0090064Y0128637D01*
X0090124Y0128696D01*
X0090181Y0128757D01*
X0090235Y0128820D01*
X0090286Y0128886D01*
X0090333Y0128955D01*
X0090378Y0129025D01*
X0090419Y0129098D01*
X0090456Y0129172D01*
X0090491Y0129248D01*
X0090521Y0129326D01*
X0090548Y0129404D01*
X0090571Y0129485D01*
X0090591Y0129566D01*
X0090606Y0129648D01*
X0090618Y0129730D01*
X0090626Y0129813D01*
X0090630Y0129896D01*
X0090630Y0129980D01*
X0090626Y0130063D01*
X0090618Y0130146D01*
X0090606Y0130228D01*
X0090591Y0130310D01*
X0090571Y0130391D01*
X0090548Y0130472D01*
X0090521Y0130550D01*
X0090491Y0130628D01*
X0090456Y0130704D01*
X0090419Y0130778D01*
X0090378Y0130851D01*
X0090333Y0130921D01*
X0090286Y0130990D01*
X0090235Y0131056D01*
X0090181Y0131119D01*
X0090124Y0131180D01*
X0090064Y0131239D01*
X0090002Y0131294D01*
X0089937Y0131346D01*
X0089870Y0131396D01*
X0089800Y0131442D01*
X0089729Y0131485D01*
X0089655Y0131524D01*
X0089580Y0131560D01*
X0089503Y0131592D01*
X0089425Y0131621D01*
X0089346Y0131646D01*
X0089265Y0131667D01*
X0089184Y0131685D01*
X0089101Y0131698D01*
X0089018Y0131708D01*
X0088935Y0131714D01*
X0088852Y0131716D01*
X0087075Y0131716D01*
X0087075Y0125316D01*
X0092776Y0125316D02*
X0094199Y0125316D01*
X0093487Y0125316D02*
X0093487Y0131716D01*
X0092776Y0131716D02*
X0094199Y0131716D01*
X0096617Y0130294D02*
X0096617Y0126738D01*
X0096618Y0126738D02*
X0096620Y0126664D01*
X0096626Y0126589D01*
X0096636Y0126516D01*
X0096649Y0126442D01*
X0096666Y0126370D01*
X0096688Y0126299D01*
X0096712Y0126228D01*
X0096741Y0126160D01*
X0096773Y0126092D01*
X0096809Y0126027D01*
X0096847Y0125964D01*
X0096890Y0125902D01*
X0096935Y0125843D01*
X0096983Y0125786D01*
X0097034Y0125732D01*
X0097088Y0125681D01*
X0097145Y0125633D01*
X0097204Y0125588D01*
X0097266Y0125545D01*
X0097329Y0125507D01*
X0097394Y0125471D01*
X0097462Y0125439D01*
X0097530Y0125410D01*
X0097601Y0125386D01*
X0097672Y0125364D01*
X0097744Y0125347D01*
X0097818Y0125334D01*
X0097891Y0125324D01*
X0097966Y0125318D01*
X0098040Y0125316D01*
X0099462Y0125316D01*
X0101761Y0127094D02*
X0101761Y0129938D01*
X0101763Y0130021D01*
X0101769Y0130104D01*
X0101779Y0130187D01*
X0101792Y0130270D01*
X0101810Y0130351D01*
X0101831Y0130432D01*
X0101856Y0130511D01*
X0101885Y0130589D01*
X0101917Y0130666D01*
X0101953Y0130741D01*
X0101992Y0130815D01*
X0102035Y0130886D01*
X0102081Y0130956D01*
X0102131Y0131023D01*
X0102183Y0131088D01*
X0102238Y0131150D01*
X0102297Y0131210D01*
X0102358Y0131267D01*
X0102421Y0131321D01*
X0102487Y0131372D01*
X0102556Y0131419D01*
X0102626Y0131464D01*
X0102699Y0131505D01*
X0102773Y0131542D01*
X0102849Y0131577D01*
X0102927Y0131607D01*
X0103005Y0131634D01*
X0103086Y0131657D01*
X0103167Y0131677D01*
X0103249Y0131692D01*
X0103331Y0131704D01*
X0103414Y0131712D01*
X0103497Y0131716D01*
X0103581Y0131716D01*
X0103664Y0131712D01*
X0103747Y0131704D01*
X0103829Y0131692D01*
X0103911Y0131677D01*
X0103992Y0131657D01*
X0104073Y0131634D01*
X0104151Y0131607D01*
X0104229Y0131577D01*
X0104305Y0131542D01*
X0104379Y0131505D01*
X0104452Y0131464D01*
X0104522Y0131419D01*
X0104591Y0131372D01*
X0104657Y0131321D01*
X0104720Y0131267D01*
X0104781Y0131210D01*
X0104840Y0131150D01*
X0104895Y0131088D01*
X0104947Y0131023D01*
X0104997Y0130956D01*
X0105043Y0130886D01*
X0105086Y0130815D01*
X0105125Y0130741D01*
X0105161Y0130666D01*
X0105193Y0130589D01*
X0105222Y0130511D01*
X0105247Y0130432D01*
X0105268Y0130351D01*
X0105286Y0130270D01*
X0105299Y0130187D01*
X0105309Y0130104D01*
X0105315Y0130021D01*
X0105317Y0129938D01*
X0105317Y0127094D01*
X0105315Y0127011D01*
X0105309Y0126928D01*
X0105299Y0126845D01*
X0105286Y0126762D01*
X0105268Y0126681D01*
X0105247Y0126600D01*
X0105222Y0126521D01*
X0105193Y0126443D01*
X0105161Y0126366D01*
X0105125Y0126291D01*
X0105086Y0126217D01*
X0105043Y0126146D01*
X0104997Y0126076D01*
X0104947Y0126009D01*
X0104895Y0125944D01*
X0104840Y0125882D01*
X0104781Y0125822D01*
X0104720Y0125765D01*
X0104657Y0125711D01*
X0104591Y0125660D01*
X0104522Y0125613D01*
X0104452Y0125568D01*
X0104379Y0125527D01*
X0104305Y0125490D01*
X0104229Y0125455D01*
X0104151Y0125425D01*
X0104073Y0125398D01*
X0103992Y0125375D01*
X0103911Y0125355D01*
X0103829Y0125340D01*
X0103747Y0125328D01*
X0103664Y0125320D01*
X0103581Y0125316D01*
X0103497Y0125316D01*
X0103414Y0125320D01*
X0103331Y0125328D01*
X0103249Y0125340D01*
X0103167Y0125355D01*
X0103086Y0125375D01*
X0103005Y0125398D01*
X0102927Y0125425D01*
X0102849Y0125455D01*
X0102773Y0125490D01*
X0102699Y0125527D01*
X0102626Y0125568D01*
X0102556Y0125613D01*
X0102487Y0125660D01*
X0102421Y0125711D01*
X0102358Y0125765D01*
X0102297Y0125822D01*
X0102238Y0125882D01*
X0102183Y0125944D01*
X0102131Y0126009D01*
X0102081Y0126076D01*
X0102035Y0126146D01*
X0101992Y0126217D01*
X0101953Y0126291D01*
X0101917Y0126366D01*
X0101885Y0126443D01*
X0101856Y0126521D01*
X0101831Y0126600D01*
X0101810Y0126681D01*
X0101792Y0126762D01*
X0101779Y0126845D01*
X0101769Y0126928D01*
X0101763Y0127011D01*
X0101761Y0127094D01*
X0098040Y0131716D02*
X0097966Y0131714D01*
X0097891Y0131708D01*
X0097818Y0131698D01*
X0097744Y0131685D01*
X0097672Y0131668D01*
X0097601Y0131646D01*
X0097530Y0131622D01*
X0097462Y0131593D01*
X0097394Y0131561D01*
X0097329Y0131525D01*
X0097266Y0131487D01*
X0097204Y0131444D01*
X0097145Y0131399D01*
X0097088Y0131351D01*
X0097034Y0131300D01*
X0096983Y0131245D01*
X0096935Y0131189D01*
X0096890Y0131130D01*
X0096847Y0131068D01*
X0096809Y0131005D01*
X0096773Y0130940D01*
X0096741Y0130872D01*
X0096712Y0130804D01*
X0096688Y0130733D01*
X0096666Y0130662D01*
X0096649Y0130590D01*
X0096636Y0130516D01*
X0096626Y0130443D01*
X0096620Y0130368D01*
X0096618Y0130294D01*
X0098040Y0131716D02*
X0099462Y0131716D01*
X0141630Y0126984D02*
X0141632Y0127148D01*
X0141638Y0127312D01*
X0141648Y0127476D01*
X0141662Y0127640D01*
X0141680Y0127803D01*
X0141702Y0127966D01*
X0141729Y0128128D01*
X0141759Y0128290D01*
X0141793Y0128450D01*
X0141831Y0128610D01*
X0141872Y0128769D01*
X0141918Y0128927D01*
X0141968Y0129083D01*
X0142021Y0129239D01*
X0142078Y0129393D01*
X0142139Y0129545D01*
X0142204Y0129696D01*
X0142273Y0129846D01*
X0142345Y0129993D01*
X0142420Y0130139D01*
X0142500Y0130283D01*
X0142582Y0130425D01*
X0142668Y0130565D01*
X0142758Y0130702D01*
X0142851Y0130838D01*
X0142947Y0130971D01*
X0143047Y0131102D01*
X0143149Y0131230D01*
X0143255Y0131356D01*
X0143364Y0131479D01*
X0143476Y0131599D01*
X0143590Y0131717D01*
X0143708Y0131831D01*
X0143828Y0131943D01*
X0143951Y0132052D01*
X0144077Y0132158D01*
X0144205Y0132260D01*
X0144336Y0132360D01*
X0144469Y0132456D01*
X0144605Y0132549D01*
X0144742Y0132639D01*
X0144882Y0132725D01*
X0145024Y0132807D01*
X0145168Y0132887D01*
X0145314Y0132962D01*
X0145461Y0133034D01*
X0145611Y0133103D01*
X0145762Y0133168D01*
X0145914Y0133229D01*
X0146068Y0133286D01*
X0146224Y0133339D01*
X0146380Y0133389D01*
X0146538Y0133435D01*
X0146697Y0133476D01*
X0146857Y0133514D01*
X0147017Y0133548D01*
X0147179Y0133578D01*
X0147341Y0133605D01*
X0147504Y0133627D01*
X0147667Y0133645D01*
X0147831Y0133659D01*
X0147995Y0133669D01*
X0148159Y0133675D01*
X0148323Y0133677D01*
X0148487Y0133675D01*
X0148651Y0133669D01*
X0148815Y0133659D01*
X0148979Y0133645D01*
X0149142Y0133627D01*
X0149305Y0133605D01*
X0149467Y0133578D01*
X0149629Y0133548D01*
X0149789Y0133514D01*
X0149949Y0133476D01*
X0150108Y0133435D01*
X0150266Y0133389D01*
X0150422Y0133339D01*
X0150578Y0133286D01*
X0150732Y0133229D01*
X0150884Y0133168D01*
X0151035Y0133103D01*
X0151185Y0133034D01*
X0151332Y0132962D01*
X0151478Y0132887D01*
X0151622Y0132807D01*
X0151764Y0132725D01*
X0151904Y0132639D01*
X0152041Y0132549D01*
X0152177Y0132456D01*
X0152310Y0132360D01*
X0152441Y0132260D01*
X0152569Y0132158D01*
X0152695Y0132052D01*
X0152818Y0131943D01*
X0152938Y0131831D01*
X0153056Y0131717D01*
X0153170Y0131599D01*
X0153282Y0131479D01*
X0153391Y0131356D01*
X0153497Y0131230D01*
X0153599Y0131102D01*
X0153699Y0130971D01*
X0153795Y0130838D01*
X0153888Y0130702D01*
X0153978Y0130565D01*
X0154064Y0130425D01*
X0154146Y0130283D01*
X0154226Y0130139D01*
X0154301Y0129993D01*
X0154373Y0129846D01*
X0154442Y0129696D01*
X0154507Y0129545D01*
X0154568Y0129393D01*
X0154625Y0129239D01*
X0154678Y0129083D01*
X0154728Y0128927D01*
X0154774Y0128769D01*
X0154815Y0128610D01*
X0154853Y0128450D01*
X0154887Y0128290D01*
X0154917Y0128128D01*
X0154944Y0127966D01*
X0154966Y0127803D01*
X0154984Y0127640D01*
X0154998Y0127476D01*
X0155008Y0127312D01*
X0155014Y0127148D01*
X0155016Y0126984D01*
X0155014Y0126820D01*
X0155008Y0126656D01*
X0154998Y0126492D01*
X0154984Y0126328D01*
X0154966Y0126165D01*
X0154944Y0126002D01*
X0154917Y0125840D01*
X0154887Y0125678D01*
X0154853Y0125518D01*
X0154815Y0125358D01*
X0154774Y0125199D01*
X0154728Y0125041D01*
X0154678Y0124885D01*
X0154625Y0124729D01*
X0154568Y0124575D01*
X0154507Y0124423D01*
X0154442Y0124272D01*
X0154373Y0124122D01*
X0154301Y0123975D01*
X0154226Y0123829D01*
X0154146Y0123685D01*
X0154064Y0123543D01*
X0153978Y0123403D01*
X0153888Y0123266D01*
X0153795Y0123130D01*
X0153699Y0122997D01*
X0153599Y0122866D01*
X0153497Y0122738D01*
X0153391Y0122612D01*
X0153282Y0122489D01*
X0153170Y0122369D01*
X0153056Y0122251D01*
X0152938Y0122137D01*
X0152818Y0122025D01*
X0152695Y0121916D01*
X0152569Y0121810D01*
X0152441Y0121708D01*
X0152310Y0121608D01*
X0152177Y0121512D01*
X0152041Y0121419D01*
X0151904Y0121329D01*
X0151764Y0121243D01*
X0151622Y0121161D01*
X0151478Y0121081D01*
X0151332Y0121006D01*
X0151185Y0120934D01*
X0151035Y0120865D01*
X0150884Y0120800D01*
X0150732Y0120739D01*
X0150578Y0120682D01*
X0150422Y0120629D01*
X0150266Y0120579D01*
X0150108Y0120533D01*
X0149949Y0120492D01*
X0149789Y0120454D01*
X0149629Y0120420D01*
X0149467Y0120390D01*
X0149305Y0120363D01*
X0149142Y0120341D01*
X0148979Y0120323D01*
X0148815Y0120309D01*
X0148651Y0120299D01*
X0148487Y0120293D01*
X0148323Y0120291D01*
X0148159Y0120293D01*
X0147995Y0120299D01*
X0147831Y0120309D01*
X0147667Y0120323D01*
X0147504Y0120341D01*
X0147341Y0120363D01*
X0147179Y0120390D01*
X0147017Y0120420D01*
X0146857Y0120454D01*
X0146697Y0120492D01*
X0146538Y0120533D01*
X0146380Y0120579D01*
X0146224Y0120629D01*
X0146068Y0120682D01*
X0145914Y0120739D01*
X0145762Y0120800D01*
X0145611Y0120865D01*
X0145461Y0120934D01*
X0145314Y0121006D01*
X0145168Y0121081D01*
X0145024Y0121161D01*
X0144882Y0121243D01*
X0144742Y0121329D01*
X0144605Y0121419D01*
X0144469Y0121512D01*
X0144336Y0121608D01*
X0144205Y0121708D01*
X0144077Y0121810D01*
X0143951Y0121916D01*
X0143828Y0122025D01*
X0143708Y0122137D01*
X0143590Y0122251D01*
X0143476Y0122369D01*
X0143364Y0122489D01*
X0143255Y0122612D01*
X0143149Y0122738D01*
X0143047Y0122866D01*
X0142947Y0122997D01*
X0142851Y0123130D01*
X0142758Y0123266D01*
X0142668Y0123403D01*
X0142582Y0123543D01*
X0142500Y0123685D01*
X0142420Y0123829D01*
X0142345Y0123975D01*
X0142273Y0124122D01*
X0142204Y0124272D01*
X0142139Y0124423D01*
X0142078Y0124575D01*
X0142021Y0124729D01*
X0141968Y0124885D01*
X0141918Y0125041D01*
X0141872Y0125199D01*
X0141831Y0125358D01*
X0141793Y0125518D01*
X0141759Y0125678D01*
X0141729Y0125840D01*
X0141702Y0126002D01*
X0141680Y0126165D01*
X0141662Y0126328D01*
X0141648Y0126492D01*
X0141638Y0126656D01*
X0141632Y0126820D01*
X0141630Y0126984D01*
X0134823Y0126984D02*
X0134827Y0127315D01*
X0134839Y0127646D01*
X0134860Y0127977D01*
X0134888Y0128307D01*
X0134925Y0128637D01*
X0134969Y0128965D01*
X0135022Y0129292D01*
X0135082Y0129618D01*
X0135151Y0129942D01*
X0135228Y0130264D01*
X0135312Y0130585D01*
X0135404Y0130903D01*
X0135504Y0131219D01*
X0135612Y0131532D01*
X0135728Y0131843D01*
X0135851Y0132150D01*
X0135981Y0132455D01*
X0136119Y0132756D01*
X0136264Y0133054D01*
X0136417Y0133348D01*
X0136577Y0133638D01*
X0136744Y0133924D01*
X0136917Y0134206D01*
X0137098Y0134484D01*
X0137286Y0134757D01*
X0137480Y0135026D01*
X0137680Y0135290D01*
X0137887Y0135548D01*
X0138101Y0135802D01*
X0138320Y0136050D01*
X0138546Y0136293D01*
X0138777Y0136530D01*
X0139014Y0136761D01*
X0139257Y0136987D01*
X0139505Y0137206D01*
X0139759Y0137420D01*
X0140017Y0137627D01*
X0140281Y0137827D01*
X0140550Y0138021D01*
X0140823Y0138209D01*
X0141101Y0138390D01*
X0141383Y0138563D01*
X0141669Y0138730D01*
X0141959Y0138890D01*
X0142253Y0139043D01*
X0142551Y0139188D01*
X0142852Y0139326D01*
X0143157Y0139456D01*
X0143464Y0139579D01*
X0143775Y0139695D01*
X0144088Y0139803D01*
X0144404Y0139903D01*
X0144722Y0139995D01*
X0145043Y0140079D01*
X0145365Y0140156D01*
X0145689Y0140225D01*
X0146015Y0140285D01*
X0146342Y0140338D01*
X0146670Y0140382D01*
X0147000Y0140419D01*
X0147330Y0140447D01*
X0147661Y0140468D01*
X0147992Y0140480D01*
X0148323Y0140484D01*
X0148654Y0140480D01*
X0148985Y0140468D01*
X0149316Y0140447D01*
X0149646Y0140419D01*
X0149976Y0140382D01*
X0150304Y0140338D01*
X0150631Y0140285D01*
X0150957Y0140225D01*
X0151281Y0140156D01*
X0151603Y0140079D01*
X0151924Y0139995D01*
X0152242Y0139903D01*
X0152558Y0139803D01*
X0152871Y0139695D01*
X0153182Y0139579D01*
X0153489Y0139456D01*
X0153794Y0139326D01*
X0154095Y0139188D01*
X0154393Y0139043D01*
X0154687Y0138890D01*
X0154977Y0138730D01*
X0155263Y0138563D01*
X0155545Y0138390D01*
X0155823Y0138209D01*
X0156096Y0138021D01*
X0156365Y0137827D01*
X0156629Y0137627D01*
X0156887Y0137420D01*
X0157141Y0137206D01*
X0157389Y0136987D01*
X0157632Y0136761D01*
X0157869Y0136530D01*
X0158100Y0136293D01*
X0158326Y0136050D01*
X0158545Y0135802D01*
X0158759Y0135548D01*
X0158966Y0135290D01*
X0159166Y0135026D01*
X0159360Y0134757D01*
X0159548Y0134484D01*
X0159729Y0134206D01*
X0159902Y0133924D01*
X0160069Y0133638D01*
X0160229Y0133348D01*
X0160382Y0133054D01*
X0160527Y0132756D01*
X0160665Y0132455D01*
X0160795Y0132150D01*
X0160918Y0131843D01*
X0161034Y0131532D01*
X0161142Y0131219D01*
X0161242Y0130903D01*
X0161334Y0130585D01*
X0161418Y0130264D01*
X0161495Y0129942D01*
X0161564Y0129618D01*
X0161624Y0129292D01*
X0161677Y0128965D01*
X0161721Y0128637D01*
X0161758Y0128307D01*
X0161786Y0127977D01*
X0161807Y0127646D01*
X0161819Y0127315D01*
X0161823Y0126984D01*
X0161819Y0126653D01*
X0161807Y0126322D01*
X0161786Y0125991D01*
X0161758Y0125661D01*
X0161721Y0125331D01*
X0161677Y0125003D01*
X0161624Y0124676D01*
X0161564Y0124350D01*
X0161495Y0124026D01*
X0161418Y0123704D01*
X0161334Y0123383D01*
X0161242Y0123065D01*
X0161142Y0122749D01*
X0161034Y0122436D01*
X0160918Y0122125D01*
X0160795Y0121818D01*
X0160665Y0121513D01*
X0160527Y0121212D01*
X0160382Y0120914D01*
X0160229Y0120620D01*
X0160069Y0120330D01*
X0159902Y0120044D01*
X0159729Y0119762D01*
X0159548Y0119484D01*
X0159360Y0119211D01*
X0159166Y0118942D01*
X0158966Y0118678D01*
X0158759Y0118420D01*
X0158545Y0118166D01*
X0158326Y0117918D01*
X0158100Y0117675D01*
X0157869Y0117438D01*
X0157632Y0117207D01*
X0157389Y0116981D01*
X0157141Y0116762D01*
X0156887Y0116548D01*
X0156629Y0116341D01*
X0156365Y0116141D01*
X0156096Y0115947D01*
X0155823Y0115759D01*
X0155545Y0115578D01*
X0155263Y0115405D01*
X0154977Y0115238D01*
X0154687Y0115078D01*
X0154393Y0114925D01*
X0154095Y0114780D01*
X0153794Y0114642D01*
X0153489Y0114512D01*
X0153182Y0114389D01*
X0152871Y0114273D01*
X0152558Y0114165D01*
X0152242Y0114065D01*
X0151924Y0113973D01*
X0151603Y0113889D01*
X0151281Y0113812D01*
X0150957Y0113743D01*
X0150631Y0113683D01*
X0150304Y0113630D01*
X0149976Y0113586D01*
X0149646Y0113549D01*
X0149316Y0113521D01*
X0148985Y0113500D01*
X0148654Y0113488D01*
X0148323Y0113484D01*
X0147992Y0113488D01*
X0147661Y0113500D01*
X0147330Y0113521D01*
X0147000Y0113549D01*
X0146670Y0113586D01*
X0146342Y0113630D01*
X0146015Y0113683D01*
X0145689Y0113743D01*
X0145365Y0113812D01*
X0145043Y0113889D01*
X0144722Y0113973D01*
X0144404Y0114065D01*
X0144088Y0114165D01*
X0143775Y0114273D01*
X0143464Y0114389D01*
X0143157Y0114512D01*
X0142852Y0114642D01*
X0142551Y0114780D01*
X0142253Y0114925D01*
X0141959Y0115078D01*
X0141669Y0115238D01*
X0141383Y0115405D01*
X0141101Y0115578D01*
X0140823Y0115759D01*
X0140550Y0115947D01*
X0140281Y0116141D01*
X0140017Y0116341D01*
X0139759Y0116548D01*
X0139505Y0116762D01*
X0139257Y0116981D01*
X0139014Y0117207D01*
X0138777Y0117438D01*
X0138546Y0117675D01*
X0138320Y0117918D01*
X0138101Y0118166D01*
X0137887Y0118420D01*
X0137680Y0118678D01*
X0137480Y0118942D01*
X0137286Y0119211D01*
X0137098Y0119484D01*
X0136917Y0119762D01*
X0136744Y0120044D01*
X0136577Y0120330D01*
X0136417Y0120620D01*
X0136264Y0120914D01*
X0136119Y0121212D01*
X0135981Y0121513D01*
X0135851Y0121818D01*
X0135728Y0122125D01*
X0135612Y0122436D01*
X0135504Y0122749D01*
X0135404Y0123065D01*
X0135312Y0123383D01*
X0135228Y0123704D01*
X0135151Y0124026D01*
X0135082Y0124350D01*
X0135022Y0124676D01*
X0134969Y0125003D01*
X0134925Y0125331D01*
X0134888Y0125661D01*
X0134860Y0125991D01*
X0134839Y0126322D01*
X0134827Y0126653D01*
X0134823Y0126984D01*
D13*
X0107249Y0048157D02*
X0105194Y0048157D01*
X0106221Y0048157D02*
X0106221Y0044457D01*
X0104095Y0044457D02*
X0101628Y0048157D01*
X0100485Y0048157D02*
X0098841Y0048157D01*
X0098841Y0044457D01*
X0100485Y0044457D01*
X0101628Y0044457D02*
X0104095Y0048157D01*
X0100074Y0046513D02*
X0098841Y0046513D01*
X0097375Y0048157D02*
X0096142Y0044457D01*
X0094908Y0048157D01*
X0079728Y0048157D02*
X0078084Y0048157D01*
X0078084Y0044457D01*
X0076608Y0044457D02*
X0074964Y0044457D01*
X0074964Y0048157D01*
X0076608Y0048157D01*
X0076197Y0046513D02*
X0074964Y0046513D01*
X0072493Y0046102D02*
X0073315Y0044457D01*
X0072287Y0046102D02*
X0071259Y0046102D01*
X0072287Y0046101D02*
X0072350Y0046103D01*
X0072413Y0046109D01*
X0072476Y0046119D01*
X0072538Y0046132D01*
X0072599Y0046149D01*
X0072658Y0046170D01*
X0072717Y0046195D01*
X0072773Y0046223D01*
X0072828Y0046255D01*
X0072881Y0046290D01*
X0072931Y0046328D01*
X0072980Y0046369D01*
X0073025Y0046413D01*
X0073068Y0046460D01*
X0073107Y0046509D01*
X0073144Y0046561D01*
X0073177Y0046615D01*
X0073207Y0046671D01*
X0073234Y0046728D01*
X0073257Y0046787D01*
X0073276Y0046848D01*
X0073291Y0046909D01*
X0073303Y0046971D01*
X0073311Y0047034D01*
X0073315Y0047097D01*
X0073315Y0047161D01*
X0073311Y0047224D01*
X0073303Y0047287D01*
X0073291Y0047349D01*
X0073276Y0047410D01*
X0073257Y0047471D01*
X0073234Y0047530D01*
X0073207Y0047587D01*
X0073177Y0047643D01*
X0073144Y0047697D01*
X0073107Y0047749D01*
X0073068Y0047798D01*
X0073025Y0047845D01*
X0072980Y0047889D01*
X0072931Y0047930D01*
X0072881Y0047968D01*
X0072828Y0048003D01*
X0072773Y0048035D01*
X0072717Y0048063D01*
X0072658Y0048088D01*
X0072599Y0048109D01*
X0072538Y0048126D01*
X0072476Y0048139D01*
X0072413Y0048149D01*
X0072350Y0048155D01*
X0072287Y0048157D01*
X0071259Y0048157D01*
X0071259Y0044457D01*
X0068545Y0044457D02*
X0069778Y0048157D01*
X0067311Y0048157D02*
X0068545Y0044457D01*
X0078084Y0046513D02*
X0079728Y0046513D01*
X0080712Y0020598D02*
X0079479Y0016898D01*
X0078245Y0020598D01*
X0076084Y0020598D02*
X0074851Y0020598D01*
X0076084Y0020598D02*
X0076140Y0020596D01*
X0076196Y0020590D01*
X0076251Y0020581D01*
X0076306Y0020568D01*
X0076359Y0020551D01*
X0076411Y0020530D01*
X0076462Y0020506D01*
X0076511Y0020478D01*
X0076558Y0020448D01*
X0076603Y0020414D01*
X0076645Y0020377D01*
X0076685Y0020337D01*
X0076722Y0020295D01*
X0076756Y0020250D01*
X0076786Y0020203D01*
X0076814Y0020154D01*
X0076838Y0020103D01*
X0076859Y0020051D01*
X0076876Y0019998D01*
X0076889Y0019943D01*
X0076898Y0019888D01*
X0076904Y0019832D01*
X0076906Y0019776D01*
X0076904Y0019720D01*
X0076898Y0019664D01*
X0076889Y0019609D01*
X0076876Y0019554D01*
X0076859Y0019501D01*
X0076838Y0019449D01*
X0076814Y0019398D01*
X0076786Y0019349D01*
X0076756Y0019302D01*
X0076722Y0019257D01*
X0076685Y0019215D01*
X0076645Y0019175D01*
X0076603Y0019138D01*
X0076558Y0019104D01*
X0076511Y0019074D01*
X0076462Y0019046D01*
X0076411Y0019022D01*
X0076359Y0019001D01*
X0076306Y0018984D01*
X0076251Y0018971D01*
X0076196Y0018962D01*
X0076140Y0018956D01*
X0076084Y0018954D01*
X0075262Y0018954D01*
X0075879Y0018954D02*
X0075942Y0018952D01*
X0076005Y0018946D01*
X0076068Y0018936D01*
X0076130Y0018923D01*
X0076191Y0018906D01*
X0076250Y0018885D01*
X0076309Y0018860D01*
X0076365Y0018832D01*
X0076420Y0018800D01*
X0076473Y0018765D01*
X0076523Y0018727D01*
X0076572Y0018686D01*
X0076617Y0018642D01*
X0076660Y0018595D01*
X0076699Y0018546D01*
X0076736Y0018494D01*
X0076769Y0018440D01*
X0076799Y0018384D01*
X0076826Y0018327D01*
X0076849Y0018268D01*
X0076868Y0018207D01*
X0076883Y0018146D01*
X0076895Y0018084D01*
X0076903Y0018021D01*
X0076907Y0017958D01*
X0076907Y0017894D01*
X0076903Y0017831D01*
X0076895Y0017768D01*
X0076883Y0017706D01*
X0076868Y0017645D01*
X0076849Y0017584D01*
X0076826Y0017525D01*
X0076799Y0017468D01*
X0076769Y0017412D01*
X0076736Y0017358D01*
X0076699Y0017306D01*
X0076660Y0017257D01*
X0076617Y0017210D01*
X0076572Y0017166D01*
X0076523Y0017125D01*
X0076473Y0017087D01*
X0076420Y0017052D01*
X0076365Y0017020D01*
X0076309Y0016992D01*
X0076250Y0016967D01*
X0076191Y0016946D01*
X0076130Y0016929D01*
X0076068Y0016916D01*
X0076005Y0016906D01*
X0075942Y0016900D01*
X0075879Y0016898D01*
X0074851Y0016898D01*
X0068849Y0016898D02*
X0070082Y0020598D01*
X0067615Y0020598D02*
X0068849Y0016898D01*
X0066276Y0017720D02*
X0066276Y0018131D01*
X0066274Y0018187D01*
X0066268Y0018243D01*
X0066259Y0018298D01*
X0066246Y0018353D01*
X0066229Y0018406D01*
X0066208Y0018458D01*
X0066184Y0018509D01*
X0066156Y0018558D01*
X0066126Y0018605D01*
X0066092Y0018650D01*
X0066055Y0018692D01*
X0066015Y0018732D01*
X0065973Y0018769D01*
X0065928Y0018803D01*
X0065881Y0018833D01*
X0065832Y0018861D01*
X0065781Y0018885D01*
X0065729Y0018906D01*
X0065676Y0018923D01*
X0065621Y0018936D01*
X0065566Y0018945D01*
X0065510Y0018951D01*
X0065454Y0018953D01*
X0065454Y0018954D02*
X0064221Y0018954D01*
X0064221Y0020598D01*
X0066276Y0020598D01*
X0066276Y0017720D02*
X0066274Y0017664D01*
X0066268Y0017608D01*
X0066259Y0017553D01*
X0066246Y0017498D01*
X0066229Y0017445D01*
X0066208Y0017393D01*
X0066184Y0017342D01*
X0066156Y0017293D01*
X0066126Y0017246D01*
X0066092Y0017201D01*
X0066055Y0017159D01*
X0066015Y0017119D01*
X0065973Y0017082D01*
X0065928Y0017048D01*
X0065881Y0017018D01*
X0065832Y0016990D01*
X0065781Y0016966D01*
X0065729Y0016945D01*
X0065676Y0016928D01*
X0065621Y0016915D01*
X0065566Y0016906D01*
X0065510Y0016900D01*
X0065454Y0016898D01*
X0064221Y0016898D01*
X0082051Y0016898D02*
X0083079Y0016898D01*
X0083142Y0016900D01*
X0083205Y0016906D01*
X0083268Y0016916D01*
X0083330Y0016929D01*
X0083391Y0016946D01*
X0083450Y0016967D01*
X0083509Y0016992D01*
X0083565Y0017020D01*
X0083620Y0017052D01*
X0083673Y0017087D01*
X0083723Y0017125D01*
X0083772Y0017166D01*
X0083817Y0017210D01*
X0083860Y0017257D01*
X0083899Y0017306D01*
X0083936Y0017358D01*
X0083969Y0017412D01*
X0083999Y0017468D01*
X0084026Y0017525D01*
X0084049Y0017584D01*
X0084068Y0017645D01*
X0084083Y0017706D01*
X0084095Y0017768D01*
X0084103Y0017831D01*
X0084107Y0017894D01*
X0084107Y0017958D01*
X0084103Y0018021D01*
X0084095Y0018084D01*
X0084083Y0018146D01*
X0084068Y0018207D01*
X0084049Y0018268D01*
X0084026Y0018327D01*
X0083999Y0018384D01*
X0083969Y0018440D01*
X0083936Y0018494D01*
X0083899Y0018546D01*
X0083860Y0018595D01*
X0083817Y0018642D01*
X0083772Y0018686D01*
X0083723Y0018727D01*
X0083673Y0018765D01*
X0083620Y0018800D01*
X0083565Y0018832D01*
X0083509Y0018860D01*
X0083450Y0018885D01*
X0083391Y0018906D01*
X0083330Y0018923D01*
X0083268Y0018936D01*
X0083205Y0018946D01*
X0083142Y0018952D01*
X0083079Y0018954D01*
X0083284Y0018954D02*
X0082462Y0018954D01*
X0083284Y0018954D02*
X0083340Y0018956D01*
X0083396Y0018962D01*
X0083451Y0018971D01*
X0083506Y0018984D01*
X0083559Y0019001D01*
X0083611Y0019022D01*
X0083662Y0019046D01*
X0083711Y0019074D01*
X0083758Y0019104D01*
X0083803Y0019138D01*
X0083845Y0019175D01*
X0083885Y0019215D01*
X0083922Y0019257D01*
X0083956Y0019302D01*
X0083986Y0019349D01*
X0084014Y0019398D01*
X0084038Y0019449D01*
X0084059Y0019501D01*
X0084076Y0019554D01*
X0084089Y0019609D01*
X0084098Y0019664D01*
X0084104Y0019720D01*
X0084106Y0019776D01*
X0084104Y0019832D01*
X0084098Y0019888D01*
X0084089Y0019943D01*
X0084076Y0019998D01*
X0084059Y0020051D01*
X0084038Y0020103D01*
X0084014Y0020154D01*
X0083986Y0020203D01*
X0083956Y0020250D01*
X0083922Y0020295D01*
X0083885Y0020337D01*
X0083845Y0020377D01*
X0083803Y0020414D01*
X0083758Y0020448D01*
X0083711Y0020478D01*
X0083662Y0020506D01*
X0083611Y0020530D01*
X0083559Y0020551D01*
X0083506Y0020568D01*
X0083451Y0020581D01*
X0083396Y0020590D01*
X0083340Y0020596D01*
X0083284Y0020598D01*
X0082051Y0020598D01*
X0090599Y0020598D02*
X0091832Y0020598D01*
X0091888Y0020596D01*
X0091944Y0020590D01*
X0091999Y0020581D01*
X0092054Y0020568D01*
X0092107Y0020551D01*
X0092159Y0020530D01*
X0092210Y0020506D01*
X0092259Y0020478D01*
X0092306Y0020448D01*
X0092351Y0020414D01*
X0092393Y0020377D01*
X0092433Y0020337D01*
X0092470Y0020295D01*
X0092504Y0020250D01*
X0092534Y0020203D01*
X0092562Y0020154D01*
X0092586Y0020103D01*
X0092607Y0020051D01*
X0092624Y0019998D01*
X0092637Y0019943D01*
X0092646Y0019888D01*
X0092652Y0019832D01*
X0092654Y0019776D01*
X0092652Y0019720D01*
X0092646Y0019664D01*
X0092637Y0019609D01*
X0092624Y0019554D01*
X0092607Y0019501D01*
X0092586Y0019449D01*
X0092562Y0019398D01*
X0092534Y0019349D01*
X0092504Y0019302D01*
X0092470Y0019257D01*
X0092433Y0019215D01*
X0092393Y0019175D01*
X0092351Y0019138D01*
X0092306Y0019104D01*
X0092259Y0019074D01*
X0092210Y0019046D01*
X0092159Y0019022D01*
X0092107Y0019001D01*
X0092054Y0018984D01*
X0091999Y0018971D01*
X0091944Y0018962D01*
X0091888Y0018956D01*
X0091832Y0018954D01*
X0091010Y0018954D01*
X0091627Y0018954D02*
X0091690Y0018952D01*
X0091753Y0018946D01*
X0091816Y0018936D01*
X0091878Y0018923D01*
X0091939Y0018906D01*
X0091998Y0018885D01*
X0092057Y0018860D01*
X0092113Y0018832D01*
X0092168Y0018800D01*
X0092221Y0018765D01*
X0092271Y0018727D01*
X0092320Y0018686D01*
X0092365Y0018642D01*
X0092408Y0018595D01*
X0092447Y0018546D01*
X0092484Y0018494D01*
X0092517Y0018440D01*
X0092547Y0018384D01*
X0092574Y0018327D01*
X0092597Y0018268D01*
X0092616Y0018207D01*
X0092631Y0018146D01*
X0092643Y0018084D01*
X0092651Y0018021D01*
X0092655Y0017958D01*
X0092655Y0017894D01*
X0092651Y0017831D01*
X0092643Y0017768D01*
X0092631Y0017706D01*
X0092616Y0017645D01*
X0092597Y0017584D01*
X0092574Y0017525D01*
X0092547Y0017468D01*
X0092517Y0017412D01*
X0092484Y0017358D01*
X0092447Y0017306D01*
X0092408Y0017257D01*
X0092365Y0017210D01*
X0092320Y0017166D01*
X0092271Y0017125D01*
X0092221Y0017087D01*
X0092168Y0017052D01*
X0092113Y0017020D01*
X0092057Y0016992D01*
X0091998Y0016967D01*
X0091939Y0016946D01*
X0091878Y0016929D01*
X0091816Y0016916D01*
X0091753Y0016906D01*
X0091690Y0016900D01*
X0091627Y0016898D01*
X0090599Y0016898D01*
X0095227Y0016898D02*
X0096460Y0020598D01*
X0097799Y0020598D02*
X0099032Y0020598D01*
X0099088Y0020596D01*
X0099144Y0020590D01*
X0099199Y0020581D01*
X0099254Y0020568D01*
X0099307Y0020551D01*
X0099359Y0020530D01*
X0099410Y0020506D01*
X0099459Y0020478D01*
X0099506Y0020448D01*
X0099551Y0020414D01*
X0099593Y0020377D01*
X0099633Y0020337D01*
X0099670Y0020295D01*
X0099704Y0020250D01*
X0099734Y0020203D01*
X0099762Y0020154D01*
X0099786Y0020103D01*
X0099807Y0020051D01*
X0099824Y0019998D01*
X0099837Y0019943D01*
X0099846Y0019888D01*
X0099852Y0019832D01*
X0099854Y0019776D01*
X0099852Y0019720D01*
X0099846Y0019664D01*
X0099837Y0019609D01*
X0099824Y0019554D01*
X0099807Y0019501D01*
X0099786Y0019449D01*
X0099762Y0019398D01*
X0099734Y0019349D01*
X0099704Y0019302D01*
X0099670Y0019257D01*
X0099633Y0019215D01*
X0099593Y0019175D01*
X0099551Y0019138D01*
X0099506Y0019104D01*
X0099459Y0019074D01*
X0099410Y0019046D01*
X0099359Y0019022D01*
X0099307Y0019001D01*
X0099254Y0018984D01*
X0099199Y0018971D01*
X0099144Y0018962D01*
X0099088Y0018956D01*
X0099032Y0018954D01*
X0098210Y0018954D01*
X0098827Y0018954D02*
X0098890Y0018952D01*
X0098953Y0018946D01*
X0099016Y0018936D01*
X0099078Y0018923D01*
X0099139Y0018906D01*
X0099198Y0018885D01*
X0099257Y0018860D01*
X0099313Y0018832D01*
X0099368Y0018800D01*
X0099421Y0018765D01*
X0099471Y0018727D01*
X0099520Y0018686D01*
X0099565Y0018642D01*
X0099608Y0018595D01*
X0099647Y0018546D01*
X0099684Y0018494D01*
X0099717Y0018440D01*
X0099747Y0018384D01*
X0099774Y0018327D01*
X0099797Y0018268D01*
X0099816Y0018207D01*
X0099831Y0018146D01*
X0099843Y0018084D01*
X0099851Y0018021D01*
X0099855Y0017958D01*
X0099855Y0017894D01*
X0099851Y0017831D01*
X0099843Y0017768D01*
X0099831Y0017706D01*
X0099816Y0017645D01*
X0099797Y0017584D01*
X0099774Y0017525D01*
X0099747Y0017468D01*
X0099717Y0017412D01*
X0099684Y0017358D01*
X0099647Y0017306D01*
X0099608Y0017257D01*
X0099565Y0017210D01*
X0099520Y0017166D01*
X0099471Y0017125D01*
X0099421Y0017087D01*
X0099368Y0017052D01*
X0099313Y0017020D01*
X0099257Y0016992D01*
X0099198Y0016967D01*
X0099139Y0016946D01*
X0099078Y0016929D01*
X0099016Y0016916D01*
X0098953Y0016906D01*
X0098890Y0016900D01*
X0098827Y0016898D01*
X0097799Y0016898D01*
X0095227Y0016898D02*
X0093993Y0020598D01*
X0103197Y0020598D02*
X0103197Y0018954D01*
X0104431Y0018954D01*
X0104431Y0018953D02*
X0104487Y0018951D01*
X0104543Y0018945D01*
X0104598Y0018936D01*
X0104653Y0018923D01*
X0104706Y0018906D01*
X0104758Y0018885D01*
X0104809Y0018861D01*
X0104858Y0018833D01*
X0104905Y0018803D01*
X0104950Y0018769D01*
X0104992Y0018732D01*
X0105032Y0018692D01*
X0105069Y0018650D01*
X0105103Y0018605D01*
X0105133Y0018558D01*
X0105161Y0018509D01*
X0105185Y0018458D01*
X0105206Y0018406D01*
X0105223Y0018353D01*
X0105236Y0018298D01*
X0105245Y0018243D01*
X0105251Y0018187D01*
X0105253Y0018131D01*
X0105253Y0017720D01*
X0105251Y0017664D01*
X0105245Y0017608D01*
X0105236Y0017553D01*
X0105223Y0017498D01*
X0105206Y0017445D01*
X0105185Y0017393D01*
X0105161Y0017342D01*
X0105133Y0017293D01*
X0105103Y0017246D01*
X0105069Y0017201D01*
X0105032Y0017159D01*
X0104992Y0017119D01*
X0104950Y0017082D01*
X0104905Y0017048D01*
X0104858Y0017018D01*
X0104809Y0016990D01*
X0104758Y0016966D01*
X0104706Y0016945D01*
X0104653Y0016928D01*
X0104598Y0016915D01*
X0104543Y0016906D01*
X0104487Y0016900D01*
X0104431Y0016898D01*
X0103197Y0016898D01*
X0103197Y0020598D02*
X0105253Y0020598D01*
X0106592Y0020598D02*
X0107825Y0016898D01*
X0109058Y0020598D01*
D14*
X0111315Y0025803D02*
X0111315Y0039189D01*
X0102654Y0039189D02*
X0102654Y0025803D01*
X0099504Y0025803D02*
X0099504Y0039189D01*
X0090843Y0039189D02*
X0090843Y0025803D01*
X0083756Y0025803D02*
X0083756Y0039189D01*
X0075094Y0039189D02*
X0075094Y0025803D01*
X0071945Y0025803D02*
X0071945Y0039189D01*
X0063283Y0039189D02*
X0063283Y0025803D01*
X0052299Y0014898D02*
X0122299Y0014898D01*
X0122299Y0139898D01*
X0052299Y0139898D01*
X0052299Y0014898D01*
X0049110Y0045094D02*
X0049110Y0051394D01*
X0042811Y0051394D02*
X0042811Y0045094D01*
X0066039Y0057299D02*
X0072339Y0057299D01*
X0076276Y0054937D02*
X0076669Y0054937D01*
X0076276Y0054937D02*
X0076276Y0061236D01*
X0079031Y0061236D01*
X0082969Y0061236D02*
X0085724Y0061236D01*
X0085724Y0054937D01*
X0085331Y0054937D01*
X0090055Y0053362D02*
X0096354Y0053362D01*
X0101866Y0053362D02*
X0108165Y0053362D01*
X0108165Y0058874D02*
X0101866Y0058874D01*
X0101866Y0061236D02*
X0108165Y0061236D01*
X0108165Y0066748D02*
X0101866Y0066748D01*
X0097929Y0069110D02*
X0097535Y0069110D01*
X0097929Y0069110D02*
X0097929Y0062811D01*
X0095173Y0062811D01*
X0091236Y0062811D02*
X0088480Y0062811D01*
X0088480Y0069110D01*
X0088874Y0069110D01*
X0092811Y0069110D02*
X0093598Y0069110D01*
X0096354Y0075016D02*
X0090055Y0075016D01*
X0085724Y0074622D02*
X0085724Y0080921D01*
X0082969Y0080921D01*
X0079031Y0080921D02*
X0076276Y0080921D01*
X0076276Y0074622D01*
X0076669Y0074622D01*
X0080606Y0074622D02*
X0081394Y0074622D01*
X0085331Y0074622D02*
X0085724Y0074622D01*
X0084150Y0070685D02*
X0077850Y0070685D01*
X0072339Y0070685D02*
X0066039Y0070685D01*
X0066039Y0065173D02*
X0072339Y0065173D01*
X0072339Y0062811D02*
X0066039Y0062811D01*
X0077850Y0065173D02*
X0084150Y0065173D01*
X0090055Y0058874D02*
X0096354Y0058874D01*
X0081394Y0054937D02*
X0080606Y0054937D01*
X0101866Y0075016D02*
X0108165Y0075016D01*
X0108165Y0080528D02*
X0101866Y0080528D01*
X0101866Y0082890D02*
X0108165Y0082890D01*
X0108165Y0088402D02*
X0101866Y0088402D01*
X0097929Y0090764D02*
X0097535Y0090764D01*
X0097929Y0090764D02*
X0097929Y0084465D01*
X0095173Y0084465D01*
X0091236Y0084465D02*
X0088480Y0084465D01*
X0088480Y0090764D01*
X0088874Y0090764D01*
X0092811Y0090764D02*
X0093598Y0090764D01*
X0084150Y0090370D02*
X0077850Y0090370D01*
X0072339Y0090370D02*
X0066039Y0090370D01*
X0066039Y0084858D02*
X0072339Y0084858D01*
X0072339Y0082496D02*
X0066039Y0082496D01*
X0066039Y0076984D02*
X0072339Y0076984D01*
X0077850Y0084858D02*
X0084150Y0084858D01*
X0090055Y0080528D02*
X0096354Y0080528D01*
X0130213Y0091551D02*
X0130213Y0099425D01*
X0143992Y0099425D01*
X0161709Y0095488D02*
X0161709Y0056118D01*
X0143992Y0052181D02*
X0130213Y0052181D01*
X0130213Y0060055D01*
X0032496Y0063913D02*
X0032496Y0065882D01*
X0032496Y0063913D02*
X0022654Y0063913D01*
X0012811Y0067850D02*
X0012811Y0083598D01*
X0022654Y0087535D02*
X0032496Y0087535D01*
X0032496Y0085567D01*
M02*
