%
M48
M72
T01C0.01378
T02C0.03937
T03C0.12598
%
T01
X73520Y28634
X85331Y36433
X101079Y42339
X92417Y49819
X110932Y52602
X124701Y56118
X114071Y65567
X108543Y67909
X86916Y63982
X77309Y63844
X64443Y56118
X59947Y66148
X71551Y73414
X65646Y75803
X47929Y79740
X35331Y87220
X25488Y83283
X26276Y77772
X61698Y93530
X94337Y82841
X108953Y89583
X110932Y81698
X133756Y93126
X141630Y87220
X142417Y79740
X64443Y43104
X101079Y26898
T02
X117349Y20298
X117349Y30298
X117349Y40298
X117349Y50298
X117349Y60298
X117349Y70298
X117349Y80298
X117349Y90298
X117349Y100298
X117349Y110298
X57249Y110298
X57249Y100298
X57249Y90298
X57249Y80298
X57249Y70298
X57249Y60298
X57249Y50298
X57249Y40298
X57249Y30298
X57249Y20298
T03
X148323Y24622
X148323Y126984
X26276Y126984
X26276Y24622
M30
